<svg width="49" height="48" viewBox="0 0 49 48" fill="none" xmlns="http://www.w3.org/2000/svg">
<path d="M42.2435 2.87716C42.2435 2.46218 42.0787 2.06421 41.7852 1.77078C41.4918 1.47735 41.0938 1.3125 40.6789 1.3125C40.2639 1.3125 39.8659 1.47735 39.5725 1.77078C39.279 2.06421 39.1142 2.46218 39.1142 2.87716V11.4828H42.2435V2.87716Z" fill="#FAA940"/>
<path d="M9.38578 10.7004V7.75888L6.74152 13.0474H10.1681C10.3756 13.0474 10.5746 13.1298 10.7213 13.2766C10.868 13.4233 10.9504 13.6223 10.9504 13.8297V16.7713L13.5947 11.4828H10.1681C9.96063 11.4828 9.76164 11.4003 9.61492 11.2536C9.46821 11.1069 9.38578 10.9079 9.38578 10.7004Z" fill="#FAA940"/>
<path d="M18.7737 22.4353V2.09483C18.7737 1.88734 18.6913 1.68835 18.5446 1.54164C18.3979 1.39492 18.1989 1.3125 17.9914 1.3125H2.34483C2.13734 1.3125 1.93835 1.39492 1.79164 1.54164C1.64492 1.68835 1.5625 1.88734 1.5625 2.09483V22.4353C1.5625 22.6428 1.64492 22.8418 1.79164 22.9885C1.93835 23.1352 2.13734 23.2177 2.34483 23.2177H17.9914C18.1989 23.2177 18.3979 23.1352 18.5446 22.9885C18.6913 22.8418 18.7737 22.6428 18.7737 22.4353ZM15.5583 11.0525L10.8644 20.4404C10.7994 20.5694 10.6999 20.6779 10.577 20.7539C10.4541 20.8298 10.3126 20.8703 10.1681 20.8707C10.1074 20.8706 10.0469 20.8627 9.98817 20.8472C9.81711 20.8068 9.66464 20.7099 9.55536 20.5723C9.44607 20.4346 9.38634 20.2641 9.38578 20.0884V14.6121H5.47414C5.34078 14.6117 5.20974 14.5772 5.09346 14.5119C4.97718 14.4466 4.87952 14.3526 4.80976 14.239C4.73999 14.1253 4.70044 13.9957 4.69486 13.8625C4.68928 13.7292 4.71785 13.5968 4.77787 13.4777L9.47183 4.08976C9.54951 3.93213 9.67879 3.80581 9.83818 3.73181C9.99757 3.6578 10.1775 3.64056 10.348 3.68295C10.5191 3.72338 10.6716 3.82024 10.7808 3.95791C10.8901 4.09558 10.9499 4.26604 10.9504 4.44181V9.9181H14.8621C14.9954 9.91851 15.1265 9.953 15.2427 10.0183C15.359 10.0836 15.4567 10.1775 15.5265 10.2912C15.5962 10.4048 15.6358 10.5344 15.6413 10.6677C15.6469 10.8009 15.6184 10.9334 15.5583 11.0525Z" fill="#FAA940"/>
<path d="M32.8556 2.87716C32.8556 2.46218 32.6908 2.06421 32.3974 1.77078C32.1039 1.47735 31.7059 1.3125 31.291 1.3125C30.876 1.3125 30.478 1.47735 30.1846 1.77078C29.8912 2.06421 29.7263 2.46218 29.7263 2.87716V11.4828H32.8556V2.87716Z" fill="#FAA940"/>
<path d="M32.8634 24.7354C32.8634 23.9075 33.1923 23.1136 33.7777 22.5282C34.3631 21.9428 35.157 21.6139 35.9849 21.6139C36.8128 21.6139 37.6067 21.9428 38.1921 22.5282C38.7775 23.1136 39.1064 23.9075 39.1064 24.7354C40.8284 24.5448 42.4197 23.726 43.5759 22.4356C44.732 21.1453 45.3718 19.4739 45.3728 17.7414V11.4828C45.3728 11.2753 45.2904 11.0763 45.1437 10.9296C44.997 10.7829 44.798 10.7004 44.5905 10.7004H43.8082V12.2651C43.8082 12.4726 43.7258 12.6716 43.5791 12.8183C43.4323 12.965 43.2334 13.0474 43.0259 13.0474H38.3319C38.1244 13.0474 37.9254 12.965 37.7787 12.8183C37.632 12.6716 37.5496 12.4726 37.5496 12.2651V10.7004H34.4203V12.2651C34.4203 12.4726 34.3378 12.6716 34.1911 12.8183C34.0444 12.965 33.8454 13.0474 33.6379 13.0474H28.944C28.7365 13.0474 28.5375 12.965 28.3908 12.8183C28.2441 12.6716 28.1616 12.4726 28.1616 12.2651V10.7004H27.3793C27.1718 10.7004 26.9728 10.7829 26.8261 10.9296C26.6794 11.0763 26.597 11.2753 26.597 11.4828V17.7414C26.598 19.4739 27.2378 21.1453 28.394 22.4356C29.5501 23.726 31.1414 24.5448 32.8634 24.7354Z" fill="#FAA940"/>
<path d="M34.4203 24.7823V27.9116C34.4203 28.3266 34.5851 28.7246 34.8786 29.018C35.172 29.3115 35.57 29.4763 35.9849 29.4763C36.3999 29.4763 36.7979 29.3115 37.0913 29.018C37.3848 28.7246 37.5496 28.3266 37.5496 27.9116V24.7823C37.5496 24.3674 37.3848 23.9694 37.0913 23.676C36.7979 23.3825 36.3999 23.2177 35.9849 23.2177C35.57 23.2177 35.172 23.3825 34.8786 23.676C34.5851 23.9694 34.4203 24.3674 34.4203 24.7823ZM36.7673 27.1293H35.2026V25.5647H36.7673V27.1293Z" fill="#FAA940"/>
<path d="M44.5905 41.2112H29.0301C28.8448 41.2174 28.6625 41.1637 28.5103 41.058C28.358 40.9522 28.244 40.8002 28.1851 40.6245C28.1493 40.4912 28.1508 40.3507 28.1894 40.2182C28.228 40.0858 28.3023 39.9665 28.4042 39.8734C28.4735 39.8002 28.5573 39.7422 28.6502 39.7031C28.7431 39.6641 28.8432 39.6448 28.944 39.6465H34.4203C35.0422 39.6447 35.6381 39.3968 36.0778 38.9571C36.5175 38.5173 36.7654 37.9214 36.7673 37.2996V30.9392C36.2545 31.0748 35.7154 31.0748 35.2026 30.9392V37.2996C35.2026 37.507 35.1202 37.706 34.9735 37.8527C34.8268 37.9995 34.6278 38.0819 34.4203 38.0819H28.944C28.5867 38.082 28.2342 38.1638 27.9134 38.3211C27.5926 38.4783 27.312 38.7069 27.093 38.9892C26.8741 39.2715 26.7226 39.6002 26.6502 39.9501C26.5778 40.2999 26.5864 40.6617 26.6752 41.0078C26.8138 41.5232 27.1209 41.9774 27.5478 42.2979C27.9746 42.6184 28.4964 42.7866 29.0301 42.7759H44.5905C44.798 42.7759 44.997 42.8583 45.1437 43.005C45.2905 43.1517 45.3729 43.3507 45.3729 43.5582V44.3405C45.3729 44.548 45.2905 44.747 45.1437 44.8937C44.997 45.0404 44.798 45.1228 44.5905 45.1228H16.4268C14.9749 45.1212 13.5829 44.5437 12.5563 43.517C11.5296 42.4904 10.9521 41.0984 10.9505 39.6465V24.7823H9.3858V39.6465C9.3887 41.513 10.1314 43.3022 11.4512 44.622C12.7711 45.9419 14.5603 46.6846 16.4268 46.6875H44.5905C45.2124 46.6856 45.8083 46.4378 46.2481 45.998C46.6878 45.5583 46.9357 44.9624 46.9375 44.3405V43.5582C46.9357 42.9363 46.6878 42.3404 46.2481 41.9007C45.8083 41.4609 45.2124 41.2131 44.5905 41.2112Z" fill="#FAA940"/>
</svg>
