<svg width="49" height="48" viewBox="0 0 49 48" fill="none" xmlns="http://www.w3.org/2000/svg">
<g clip-path="url(#clip0_25_446)">
<path d="M4.99176 20.1264C8.51715 20.7271 12.0891 21.0135 15.6651 20.9826C16.5981 20.9826 17.5302 20.9629 18.4572 20.9278L16.0957 19.275C15.953 19.2739 15.8119 19.2724 15.6655 19.2702C12.0891 19.2393 8.51715 19.5257 4.99176 20.1264Z" fill="#FAA940"/>
<path d="M23.7825 22.5654L36.089 10.259L29.1935 0.409024C29.0483 0.20121 28.8189 0.0686266 28.5663 0.0466534C28.3142 0.0246802 28.0651 0.11518 27.8859 0.294317L24.3803 3.80034C24.0671 4.11355 24.0443 4.61409 24.3281 4.95412L29.3823 11.0195C29.5864 11.2537 29.6475 11.5796 29.5425 11.8719C29.4375 12.1643 29.1827 12.3766 28.8762 12.4272C28.5697 12.4779 28.2602 12.3587 28.0666 12.1155L23.212 6.28964C23.0578 6.10491 22.8332 5.99318 22.5926 5.98238C22.3524 5.97158 22.1185 6.06208 21.9483 6.23228L19.3436 8.83741C19.0732 9.10779 19.0147 9.52453 19.2006 9.85897L21.6005 14.1795C21.7867 14.5139 21.7282 14.931 21.4578 15.2014C21.1875 15.4718 20.7703 15.5303 20.4359 15.3444L15.5504 12.6302L13.8175 14.3627C13.6388 14.5419 13.5479 14.7906 13.5702 15.0431C13.5922 15.2953 13.7248 15.5247 13.9322 15.6699L23.7825 22.5654Z" fill="#FAA940"/>
<path d="M25.0909 24.8901L29.3302 29.1291C29.6646 29.4635 30.2069 29.4635 30.5413 29.1291L42.6534 17.0174C42.8139 16.8569 42.904 16.639 42.904 16.4118C42.904 16.1846 42.8139 15.9668 42.6534 15.8062L38.414 11.5677C38.0796 11.2332 37.5373 11.2332 37.2029 11.5677L25.0909 23.679C24.7564 24.0134 24.7564 24.5557 25.0909 24.8901ZM30.5413 20.6515L37.2022 13.9903C37.4174 13.7683 37.7355 13.6797 38.0345 13.7583C38.3332 13.8365 38.5667 14.07 38.6453 14.3691C38.7239 14.6677 38.6353 14.9858 38.4133 15.2011L31.7524 21.8623C31.4165 22.1881 30.8813 22.184 30.5506 21.8533C30.2195 21.5226 30.2154 20.9874 30.5413 20.6515ZM27.5135 23.679L28.1191 23.0734C28.4546 22.7464 28.9909 22.7498 29.3224 23.0812C29.6538 23.4127 29.6572 23.949 29.3298 24.2845L28.7242 24.8901C28.3887 25.2156 27.8535 25.2115 27.5224 24.8808C27.1917 24.5501 27.1876 24.0149 27.5135 23.679Z" fill="#FAA940"/>
<path d="M0.755383 22.2369C2.89944 23.5177 9.02585 24.4082 15.6651 24.4082C18.0468 24.41 20.4269 24.2894 22.7963 24.0465C22.8 24.0212 22.7989 23.9959 22.8034 23.9709L20.7331 22.5215C19.0687 22.6336 17.3675 22.6954 15.6651 22.6954C9.71037 22.6954 4.35935 22.041 1.3319 20.9442L1.32892 20.9431L1.2913 20.9304C0.935637 20.8075 0.587791 20.663 0.25 20.4973V21.8373H0.250372C0.388543 22.0045 0.560603 22.1408 0.755383 22.2369Z" fill="#FAA940"/>
<path d="M13.6782 17.5827L12.114 16.4881C11.9144 16.3481 11.7468 16.1671 11.6232 15.9567C4.10052 16.3679 0.510698 17.7518 0.25 18.4341V18.4385C0.635089 18.7987 1.09839 19.065 1.60377 19.2158C4.31615 18.2963 8.7011 17.7071 13.6782 17.5827Z" fill="#FAA940"/>
<path d="M17.8889 36.2469L15.6614 30.723L12.7877 37.8192C12.3773 38.8173 12.4608 39.9503 13.0127 40.8776C13.4961 41.7148 14.3505 42.2708 15.3117 42.3744C15.5459 42.3986 15.7824 42.3986 16.0167 42.3744C16.9787 42.2716 17.8338 41.7152 18.3175 40.8776C18.8695 39.9503 18.9529 38.8173 18.5429 37.8192L17.8889 36.2469Z" fill="#FAA940"/>
<path d="M28.7242 30.9457L23.4764 25.6975C20.8824 25.9832 18.2747 26.1247 15.6651 26.121C11.1357 26.2215 6.61255 25.7284 2.21121 24.6547C1.952 24.5754 1.67082 24.6238 1.45295 24.7851C1.23508 24.9463 1.10659 25.2011 1.10659 25.4722V44.6451C1.09989 44.9054 1.21795 45.1534 1.42465 45.3125C2.70877 46.2391 7.70524 47.531 15.6651 47.531C24.7393 47.531 29.9611 45.8525 30.224 44.9501V31.4195C30.1287 31.437 30.0322 31.4463 29.9354 31.4474C29.481 31.4489 29.0449 31.2683 28.7242 30.9457ZM4.53217 43.2488C4.53217 43.7218 4.14857 44.1054 3.67559 44.1054C3.20261 44.1054 2.81938 43.7218 2.81938 43.2488V32.1159C2.81938 31.6429 3.20261 31.2593 3.67559 31.2593C4.14857 31.2593 4.53217 31.6429 4.53217 32.1159V43.2488ZM4.53217 28.6903C4.53217 29.1633 4.14857 29.5465 3.67559 29.5465C3.20261 29.5465 2.81938 29.1633 2.81938 28.6903V27.8337C2.81938 27.3608 3.20261 26.9775 3.67559 26.9775C4.14857 26.9775 4.53217 27.3608 4.53217 27.8337V28.6903ZM19.789 41.7547C19.03 43.0593 17.6933 43.9226 16.1921 44.0782C16.0171 44.0965 15.8413 44.1054 15.6651 44.1054C15.4886 44.1054 15.3121 44.0965 15.1363 44.0782C13.6358 43.9222 12.2999 43.0585 11.5412 41.7547C10.713 40.3618 10.5889 38.6606 11.2064 37.1623L11.86 35.5895L14.0808 30.0828C14.3437 29.4419 14.9672 29.0225 15.6603 29.0207C16.353 29.0184 16.979 29.4341 17.2457 30.0735L20.1242 37.1623C20.7413 38.6606 20.6173 40.3618 19.789 41.7547Z" fill="#FAA940"/>
<path d="M39.2274 22.8652L36.3884 25.7042C38.6244 26.7545 39.7272 28.8985 40.7189 30.8269C41.2225 31.9163 41.8507 32.9434 42.5911 33.8879C43.0354 34.4026 43.6756 34.7061 44.3553 34.7247C45.0804 34.7493 45.7832 34.4734 46.2979 33.962L47.4856 32.7744C47.998 32.2604 48.274 31.5569 48.2483 30.8318C48.2297 30.1521 47.9261 29.5119 47.4114 29.0676C46.467 28.3272 45.4398 27.6989 44.3505 27.1954C42.422 26.204 40.278 25.1013 39.2274 22.8652Z" fill="#FAA940"/>
</g>
<defs>
<clipPath id="clip0_25_446">
<rect width="48" height="48" fill="white" transform="translate(0.25)"/>
</clipPath>
</defs>
</svg>
