<svg width="49" height="48" viewBox="0 0 49 48" fill="none" xmlns="http://www.w3.org/2000/svg">
<g clip-path="url(#clip0_25_201)">
<path d="M43.094 3.70255V36.2227C44.6712 36.4065 45.6574 36.8869 46.5493 37.3218C47.2272 37.6523 47.8412 37.9514 48.7501 38.1037V5.58391C47.1731 5.4 46.1873 4.91942 45.2954 4.48457C44.6172 4.15402 44.0031 3.85487 43.094 3.70255Z" fill="#FAA940"/>
<path d="M29.3185 37.1796C29.4178 37.2273 29.5155 37.2749 29.612 37.3219C30.5891 37.7983 31.4329 38.2098 33.2193 38.2098C35.0057 38.2098 35.8495 37.7983 36.8266 37.322C37.7184 36.8872 38.7043 36.407 40.2807 36.223V3.70273C39.3722 3.85506 38.7582 4.15411 38.0806 4.48457C36.9494 5.03603 35.6672 5.66113 33.2193 5.66113C31.4266 5.66113 30.2594 5.32581 29.3185 4.9297V37.1796Z" fill="#FAA940"/>
<path d="M48.75 44.2975V40.8867C47.1732 40.7028 46.1871 40.2225 45.2953 39.7878C44.3182 39.3113 43.4744 38.8999 41.688 38.8999C39.9016 38.8999 39.0578 39.3113 38.0806 39.7878C36.9494 40.3392 35.6672 40.9643 33.2193 40.9643C30.7714 40.9643 29.4892 40.3392 28.358 39.7877C27.3809 39.3113 26.5371 38.8999 24.7507 38.8999C22.9643 38.8999 22.1204 39.3113 21.1433 39.7878C20.0121 40.3392 18.7299 40.9643 16.2819 40.9643C13.8338 40.9643 12.5516 40.3392 11.4204 39.7878C10.4432 39.3113 9.59922 38.8999 7.81267 38.8999C6.02621 38.8999 5.18225 39.3113 4.20496 39.7878C3.31308 40.2225 2.32688 40.7028 0.75 40.8867V44.2975C1.65912 44.1453 2.27305 43.846 2.95112 43.5154C4.0823 42.964 5.36455 42.3389 7.81267 42.3389C10.2608 42.3389 11.5429 42.964 12.6742 43.5154C13.6514 43.9919 14.4954 44.4033 16.2819 44.4033C18.0683 44.4033 18.9122 43.9919 19.8893 43.5154C21.0205 42.964 22.3027 42.3389 24.7507 42.3389C27.1986 42.3389 28.4808 42.964 29.612 43.5154C30.5891 43.9919 31.4329 44.4033 33.2193 44.4033C35.0057 44.4033 35.8495 43.9919 36.8266 43.5154C37.9578 42.964 39.24 42.3389 41.688 42.3389C44.1359 42.3389 45.4181 42.964 46.5493 43.5155C47.2272 43.846 47.841 44.1452 48.75 44.2975Z" fill="#FAA940"/>
<path d="M22.9932 3.77169V36.2701C23.5067 36.1918 24.0854 36.1453 24.7507 36.1453C25.4148 36.1453 25.9926 36.1916 26.5054 36.2696V3.77104C26.0247 3.66224 25.4627 3.59677 24.7507 3.59677C24.0373 3.59677 23.4745 3.66251 22.9932 3.77169Z" fill="#FAA940"/>
<path d="M11.4204 4.48457C10.7422 4.15393 10.128 3.85478 9.21869 3.70255V36.2228C10.7959 36.4066 11.7822 36.887 12.6743 37.3219C13.6515 37.7983 14.4955 38.2098 16.282 38.2098C18.0684 38.2098 18.9123 37.7983 19.8894 37.3219C19.985 37.2752 20.0819 37.2281 20.1802 37.1809V4.9309C19.2398 5.32645 18.0732 5.66123 16.282 5.66123C13.8337 5.66123 12.5516 5.03612 11.4204 4.48457Z" fill="#FAA940"/>
<path d="M0.75 5.58391V38.1038C1.65894 37.9516 2.27305 37.6524 2.95112 37.3219C3.8429 36.8871 4.82892 36.4069 6.40542 36.2229V3.70273C5.49677 3.85506 4.88274 4.15411 4.20496 4.48457C3.31299 4.91942 2.32707 5.40009 0.75 5.58391Z" fill="#FAA940"/>
</g>
<defs>
<clipPath id="clip0_25_201">
<rect width="48" height="47" fill="white" transform="translate(0.75 0.5)"/>
</clipPath>
</defs>
</svg>
