<svg width="49" height="48" viewBox="0 0 49 48" fill="none" xmlns="http://www.w3.org/2000/svg">
<g clip-path="url(#clip0_25_196)">
<path d="M41.2025 7.02788C41.1902 7.00707 41.1769 6.98692 41.1625 6.9675C41.1382 6.949 41.1127 6.93211 41.0862 6.91695C36.5782 2.46706 30.493 -0.0189342 24.1587 0.00159094C17.8245 0.022116 11.7555 2.54749 7.27651 7.02651C2.79749 11.5055 0.272116 17.5745 0.251591 23.9087C0.231066 30.243 2.71706 36.3282 7.16695 40.8362C7.18214 40.8627 7.19902 40.8882 7.2175 40.9125C7.23513 40.9292 7.25748 40.9358 7.27615 40.9506C9.50101 43.1897 12.1459 44.9677 15.0592 46.1827C17.9726 47.3976 21.097 48.0257 24.2535 48.0308C27.41 48.0359 30.5365 47.418 33.4538 46.2125C36.371 45.007 39.0217 43.2376 41.2538 41.0058C43.4859 38.7739 45.2556 36.1235 46.4615 33.2063C47.6673 30.2892 48.2855 27.1628 48.2808 24.0063C48.276 20.8498 47.6483 17.7252 46.4337 14.8118C45.219 11.8983 43.4413 9.25299 41.2025 7.02788ZM24.25 1.5C29.9269 1.49677 35.3936 3.648 39.5458 7.5192L7.7692 39.2958C4.78725 36.0892 2.80652 32.0817 2.07018 27.7652C1.33384 23.4487 1.87394 19.0111 3.62417 14.9973C5.3744 10.9834 8.25859 7.56797 11.9226 5.17027C15.5867 2.77256 19.8712 1.49694 24.25 1.5ZM24.25 46.5C18.5146 46.5027 12.9964 44.3066 8.83135 40.3637L11.995 37.2L11.755 37.965C11.7242 38.0585 11.7124 38.1573 11.7203 38.2554C11.7283 38.3536 11.7557 38.4491 11.8012 38.5365C11.8466 38.6239 11.9091 38.7013 11.9848 38.7641C12.0606 38.827 12.1482 38.874 12.2425 38.9025C12.2866 38.9161 12.3318 38.9261 12.3775 38.9325C12.4071 38.9387 12.4373 38.9412 12.4675 38.94C12.6271 38.9413 12.7827 38.8908 12.9112 38.7962C13.0397 38.7015 13.134 38.5678 13.18 38.415L13.3075 38.0025L14.2825 34.9125L16.2625 32.9325C16.5481 33.3457 16.8613 33.7391 17.2 34.11C18.5954 35.6957 20.4751 36.7766 22.5475 37.185C22.6565 37.2057 22.7687 37.2019 22.8762 37.1741C22.9836 37.1463 23.0835 37.0951 23.1688 37.0241C23.2541 36.9532 23.3226 36.8642 23.3695 36.7637C23.4164 36.6631 23.4405 36.5535 23.44 36.4425V26.07C23.4404 25.9708 23.4605 25.8726 23.4991 25.7812C23.5377 25.6898 23.5941 25.6069 23.665 25.5375C23.7336 25.4681 23.8154 25.4131 23.9055 25.3757C23.9957 25.3384 24.0924 25.3194 24.19 25.32C24.2886 25.3196 24.3863 25.3387 24.4775 25.3763C24.5687 25.4138 24.6515 25.469 24.7212 25.5388C24.791 25.6085 24.8462 25.6913 24.8837 25.7825C24.9213 25.8737 24.9404 25.9714 24.94 26.07V36.4425C24.9395 36.5535 24.9636 36.6631 25.0105 36.7637C25.0574 36.8642 25.1259 36.9532 25.2112 37.0241C25.2965 37.0951 25.3965 37.1463 25.5039 37.1741C25.6113 37.2019 25.7235 37.2057 25.8325 37.185C27.1462 36.9148 28.3915 36.3814 29.4936 35.6171C30.5956 34.8527 31.5316 33.8732 32.245 32.7375L33.5575 33.195L35.2 38.415C35.246 38.5678 35.3403 38.7015 35.4688 38.7962C35.5973 38.8908 35.7529 38.9413 35.9125 38.94C35.9889 38.9385 36.0647 38.9259 36.1375 38.9025C36.2318 38.874 36.3194 38.827 36.3952 38.7641C36.471 38.7013 36.5334 38.6239 36.5788 38.5365C36.6243 38.4491 36.6518 38.3536 36.6597 38.2554C36.6676 38.1573 36.6558 38.0585 36.625 37.965L34.87 32.385C34.8367 32.2736 34.777 32.1718 34.6961 32.0883C34.6152 32.0047 34.5153 31.9419 34.405 31.905L32.995 31.41C33.6427 30.0599 34.0415 28.6041 34.1725 27.1125H37.6825C37.8024 27.1124 37.9205 27.083 38.0264 27.0268C38.1323 26.9706 38.2228 26.8893 38.29 26.79L39.4075 25.1625C39.5184 24.9979 39.5601 24.7964 39.5237 24.6013C39.4872 24.4062 39.3754 24.2333 39.2125 24.12C39.1314 24.0641 39.0399 24.0247 38.9435 24.0042C38.8471 23.9837 38.7476 23.9825 38.6507 24.0006C38.5538 24.0188 38.4614 24.0559 38.379 24.1098C38.2965 24.1638 38.2254 24.2335 38.17 24.315L37.2775 25.6125H34.21C34.1712 24.1037 33.8587 22.6145 33.2875 21.2175L35.38 20.01C35.4709 19.9568 35.5499 19.8854 35.6119 19.8002C35.6738 19.715 35.7174 19.6179 35.74 19.515L36.4813 15.9005C36.5036 15.7915 36.5014 15.6789 36.4748 15.5709C36.4483 15.4629 36.398 15.3621 36.3277 15.2759C36.2574 15.1897 36.1688 15.1203 36.0683 15.0725C35.9678 15.0248 35.858 15 35.7468 15H35.7454C35.5724 15 35.4048 15.0598 35.2708 15.1692C35.1369 15.2787 35.0449 15.4311 35.0104 15.6006L34.8325 16.4775L34.3375 18.885L32.635 19.8675C32.4925 19.6125 32.3425 19.3725 32.1775 19.1325C31.902 18.7113 31.5935 18.3125 31.255 17.94L36.445 12.75L40.6137 8.58128C43.63 11.7755 45.6444 15.7835 46.4079 20.1099C47.1714 24.4364 46.6506 28.8917 44.9099 32.9255C43.1691 36.9592 40.2847 40.3946 36.613 42.807C32.9414 45.2195 28.6433 46.5034 24.25 46.5Z" fill="#FAA940"/>
<path d="M10.15 26.85C10.2181 26.9501 10.3099 27.0319 10.4171 27.0882C10.5244 27.1444 10.6439 27.1734 10.765 27.1725H14.2675C14.32 27.7478 14.4104 28.3191 14.5382 28.8825C14.5672 29.0152 14.6313 29.1376 14.7239 29.2369C14.8165 29.3363 14.934 29.4089 15.0643 29.4473C15.1946 29.4856 15.3327 29.4882 15.4644 29.4548C15.596 29.4214 15.7162 29.3533 15.8125 29.2575L28.9 16.17C28.9755 16.0957 29.0347 16.0065 29.0739 15.9081C29.1881 15.6145 29.2731 15.3103 29.3275 15C29.381 14.7029 29.4086 14.4018 29.41 14.1C29.4134 13.6433 29.3503 13.1885 29.2225 12.75C28.9046 11.5669 28.1761 10.5354 27.1675 9.84L28.2325 7.02C28.3031 6.83402 28.2969 6.6276 28.2154 6.44616C28.1338 6.26472 27.9835 6.12311 27.7975 6.0525C27.7054 6.01753 27.6073 6.00105 27.5089 6.00399C27.4104 6.00693 27.3135 6.02923 27.2236 6.06962C27.0422 6.1512 26.9006 6.30152 26.83 6.4875L25.81 9.18C25.3043 9.01349 24.7749 8.92991 24.2425 8.9325C23.7107 8.93113 23.182 9.01209 22.675 9.1725L21.64 6.48C21.5684 6.29402 21.4258 6.1441 21.2437 6.06322C21.0615 5.98235 20.8547 5.97714 20.6687 6.04875C20.4827 6.12036 20.3328 6.26291 20.252 6.44506C20.1711 6.6272 20.1659 6.83402 20.2375 7.02L21.3175 9.8325C20.3044 10.5314 19.5691 11.564 19.24 12.75C19.1188 13.1897 19.0583 13.6439 19.06 14.1C19.0595 14.4023 19.0896 14.7038 19.15 15C19.2111 15.3657 19.3142 15.723 19.4575 16.065C17.9347 17.025 16.6785 18.3535 15.805 19.9275L14.1025 18.945L13.4155 15.599C13.3722 15.4075 13.2556 15.2406 13.0906 15.1342C12.9256 15.0277 12.7255 14.9902 12.5332 15.0296C12.3409 15.0691 12.1717 15.1824 12.062 15.3452C11.9522 15.508 11.9107 15.7074 11.9464 15.9004L12.7 19.575C12.7225 19.6779 12.7662 19.775 12.8281 19.8602C12.8901 19.9454 12.969 20.0168 13.06 20.07L15.1525 21.2775C14.5813 22.6745 14.2688 24.1637 14.23 25.6725H11.1625L10.27 24.375C10.2145 24.2935 10.1435 24.2238 10.061 24.1698C9.97854 24.1159 9.88619 24.0788 9.7893 24.0606C9.6924 24.0425 9.59289 24.0437 9.49647 24.0642C9.40005 24.0847 9.30863 24.124 9.22748 24.18C9.06458 24.2933 8.95281 24.4662 8.91633 24.6613C8.87984 24.8563 8.92156 25.0579 9.03248 25.2225L10.15 26.85ZM20.8225 12.75C21.0937 12.0663 21.564 11.4798 22.1725 11.0666C22.7809 10.6534 23.4995 10.4325 24.235 10.4325C24.9705 10.4325 25.689 10.6534 26.2975 11.0666C26.906 11.4798 27.3763 12.0663 27.6475 12.75C27.8236 13.1782 27.9128 13.637 27.91 14.1C27.9117 14.4041 27.8713 14.707 27.79 15C27.7604 15.1272 27.7229 15.2525 27.6775 15.375C27.3192 15.2243 26.9508 15.099 26.575 15C25.0523 14.57 23.4402 14.57 21.9175 15C21.5376 15.1049 21.1645 15.2327 20.8 15.3825C20.7532 15.2572 20.7131 15.1295 20.68 15C20.6023 14.7062 20.562 14.4038 20.56 14.1C20.5572 13.637 20.6464 13.1782 20.8225 12.75Z" fill="#FAA940"/>
</g>
<defs>
<clipPath id="clip0_25_196">
<rect width="48" height="48" fill="white" transform="translate(0.25)"/>
</clipPath>
</defs>
</svg>
