<svg width="49" height="48" viewBox="0 0 49 48" fill="none" xmlns="http://www.w3.org/2000/svg">
<g clip-path="url(#clip0_22_335)">
<path d="M23.8948 4.88037C23.8948 4.407 24.2785 4.02328 24.7519 4.02328H36.7509C37.2243 4.02328 37.608 4.407 37.608 4.88037V5.73746H23.8948V4.88037Z" fill="#FAA940"/>
<path d="M23.0378 7.45154H38.4651C38.9385 7.45154 39.3222 7.83526 39.3222 8.30862C39.3222 8.78199 38.9384 9.16571 38.4651 9.16571H23.0378C22.5644 9.16571 22.1807 8.78199 22.1807 8.30862C22.1807 7.83526 22.5644 7.45154 23.0378 7.45154Z" fill="#FAA940"/>
<path d="M23.8948 10.8799H37.608V19.4507H23.8948V10.8799Z" fill="#FAA940"/>
<path d="M14.4669 42.02C14.4681 44.4748 13.1618 46.7445 11.0387 47.9766V43.7341C11.04 42.7922 10.6538 41.8911 9.97061 41.2427C9.28745 40.5942 8.36757 40.2553 7.42699 40.3058C5.57159 40.4455 4.14777 42.0092 4.18213 43.8695V47.975C1.98843 46.7079 0.670694 44.3359 0.753867 41.804C0.866265 39.2922 2.32452 37.0361 4.5687 35.9022C4.85739 35.7563 5.03938 35.4603 5.03922 35.1368V12.906C5.03906 12.5828 4.85716 12.2872 4.5687 12.1415C2.32476 11.0077 0.866581 8.75205 0.753867 6.24051C0.670378 3.7085 1.98819 1.33645 4.18205 0.0695783V4.175C4.15157 6.03798 5.5806 7.6009 7.43892 7.73699C8.37752 7.78399 9.29416 7.44363 9.97471 6.79555C10.6553 6.14746 11.0399 5.24843 11.0387 4.30872V0.0678406C13.227 1.33534 14.5422 3.7025 14.4625 6.23016C14.3828 8.75782 12.9211 11.0375 10.6572 12.1646C10.3646 12.31 10.1801 12.6092 10.1816 12.936V35.1103C10.1802 35.4371 10.3646 35.7363 10.6572 35.8817C12.9962 37.0312 14.475 39.4138 14.4669 42.02Z" fill="#FAA940"/>
<path d="M11.8965 21.1648H13.6098V34.878H11.8965V21.1648Z" fill="#FAA940"/>
<path d="M16.1811 36.5922C15.7078 36.5922 15.324 36.2085 15.324 35.7351V20.3077C15.324 19.8343 15.7078 19.4506 16.1811 19.4506C16.6545 19.4506 17.0382 19.8343 17.0382 20.3077V35.7351C17.0382 36.2085 16.6545 36.5922 16.1811 36.5922Z" fill="#FAA940"/>
<path d="M30.9914 30.3355L29.3484 28.1388L33.3226 24.7233V28.6076C33.3225 28.9458 33.4224 29.2765 33.6097 29.5581L35.0865 31.7779L35.3633 33.1638H30.2449L30.832 32.575C31.4296 31.9698 31.4973 31.0193 30.9914 30.3355Z" fill="#FAA940"/>
<path d="M37.3157 34.1923L36.768 31.4497C36.7241 31.229 36.6366 31.0192 36.5109 30.8326L35.0368 28.6076V24.4859C35.041 23.8582 34.6748 23.2869 34.1026 23.0289C33.8909 22.9308 33.6605 22.8796 33.4273 22.8789C33.0448 22.8797 32.6755 23.0181 32.3868 23.2688L28.2317 26.8351C27.5478 27.4244 27.4355 28.4421 27.9746 29.1663L29.6193 31.3639L26.3624 34.6268C26.2016 34.7884 25.9827 34.8789 25.7548 34.8779H18.7524V21.1648H41.8935V34.878H38.1566C37.7489 34.8785 37.3972 34.5918 37.3157 34.1923Z" fill="#FAA940"/>
<path d="M44.4646 36.5922C43.9912 36.5922 43.6075 36.2085 43.6075 35.7351V20.3077C43.6075 19.8343 43.9912 19.4506 44.4646 19.4506C44.9379 19.4506 45.3217 19.8343 45.3217 20.3077V35.7351C45.3217 36.2085 44.9379 36.5922 44.4646 36.5922Z" fill="#FAA940"/>
<path d="M48.75 34.0209C48.75 34.4943 48.3663 34.878 47.8929 34.878H47.0358V21.1648H47.8929C48.3663 21.1648 48.75 21.5485 48.75 22.0219V34.0209Z" fill="#FAA940"/>
</g>
<defs>
<clipPath id="clip0_22_335">
<rect width="48" height="48" fill="white" transform="translate(0.75)"/>
</clipPath>
</defs>
</svg>
