<svg width="49" height="48" viewBox="0 0 49 48" fill="none" xmlns="http://www.w3.org/2000/svg">
<g clip-path="url(#clip0_25_433)">
<path d="M2.46002 16.2971C3.17309 16.5352 4.42915 17.0654 5.62531 18.2616C6.82146 19.4577 7.35162 20.7137 7.58974 21.4268C7.76121 21.9477 8.25996 22.3915 8.92531 22.3918C9.59065 22.3915 10.0894 21.9477 10.2609 21.4268C10.499 20.7138 11.0292 19.4577 12.2253 18.2616C13.4215 17.0654 14.6776 16.5352 15.3906 16.2971C15.9115 16.1257 16.3553 15.6269 16.3556 14.9616C16.3553 14.2962 15.9115 13.7975 15.3906 13.626C14.6775 13.3879 13.4215 12.8577 12.2253 11.6616C11.0292 10.4654 10.499 9.20944 10.2609 8.49628C10.0894 7.9754 9.59065 7.53159 8.92531 7.53131C8.25996 7.53159 7.76121 7.9754 7.58974 8.49628C7.35162 9.20934 6.82146 10.4654 5.62531 11.6616C4.42915 12.8577 3.17299 13.3879 2.46002 13.626C1.93915 13.7975 1.49534 14.2962 1.49506 14.9616C1.49534 15.6269 1.93915 16.1256 2.46002 16.2971Z" fill="#FAA940"/>
<path d="M24.1049 14.9625C24.1049 15.7391 24.7345 16.3687 25.5112 16.3687H27.1175V17.975C27.1175 18.7516 27.7471 19.3812 28.5237 19.3812C29.3004 19.3812 29.93 18.7516 29.93 17.975V16.3687H31.5362C32.3128 16.3687 32.9424 15.7391 32.9424 14.9625C32.9424 14.1859 32.3128 13.5562 31.5362 13.5562H29.93V11.95C29.93 11.1734 29.3004 10.5438 28.5237 10.5438C27.7471 10.5438 27.1175 11.1734 27.1175 11.95V13.5562H25.5112C24.7345 13.5562 24.1049 14.1859 24.1049 14.9625Z" fill="#FAA940"/>
<path d="M17.98 5.82497H19.5862V7.43119C19.5862 8.20781 20.2158 8.83744 20.9924 8.83744C21.7691 8.83744 22.3987 8.20781 22.3987 7.43119V5.82497H24.005C24.7816 5.82497 25.4113 5.19534 25.4113 4.41872C25.4113 3.64209 24.7816 3.01247 24.005 3.01247H22.3987V1.40625C22.3987 0.629625 21.7691 0 20.9924 0C20.2158 0 19.5862 0.629625 19.5862 1.40625V3.01247H17.98C17.2034 3.01247 16.5737 3.64209 16.5737 4.41872C16.5737 5.19534 17.2034 5.82497 17.98 5.82497Z" fill="#FAA940"/>
<path d="M25.0722 42.3979C25.1222 42.3916 26.5446 42.2056 27.8769 41.3077C27.9274 41.2735 27.9747 41.2372 28.0237 41.2019L30.5803 28.4187H31.5362C32.3128 28.4187 32.9425 27.7891 32.9425 27.0125C32.9425 26.2358 32.3128 25.6062 31.5362 25.6062H4.42371C3.64708 25.6062 3.01746 26.2358 3.01746 27.0125C3.01746 27.7891 3.64708 28.4187 4.42371 28.4187H5.37967L7.90436 41.0424C8.05005 40.9506 8.18721 40.8414 8.31292 40.7158L16.9857 32.0431C17.5348 31.4939 18.4253 31.4939 18.9745 32.0431C19.5236 32.5923 19.5236 33.4826 18.9745 34.0318L10.3016 42.7046C9.85502 43.1512 9.22596 43.5897 8.47183 43.8799L9.06977 46.8696C9.20121 47.5268 9.77833 48 10.4486 48H21.5325C21.3999 47.6236 21.3186 47.2222 21.2977 46.8039C21.1857 44.5626 22.8424 42.6309 25.0722 42.3979Z" fill="#FAA940"/>
<path d="M5.76623 41.2224C4.88995 40.8595 4.3237 40.012 4.3237 39.0623C4.3237 38.779 4.37676 38.504 4.47717 38.2478L3.77048 34.7145L2.98805 35.4969C2.03564 36.4493 1.51111 37.7155 1.51111 39.0635C1.51111 41.1536 2.75892 43.021 4.68989 43.8208C6.09389 44.4024 7.40742 44.2893 8.47167 43.8799L7.9042 41.0424C7.27205 41.4413 6.47845 41.5173 5.76623 41.2224Z" fill="#FAA940"/>
<path d="M41.98 25.9032V1.40625C41.98 0.629625 41.3504 0 40.5738 0C39.7972 0 39.1675 0.629625 39.1675 1.40625V25.9032C39.6274 25.8398 40.0967 25.8063 40.5738 25.8063C41.0508 25.8063 41.5201 25.8398 41.98 25.9032Z" fill="#FAA940"/>
<path d="M40.5738 28.6188C36.4762 28.6188 33.1425 31.9524 33.1425 36.0501C33.1425 44.3265 25.569 45.1733 25.3713 45.1945C24.6256 45.2691 24.0693 45.9154 24.1067 46.6639C24.1441 47.4124 24.7617 48 25.5112 48H36.0549C46.6448 48 48.005 40.0278 48.005 36.05C48.005 31.9523 44.6714 28.6188 40.5738 28.6188Z" fill="#FAA940"/>
</g>
<defs>
<clipPath id="clip0_25_433">
<rect width="48" height="48" fill="white" transform="translate(0.75)"/>
</clipPath>
</defs>
</svg>
