<svg width="49" height="48" viewBox="0 0 49 48" fill="none" xmlns="http://www.w3.org/2000/svg">
<g clip-path="url(#clip0_25_339)">
<path d="M28.6751 32.8828L26.4119 35.146H25.086V33.8201L27.3492 31.5569L26.167 30.3747L24.25 32.2917L22.333 30.3747L21.1508 31.5569L23.414 33.8201V35.146H22.0881L19.8249 32.8828L18.6427 34.065L20.5597 35.982L18.6427 37.899L19.8249 39.0812L22.0881 36.8181H23.414V38.144L21.1508 40.4071L22.333 41.5893L24.25 39.6723L26.167 41.5893L27.3492 40.4071L25.086 38.144V36.8181H26.4119L28.6751 39.0812L29.8573 37.899L27.9403 35.982L29.8573 34.065L28.6751 32.8828Z" fill="#FAA940"/>
<path d="M47.0679 37.899L44.8047 40.1622H43.4788V38.8363L45.742 36.5731L44.5598 35.3909L42.6428 37.3079L40.7258 35.3909L39.5436 36.5731L41.8067 38.8363V40.1622H40.4808L38.2177 37.899L37.0355 39.0812L38.9525 40.9982L37.0355 42.9152L38.2177 44.0974L40.4808 41.8343H41.8067V43.1602L39.5436 45.4233L40.7258 46.6055L42.6428 44.6885L44.5598 46.6055L45.742 45.4233L43.4788 43.1602V41.8343H44.8047L47.0679 44.0974L48.2501 42.9152L46.3331 40.9982L48.2501 39.0812L47.0679 37.899Z" fill="#FAA940"/>
<path d="M10.2824 37.899L8.01923 40.1622H6.69333V38.8363L8.9565 36.5731L7.7743 35.3909L5.8573 37.3079L3.9403 35.3909L2.7581 36.5731L5.02127 38.8363V40.1622H3.69537L1.4322 37.899L0.25 39.0812L2.167 40.9982L0.25 42.9152L1.4322 44.0974L3.69537 41.8343H5.02127V43.1602L2.7581 45.4233L3.9403 46.6055L5.8573 44.6885L7.7743 46.6055L8.9565 45.4233L6.69333 43.1602V41.8343H8.01923L10.2824 44.0974L11.4646 42.9152L9.5476 40.9982L11.4646 39.0812L10.2824 37.899Z" fill="#FAA940"/>
<path d="M23.414 21.7695H25.0861V28.4577H23.414V21.7695Z" fill="#FAA940"/>
<path d="M31.7743 25.1136H30.1022V29.2938C30.1022 29.5154 30.1904 29.7281 30.3472 29.8849L32.8553 32.393L34.0375 31.2108L31.7743 28.9476V25.1136Z" fill="#FAA940"/>
<path d="M36.7905 21.7695V29.2938C36.7905 29.5154 36.8787 29.7281 37.0355 29.8849L41.2156 34.065L42.3978 32.8828L38.4626 28.9476V21.7695H36.7905Z" fill="#FAA940"/>
<path d="M30.1022 21.7695H31.7743V23.4416H30.1022V21.7695Z" fill="#FAA940"/>
<path d="M16.7258 28.9476L14.4626 31.2108L15.6448 32.393L18.1529 29.8849C18.3096 29.7281 18.3978 29.5154 18.3978 29.2938V25.1136H16.7258V28.9476Z" fill="#FAA940"/>
<path d="M10.0375 28.9476L6.10223 32.8828L7.28444 34.065L11.4646 29.8849C11.6214 29.7281 11.7095 29.5154 11.7095 29.2938V21.7695H10.0375V28.9476Z" fill="#FAA940"/>
<path d="M16.7257 21.7695H18.3978V23.4416H16.7257V21.7695Z" fill="#FAA940"/>
<path d="M40.9707 15.0812H7.52939C7.0677 15.0812 6.69336 15.4556 6.69336 15.9173V18.4254H41.8067V15.9173C41.8067 15.4556 41.4324 15.0812 40.9707 15.0812Z" fill="#FAA940"/>
<path d="M47.659 2.54072C47.659 1.15563 46.536 0.0326233 45.1509 0.0326233H3.34922C1.96414 0.0326233 0.841125 1.15563 0.841125 2.54072V15.9173C0.841125 17.3023 1.96414 18.4254 3.34922 18.4254H5.02129V15.9173C5.02129 14.5322 6.1443 13.4092 7.52939 13.4092H40.9707C42.3558 13.4092 43.4788 14.5322 43.4788 15.9173V18.4254H45.1509C46.536 18.4254 47.659 17.3023 47.659 15.9173V2.54072ZM32.6104 5.04882H30.9383V3.37676H32.6104V5.04882ZM42.6428 5.04882H34.2824V3.37676H42.6428V5.04882Z" fill="#FAA940"/>
</g>
<defs>
<clipPath id="clip0_25_339">
<rect width="48" height="48" fill="white" transform="translate(0.25)"/>
</clipPath>
</defs>
</svg>
