<svg width="49" height="48" viewBox="0 0 49 48" fill="none" xmlns="http://www.w3.org/2000/svg">
<g clip-path="url(#clip0_24_118)">
<path d="M23.2231 0H1.7791C1.44407 0 1.17596 0.268023 1.17596 0.603131V14.8002H4.8138V14.2833C4.8138 13.6993 5.29245 13.2206 5.87645 13.2206H19.8055C20.3895 13.2206 20.8681 13.6993 20.8776 14.2833V14.8002H23.8357V0.603131C23.8262 0.268023 23.5581 0 23.2231 0V0Z" fill="#FAA940"/>
<path d="M44.4372 47.2724H46.4284V47.9999H44.4372V47.2724Z" fill="#FAA940"/>
<path d="M20.8776 17.1456C20.868 17.7296 20.3894 18.2083 19.8055 18.2083H5.87645C5.29245 18.2083 4.8138 17.7296 4.8138 17.1456V15.949H1.17596V44.7451C1.17596 45.0801 1.44399 45.3482 1.7791 45.3482H23.2231C23.5581 45.3482 23.8262 45.0802 23.8357 44.7451V15.949H20.8776V17.1456Z" fill="#FAA940"/>
<path d="M27.1289 47.2724H29.1201V47.9999H27.1289V47.2724Z" fill="#FAA940"/>
<path d="M47.2327 15.949H26.1621C25.5589 15.949 25.0707 16.4372 25.0707 17.0403V21.6258H48.324V17.0403C48.324 16.4372 47.8357 15.949 47.2327 15.949ZM27.4257 20.8504H26.1525V19.8931H27.4257V20.8504ZM32.3846 17.6243H26.1525V16.667H32.3846V17.6243ZM36.4724 21.2525C35.18 21.2525 34.1269 20.1995 34.1269 18.907C34.1269 17.6146 35.18 16.5616 36.4724 16.5616C37.7648 16.5616 38.8178 17.6146 38.8178 18.907C38.8178 20.1995 37.7648 21.2525 36.4724 21.2525ZM42.0344 18.2369H40.7899V17.2796H42.0344V18.2369ZM44.2458 18.2369H43.0013V17.2796H44.2458V18.2369ZM46.4573 18.2369H45.2127V17.2796H46.4573V18.2369Z" fill="#FAA940"/>
<path d="M26.5928 0.0670052H46.8306V12.1388H26.5928V0.0670052Z" fill="#FAA940"/>
<path d="M36.4724 17.5189C35.7065 17.5189 35.0842 18.1412 35.0842 18.907C35.0842 19.6729 35.7065 20.2952 36.4724 20.2952C37.2383 20.2952 37.8605 19.6729 37.8605 18.907C37.8605 18.1412 37.2383 17.5189 36.4724 17.5189Z" fill="#FAA940"/>
<path d="M5.77112 17.1456C5.77112 17.2031 5.81899 17.2509 5.87639 17.2509H19.8054C19.8629 17.2509 19.9107 17.203 19.9203 17.1456V15.949H5.77112V17.1456Z" fill="#FAA940"/>
<path d="M19.9203 14.2832C19.9107 14.2257 19.8629 14.1779 19.8055 14.1779H5.87645C5.81905 14.1779 5.77118 14.2258 5.77118 14.2832V14.8001H19.9203V14.2832Z" fill="#FAA940"/>
<path d="M36.4341 40.7243C40.0527 40.7243 42.9917 37.7854 42.9917 34.1667C42.9917 30.5479 40.0528 27.609 36.4341 27.609C32.8154 27.609 29.8764 30.5479 29.8764 34.1667C29.8764 37.7854 32.8154 40.7243 36.4341 40.7243ZM36.1277 38.4555C37.3435 38.4555 38.5114 37.9768 39.373 37.1152C39.6794 36.8089 39.9378 36.4547 40.1484 36.0813L40.9909 36.5408C40.742 37.0003 40.4261 37.4216 40.0527 37.7854C39.0188 38.8289 37.602 39.4128 36.1277 39.4128V38.4555ZM33.7057 37.7662C34.0886 38.0056 34.5195 38.1875 34.9598 38.3024L34.7109 39.231C34.1748 39.097 33.6674 38.8767 33.2079 38.58L33.7057 37.7662Z" fill="#FAA940"/>
<path d="M25.0707 45.0323C25.0707 45.6354 25.5589 46.1236 26.1621 46.1236H47.2327C47.8358 46.1236 48.324 45.6353 48.324 45.0323V22.5832H25.0707V45.0323ZM36.4341 24.6892C41.6706 24.6988 45.9115 28.9397 45.902 34.1763C45.8925 39.4128 41.6515 43.6538 36.415 43.6441C31.188 43.6345 26.9471 39.3937 26.9471 34.1667C26.9566 28.9302 31.1976 24.6892 36.4341 24.6892Z" fill="#FAA940"/>
<path d="M36.4341 42.6869C41.1441 42.6773 44.9542 38.8671 44.9447 34.1571C44.9352 29.4471 41.125 25.637 36.415 25.6466C31.7146 25.6562 27.9044 29.4663 27.9044 34.1667C27.914 38.8767 31.7241 42.6869 36.4341 42.6869ZM36.4341 26.6613C40.5888 26.6613 43.9491 30.0215 43.9491 34.1763C43.9491 38.331 40.5888 41.6912 36.4341 41.6912C32.2793 41.6912 28.9191 38.331 28.9191 34.1763V34.1666C28.9287 30.0215 32.2889 26.6613 36.4341 26.6613Z" fill="#FAA940"/>
<path d="M32.1453 14.3502L32.3464 14.8002H33.9068L36.5011 13.6035L39.7081 14.8002H41.1154L41.3451 14.1874L38.9136 13.278H34.462L32.1453 14.3502Z" fill="#FAA940"/>
</g>
<defs>
<clipPath id="clip0_24_118">
<rect width="48" height="48" fill="white" transform="translate(0.75)"/>
</clipPath>
</defs>
</svg>
