<svg width="49" height="48" viewBox="0 0 49 48" fill="none" xmlns="http://www.w3.org/2000/svg">
<g clip-path="url(#clip0_23_374)">
<path d="M27.2353 30.4744V33.3393H28.1303C29.0254 33.3393 29.9104 33.4143 30.7803 33.5643C29.8003 33.0743 29.1303 32.0593 29.1303 30.8892V30.5242C27.8327 30.5093 27.7054 30.5598 27.2353 30.4744Z" fill="#FAA940"/>
<path d="M32.2651 33.8892L39.9 35.9292V33.8792C39.8351 33.8892 39.77 33.8892 39.7001 33.8892H32.2651Z" fill="#FAA940"/>
<path d="M27.7453 29.5244H29.1303V27.6644C29.1303 26.0094 30.4753 24.6644 32.1303 24.6644H39.7002C39.7701 24.6644 39.8351 24.6644 39.9002 24.6744V24.0044C39.9002 22.8494 38.9601 21.9095 37.8052 21.9095H36.9153V21.8994C36.9153 20.6245 35.8752 19.5845 34.6003 19.5845H31.5454C30.2654 19.5845 29.2304 20.6245 29.2304 21.8994V21.9095H27.7454C26.9154 21.9095 26.2455 22.5845 26.2455 23.4094V28.0243C26.2453 28.8544 26.9153 29.5244 27.7453 29.5244ZM30.2302 21.8994C30.2302 21.1745 30.8203 20.5844 31.5452 20.5844H34.6001C35.3251 20.5844 35.9151 21.1744 35.9151 21.8994L30.2302 21.9095V21.8994Z" fill="#FAA940"/>
<path d="M31.9352 34.8343C30.6953 34.5043 29.4152 34.3393 28.1303 34.3393H27.2103C27.9703 35.4343 28.4103 36.7643 28.4103 38.1943C28.4103 39.6293 27.9704 40.9593 27.2103 42.0542H39.2203C38.8754 41.3592 38.6803 40.5742 38.6803 39.7442C38.6803 38.6842 38.9953 37.6942 39.5353 36.8643L31.9352 34.8343Z" fill="#FAA940"/>
<path d="M21.5784 37.0484C20.9461 37.0484 20.4315 37.5631 20.4315 38.1953C20.4315 38.8274 20.9461 39.3418 21.5784 39.3418C22.2106 39.3418 22.7249 38.8274 22.7249 38.1953C22.7249 37.563 22.2106 37.0484 21.5784 37.0484Z" fill="#FAA940"/>
<path d="M21.5804 32.3643C18.3654 32.3643 15.7455 34.9792 15.7455 38.1942C15.7455 41.4092 18.3654 44.0242 21.5804 44.0242C24.7954 44.0242 27.4103 41.4092 27.4103 38.1942C27.4103 34.9792 24.7953 32.3643 21.5804 32.3643ZM21.5784 40.3418C20.3944 40.3418 19.4315 39.3788 19.4315 38.1953C19.4315 37.0116 20.3945 36.0485 21.5784 36.0485C22.762 36.0485 23.7248 37.0116 23.7248 38.1953C23.7248 39.3788 22.762 40.3418 21.5784 40.3418Z" fill="#FAA940"/>
<path d="M43.9651 35.4593C41.6051 35.4593 39.6801 37.3793 39.6801 39.7442C39.6801 42.1042 41.6051 44.0241 43.9651 44.0241C46.33 44.0241 48.25 42.1042 48.25 39.7442C48.25 37.3793 46.3301 35.4593 43.9651 35.4593ZM43.9654 41.4141C43.0426 41.4141 42.2921 40.6638 42.2921 39.7415C42.2921 38.8189 43.0426 38.0682 43.9654 38.0682C44.8877 38.0682 45.6377 38.819 45.6377 39.7415C45.6377 40.6638 44.8877 41.4141 43.9654 41.4141Z" fill="#FAA940"/>
<path d="M43.9654 39.0681C43.5943 39.0681 43.2921 39.3701 43.2921 39.7414C43.2921 40.1122 43.5944 40.4139 43.9654 40.4139C44.336 40.4139 44.6378 40.1122 44.6378 39.7414C44.6376 39.3701 44.3359 39.0681 43.9654 39.0681Z" fill="#FAA940"/>
<path d="M32.1303 25.6643C31.0252 25.6643 30.1302 26.5594 30.1302 27.6644V30.8894C30.1302 31.9894 31.0252 32.8895 32.1303 32.8895H39.7002C40.8052 32.8895 41.7002 31.9895 41.7002 30.8894V27.6644C41.7002 26.5594 40.8051 25.6643 39.7002 25.6643H32.1303Z" fill="#FAA940"/>
<path d="M20.0404 31.5443L6.06551 20.5494V16.1745L23.3553 31.5994C24.4503 31.8943 25.4352 32.4543 26.2352 33.2093V32.8293C25.1888 31.896 32.0368 38.0043 2.25542 11.4395C0.982012 10.3007 0.907199 8.35022 2.08048 7.11459L4.27039 4.81959C4.46042 4.61962 4.45545 4.30462 4.25539 4.11459C4.05542 3.92456 3.73545 3.92953 3.54542 4.12959L1.36057 6.42469C-0.190801 8.04759 -0.119269 10.6625 1.59054 12.1847L5.06548 15.2846V19.7646L4.21545 19.0945C4.00048 18.9245 3.68548 18.9595 3.51542 19.1745C3.34536 19.3945 3.38051 19.7094 3.60045 19.8795L5.07036 21.0345L5.31036 30.4493C5.46036 36.2443 9.86023 40.8543 15.5203 41.3543C15.0253 40.4093 14.7454 39.3342 14.7454 38.1943C14.7454 34.9593 17.0104 32.2393 20.0404 31.5443Z" fill="#FAA940"/>
</g>
<defs>
<clipPath id="clip0_23_374">
<rect width="48" height="48" fill="white" transform="translate(0.25)"/>
</clipPath>
</defs>
</svg>
