<svg width="49" height="48" viewBox="0 0 49 48" fill="none" xmlns="http://www.w3.org/2000/svg">
<rect x="34" y="14" width="4" height="17" fill="#FAA940"/>
<rect x="28" y="29" width="15" height="15" rx="7.5" fill="#FAA940"/>
<path d="M43.0846 10.08H45.8918C46.2918 10.08 46.6191 9.75272 46.6191 9.35272C46.6191 8.95272 46.2918 8.62545 45.8918 8.62545H43.0846C42.6846 8.62545 42.3573 8.95272 42.3573 9.35272C42.3573 9.75272 42.6846 10.08 43.0846 10.08Z" fill="#FAA940"/>
<path d="M43.0846 13.2727H45.8918C46.2918 13.2727 46.6191 12.9454 46.6191 12.5454C46.6191 12.1454 46.2918 11.8182 45.8918 11.8182H43.0846C42.6846 11.8182 42.3573 12.1454 42.3573 12.5454C42.3573 12.9454 42.6846 13.2727 43.0846 13.2727Z" fill="#FAA940"/>
<path d="M43.0846 16.4655H45.8918C46.2918 16.4655 46.6191 16.1382 46.6191 15.7382C46.6191 15.3382 46.2918 15.0109 45.8918 15.0109H43.0846C42.6846 15.0109 42.3573 15.3382 42.3573 15.7382C42.3573 16.1382 42.6846 16.4655 43.0846 16.4655Z" fill="#FAA940"/>
<path d="M43.0846 19.6655H45.8918C46.2918 19.6655 46.6191 19.3382 46.6191 18.9382C46.6191 18.5382 46.2918 18.2109 45.8918 18.2109H43.0846C42.6846 18.2109 42.3573 18.5382 42.3573 18.9382C42.3573 19.3382 42.6846 19.6655 43.0846 19.6655Z" fill="#FAA940"/>
<path d="M43.0846 22.8582H45.8918C46.2918 22.8582 46.6191 22.5309 46.6191 22.1309C46.6191 21.7309 46.2918 21.4036 45.8918 21.4036H43.0846C42.6846 21.4036 42.3573 21.7309 42.3573 22.1309C42.3573 22.5309 42.6846 22.8582 43.0846 22.8582Z" fill="#FAA940"/>
<path d="M27.1718 22.9673C27.5791 22.9745 27.9136 22.6764 27.9354 22.2764C27.9573 21.8764 27.6445 21.5345 27.2445 21.5127L23.6882 21.3455L22.6482 20.3055L24.6045 20.4C25.0118 20.4218 25.3464 20.1091 25.3682 19.7091C25.39 19.3091 25.0773 18.9673 24.6773 18.9455L21.1136 18.7709L18.8736 16.5309C19.0627 16.2255 19.2082 15.8982 19.2882 15.5345H22.4518L25.0845 17.9273C25.2227 18.0509 25.3973 18.1164 25.5718 18.1164C25.7682 18.1164 25.9645 18.0364 26.11 17.8764C26.3791 17.5782 26.3573 17.12 26.0591 16.8509L24.6118 15.5345H26.0882L28.7209 17.9273C28.8591 18.0509 29.0336 18.1164 29.2082 18.1164C29.4045 18.1164 29.6009 18.0364 29.7464 17.8764C30.0154 17.5782 29.9936 17.12 29.6954 16.8509L27.4482 14.8073L29.6954 12.7636C29.9936 12.4945 30.0154 12.0364 29.7464 11.7382C29.4773 11.44 29.0191 11.4182 28.7209 11.6873L26.0882 14.08H24.6118L26.0591 12.7636C26.3573 12.4945 26.3791 12.0364 26.11 11.7382C25.8409 11.44 25.3827 11.4182 25.0845 11.6873L22.4518 14.08H19.2882C19.2082 13.7236 19.0627 13.3891 18.8736 13.0836L21.1136 10.8509L24.67 10.6836C25.07 10.6618 25.3827 10.32 25.3609 9.92C25.3391 9.52 24.9827 9.21454 24.5973 9.22909L22.6409 9.32364L23.6809 8.28364L27.2373 8.11636C27.6373 8.09454 27.95 7.75273 27.9282 7.35273C27.9064 6.95273 27.5573 6.64727 27.1645 6.66182L24.1245 6.80727L24.27 3.76727C24.2918 3.36727 23.9791 3.02545 23.5791 3.00364C23.1936 3.00364 22.8373 3.29454 22.8155 3.69454L22.6482 7.25091L21.6082 8.29091L21.7027 6.33454C21.7245 5.93454 21.4118 5.59273 21.0118 5.57091C20.6264 5.57091 20.27 5.86182 20.2482 6.26182L20.0809 9.81818L17.8409 12.0582C17.5354 11.8691 17.2082 11.7236 16.8518 11.6436V8.48L19.2445 5.84727C19.5136 5.54909 19.4918 5.09091 19.2009 4.82182C18.9027 4.55273 18.4445 4.57454 18.1754 4.87273L16.8591 6.32V4.84364L19.2518 2.21091C19.5136 1.91273 19.4918 1.45454 19.2009 1.18545C18.9027 0.916362 18.4445 0.93818 18.1754 1.23636L16.1318 3.48363L14.0809 1.23636C13.8118 0.93818 13.3536 0.916362 13.0554 1.18545C12.7573 1.45454 12.7354 1.91273 13.0045 2.21091L15.3973 4.84364V6.32L14.0809 4.87273C13.8118 4.57454 13.3536 4.55273 13.0554 4.82182C12.7573 5.09091 12.7354 5.54909 13.0045 5.84727L15.3973 8.48V11.6436C15.0409 11.7236 14.7064 11.8691 14.4009 12.0582L12.1609 9.81818L11.9936 6.26182C11.9718 5.86182 11.63 5.55636 11.23 5.57091C10.83 5.59273 10.5173 5.93454 10.5391 6.33454L10.6336 8.29091L9.59363 7.25091L9.42636 3.69454C9.40454 3.29454 9.05545 2.98909 8.66272 3.00364C8.26272 3.02545 7.94999 3.36727 7.97181 3.76727L8.11727 6.80727L5.07727 6.66182C4.67727 6.64727 4.33545 6.94545 4.31363 7.34545C4.29181 7.74545 4.60454 8.08727 5.00454 8.10909L8.5609 8.27636L9.6009 9.31636L7.64454 9.22182C7.24454 9.21454 6.90272 9.51273 6.8809 9.91273C6.85909 10.3127 7.17181 10.6545 7.57181 10.6764L11.1282 10.8436L13.3755 13.0909C13.1864 13.3964 13.0409 13.7236 12.9609 14.0873H9.79727L7.16454 11.6945C6.86636 11.4255 6.40818 11.4473 6.13909 11.7455C5.86999 12.0436 5.89181 12.5018 6.18999 12.7709L7.63727 14.0873H6.1609L3.52818 11.6945C3.22999 11.4255 2.77181 11.4473 2.50272 11.7455C2.23363 12.0436 2.25545 12.5018 2.55363 12.7709L4.8009 14.8145L2.55363 16.8582C2.25545 17.1273 2.23363 17.5855 2.50272 17.8836C2.64818 18.0436 2.84454 18.1236 3.0409 18.1236C3.21545 18.1236 3.38999 18.0582 3.52818 17.9345L6.1609 15.5418H7.63727L6.18999 16.8582C5.89181 17.1273 5.86999 17.5855 6.13909 17.8836C6.28454 18.0436 6.4809 18.1236 6.67727 18.1236C6.85181 18.1236 7.02636 18.0582 7.16454 17.9345L9.79727 15.5418H12.9609C13.0409 15.8982 13.1864 16.2327 13.3755 16.5382L11.1354 18.7782L7.57909 18.9455C7.17909 18.9673 6.86636 19.3091 6.88818 19.7091C6.90999 20.1091 7.25181 20.4145 7.65181 20.4L9.60818 20.3055L8.56818 21.3455L5.01181 21.5127C4.61181 21.5345 4.29909 21.8764 4.3209 22.2764C4.34272 22.6764 4.68454 22.9673 5.08454 22.9673L8.12454 22.8218L7.97908 25.8618C7.95727 26.2618 8.26999 26.6036 8.66999 26.6255H8.70636C9.09181 26.6255 9.41181 26.32 9.43363 25.9345L9.6009 22.3782L10.6409 21.3382L10.5464 23.2945C10.5245 23.6945 10.8373 24.0364 11.2373 24.0582H11.2736C11.6591 24.0582 11.9791 23.7527 12.0009 23.3673L12.1682 19.8109L14.4082 17.5709C14.7136 17.76 15.0409 17.9055 15.4045 17.9855V21.1491L13.0118 23.7818C12.7427 24.08 12.7645 24.5382 13.0627 24.8073C13.2009 24.9309 13.3754 24.9964 13.55 24.9964C13.7464 24.9964 13.9427 24.9164 14.0882 24.7564L15.4045 23.3091V24.7855L13.0118 27.4182C12.7427 27.7164 12.7645 28.1745 13.0627 28.4436C13.2009 28.5673 13.3754 28.6327 13.55 28.6327C13.7464 28.6327 13.9427 28.5527 14.0882 28.3927L16.1318 26.1455L18.1754 28.3927C18.4445 28.6909 18.9027 28.7127 19.2009 28.4436C19.4991 28.1745 19.5209 27.7164 19.2518 27.4182L16.8591 24.7855V23.3091L18.1754 24.7564C18.4445 25.0545 18.9027 25.0764 19.2009 24.8073C19.4991 24.5382 19.5209 24.08 19.2518 23.7818L16.8591 21.1491V17.9855C17.2154 17.9055 17.55 17.76 17.8482 17.5709L20.0882 19.8109L20.2554 23.3673C20.2773 23.76 20.5973 24.0582 20.9827 24.0582H21.0191C21.4191 24.0364 21.7318 23.6945 21.71 23.2945L21.6154 21.3382L22.6555 22.3782L22.8227 25.9345C22.8445 26.3273 23.1645 26.6255 23.55 26.6255H23.5864C23.9864 26.6036 24.2991 26.2618 24.2773 25.8618L24.1318 22.8218L27.1718 22.9673Z" fill="#FAA940"/>
<path d="M40.0736 25.2582V6.06545C40.0736 3.77455 38.2118 1.91273 35.9209 1.91273C33.63 1.91273 31.7682 3.77455 31.7682 6.06545V25.2582C27.6009 26.9164 24.6482 30.9745 24.6482 35.7309C24.6482 41.9564 29.6955 47.0036 35.9209 47.0036C42.1464 47.0036 47.1936 41.9564 47.1936 35.7309C47.1936 30.9745 44.2409 26.9164 40.0736 25.2582ZM35.9209 42.2764C32.3136 42.2764 29.3755 39.3382 29.3755 35.7309C29.3755 32.6255 31.5573 30.0218 34.4664 29.3527V15.2073H37.3755V29.3527C40.2846 30.0145 42.4664 32.6182 42.4664 35.7309C42.4664 39.3382 39.5282 42.2764 35.9209 42.2764Z" fill="#FAA940"/>
</svg>
