<svg width="49" height="48" viewBox="0 0 49 48" fill="none" xmlns="http://www.w3.org/2000/svg">
<path d="M24.916 12.141L23.4715 16.3988L24.7555 16.7738C25.1627 16.8913 25.5099 17.1597 25.7263 17.5242C25.9427 17.8887 26.012 18.3219 25.9202 18.7358C25.7044 19.6599 25.2337 20.505 24.5615 21.1749C23.8893 21.8449 23.0426 22.3128 22.1177 22.5255C22.3832 22.9432 22.7845 23.2565 23.254 23.4128C23.712 23.5862 24.2181 23.5836 24.6743 23.4054C25.1305 23.2272 25.5045 22.8862 25.7237 22.4483L28.6112 13.9733C28.6575 13.8025 28.6453 13.6212 28.5767 13.4581C28.5081 13.295 28.3869 13.1596 28.2325 13.0733L26.146 11.7938C26.0294 11.7204 25.8978 11.6743 25.7609 11.6589C25.624 11.6436 25.4854 11.6595 25.3555 11.7053C25.2539 11.7397 25.1616 11.7969 25.0854 11.8724C25.0093 11.9479 24.9513 12.0398 24.916 12.141Z" fill="#FAA940"/>
<path d="M29.8 15.1245L27.0033 23.3625C26.8871 23.7646 26.9346 24.1962 27.1354 24.5635C27.3361 24.9307 27.6739 25.2037 28.075 25.323C28.4655 25.466 28.8963 25.4521 29.2768 25.2843C29.6573 25.1165 29.958 24.8078 30.1157 24.423L32.7467 16.656C32.7969 16.4973 32.793 16.3265 32.7354 16.1703C32.6778 16.0142 32.5699 15.8816 32.4287 15.7935L30.9865 14.7787C30.8873 14.7177 30.7765 14.6781 30.6611 14.6625C30.5457 14.647 30.4283 14.6557 30.3165 14.6883C30.2047 14.7209 30.101 14.7765 30.012 14.8517C29.9231 14.9268 29.8508 15.0197 29.8 15.1245Z" fill="#FAA940"/>
<path d="M33.9145 17.8973L31.6 24.726C31.5955 24.7463 31.5895 24.765 31.5835 24.7838C31.502 25.0842 31.5415 25.4047 31.6935 25.6764C31.8454 25.9481 32.0978 26.1494 32.3965 26.2373C32.6815 26.3563 33.0021 26.3576 33.2881 26.241C33.5741 26.1243 33.8023 25.8992 33.9228 25.6148L36.2163 18.8693C36.2659 18.7014 36.2563 18.5215 36.1891 18.3599C36.1219 18.1982 36.0012 18.0645 35.8473 17.9813L35.1423 17.5418C35.041 17.4742 34.9262 17.4296 34.8059 17.4111C34.6856 17.3925 34.5627 17.4004 34.4458 17.4343C34.3289 17.4682 34.2208 17.5271 34.129 17.6071C34.0372 17.687 33.964 17.7861 33.9145 17.8973Z" fill="#FAA940"/>
<path d="M16.6203 14.5268L17.9965 10.4768L14.743 8.56875C14.6295 8.50217 14.5355 8.40689 14.4705 8.29249C14.4055 8.17809 14.3717 8.04859 14.3725 7.917C14.3837 6.79521 14.1004 5.69012 13.5508 4.71213C13.0012 3.73413 12.2046 2.91748 11.2405 2.34375C10.3449 1.81941 9.33172 1.52909 8.29436 1.4996C7.257 1.4701 6.22893 1.70238 5.30501 2.175L9.25451 4.4505C9.7506 4.74627 10.11 5.2258 10.2546 5.78497C10.3993 6.34413 10.3175 6.93778 10.027 7.437L8.60201 9.93825C8.31568 10.4388 7.84228 10.8052 7.2859 10.9568C6.72952 11.1084 6.13571 11.0328 5.63501 10.7468L1.68701 8.43975C1.77293 9.641 2.19183 10.7946 2.89673 11.771C3.60163 12.7475 4.56465 13.5083 5.67776 13.968C6.56644 14.324 7.52525 14.4702 8.47964 14.3952C9.43402 14.3203 10.3583 14.0263 11.1805 13.536C11.2955 13.4686 11.4264 13.4331 11.5596 13.4331C11.6929 13.4331 11.8238 13.4686 11.9388 13.536L14.575 15.0788C15.1906 14.7045 15.9 14.513 16.6203 14.5268Z" fill="#FAA940"/>
<path d="M43.6345 21.2955C42.6774 20.737 41.588 20.4456 40.4799 20.4515C39.3718 20.4574 38.2856 20.7605 37.3345 21.3292C37.2124 21.4016 37.0721 21.4372 36.9303 21.432L35.3403 26.1C35.1338 26.6933 34.7141 27.1887 34.1628 27.4897C34.2001 28.0248 34.3008 28.5535 34.4628 29.0647C34.8418 30.2236 35.5514 31.2463 36.5043 32.007C37.4339 32.7524 38.559 33.2134 39.7443 33.3346C40.9297 33.4558 42.1248 33.232 43.186 32.6903L39.25 30.4148C38.7544 30.12 38.3944 29.6424 38.2475 29.0848C38.1006 28.5271 38.1786 27.9341 38.4648 27.4335L39.8995 24.9248C40.1868 24.4269 40.6585 24.0622 41.2126 23.9094C41.7667 23.7565 42.3586 23.8279 42.8605 24.108L46.8093 26.4203C46.7284 25.3744 46.3979 24.3633 45.8455 23.4716C45.2931 22.5799 44.5349 21.8336 43.6345 21.2955Z" fill="#FAA940"/>
<path d="M32.6703 27.807C32.4319 27.7924 32.1965 27.747 31.9698 27.672C31.301 27.4581 30.7353 27.0038 30.382 26.397C29.8677 26.7399 29.2632 26.9226 28.645 26.922C28.288 26.921 27.9335 26.8625 27.595 26.7488C27.112 26.5874 26.6744 26.3131 26.3187 25.9486C25.963 25.5842 25.6994 25.1401 25.5498 24.6533C25.0528 24.9045 24.5039 25.0362 23.947 25.038C23.5456 25.038 23.147 24.9716 22.7673 24.8415C22.2506 24.6701 21.7796 24.3835 21.3899 24.0035C21.0001 23.6235 20.7017 23.1599 20.5173 22.6478C20.1913 22.6211 19.8686 22.5636 19.5535 22.476L19.1635 22.3763L20.4895 28.3418C20.511 28.4509 20.5084 28.5634 20.4817 28.6715C20.455 28.7795 20.405 28.8803 20.3351 28.9669C20.2653 29.0535 20.1773 29.1237 20.0774 29.1726C19.9774 29.2215 19.868 29.2479 19.7568 29.25C19.5863 29.2498 19.421 29.1915 19.288 29.0848C19.1551 28.978 19.0625 28.8292 19.0255 28.6628L17.5345 21.9533L16.3908 21.6593C16.2953 21.6346 16.2057 21.5915 16.1269 21.5322C16.0482 21.4729 15.9819 21.3987 15.9318 21.3138C15.8817 21.2289 15.8489 21.135 15.8351 21.0374C15.8213 20.9398 15.8269 20.8404 15.8515 20.745C15.8762 20.6496 15.9193 20.5599 15.9786 20.4812C16.0379 20.4024 16.1121 20.3361 16.197 20.286C16.2819 20.236 16.3758 20.2031 16.4734 20.1893C16.571 20.1756 16.6703 20.1811 16.7658 20.2058L19.9458 21.0233C20.2724 21.1198 20.6109 21.1703 20.9515 21.1733C21.0595 21.168 21.1068 21.1658 21.154 21.1658C21.9286 21.1273 22.6696 20.8376 23.265 20.3406C23.8604 19.8436 24.2778 19.1663 24.454 18.411C24.4629 18.3699 24.4554 18.3269 24.4331 18.2912C24.4109 18.2556 24.3756 18.2299 24.3348 18.2198L17.1963 16.1198C16.6505 15.9514 16.0611 15.9974 15.548 16.2481C15.0349 16.4989 14.6366 16.9357 14.434 17.4698L12.109 23.5763C11.72 24.6006 11.5856 25.7041 11.7174 26.7918C11.8492 27.8796 12.2433 28.919 12.8658 29.8208C12.8658 29.8208 15.6483 33.8325 16.8408 35.5575C17.2734 36.1833 17.5054 36.926 17.506 37.6868V46.5H31.006V37.17C31.0053 36.8468 31.0466 36.5248 31.129 36.2123L32.9725 29.3123C32.826 28.8208 32.7248 28.3169 32.6703 27.807Z" fill="#FAA940"/>
<path d="M22.0308 15.975L23.725 10.9732C23.7753 10.8051 23.7661 10.6248 23.699 10.4627C23.632 10.3006 23.5111 10.1665 23.3568 10.083L21.268 8.79825C21.1505 8.72482 21.018 8.67862 20.8803 8.66305C20.7426 8.64747 20.6032 8.66292 20.4723 8.70825C20.3705 8.74295 20.2778 8.80024 20.2013 8.87584C20.1248 8.95143 20.0664 9.04337 20.0305 9.14475L18.1038 14.8207L22.0308 15.975Z" fill="#FAA940"/>
</svg>
