<svg width="49" height="48" viewBox="0 0 49 48" fill="none" xmlns="http://www.w3.org/2000/svg">
<path d="M11 0H3V14H11V0Z" fill="#FAA940"/>
<path d="M23 0H15.0001V32H23V0Z" fill="#FAA940"/>
<path d="M23 34H15.0001V48H23V34Z" fill="#FAA940"/>
<path d="M35 0H27V18H35V0Z" fill="#FAA940"/>
<path d="M38.9999 0V27C38.9999 27.5523 39.4477 28 40 28H46C46.5523 28 47 27.5523 47 27V0H38.9999Z" fill="#FAA940"/>
<path d="M35 20H27V48H35V20Z" fill="#FAA940"/>
<path d="M3 39C3 39.5523 3.44775 40 4.00003 40H10C10.5523 40 11.0001 39.5523 11.0001 39V16H3V39Z" fill="#FAA940"/>
</svg>
