<svg xmlns="http://www.w3.org/2000/svg" version="1.1" xmlns:xlink="http://www.w3.org/1999/xlink" xmlns:svgjs="http://svgjs.com/svgjs" width="512" height="512" x="0" y="0" viewBox="0 0 510 510" style="enable-background:new 0 0 512 512" xml:space="preserve"><defs><linearGradient id="SVGID_1_" gradientTransform="matrix(.934 .358 -.358 .934 -138.606 -354.557)" gradientUnits="userSpaceOnUse" x1="431.202" x2="480.145" xlink:href="#lg1" y1="521.137" y2="557.508"></linearGradient><linearGradient id="SVGID_00000106113030674627527000000011675722416875708583_" gradientTransform="matrix(.934 .358 -.358 .934 -138.606 -354.557)" gradientUnits="userSpaceOnUse" x1="451.72" x2="488.839" xlink:href="#lg2" y1="561.82" y2="561.221"></linearGradient><linearGradient id="SVGID_00000018238689072769584250000005509058855753628545_" gradientTransform="matrix(.934 .358 -.358 .934 -138.606 -354.557)" gradientUnits="userSpaceOnUse" x1="463.761" x2="488.457" xlink:href="#lg1" y1="449.875" y2="527.107"></linearGradient><linearGradient id="SVGID_00000114792353373030639880000007183448900706701209_" gradientTransform="matrix(.934 .358 -.358 .934 -138.606 -354.557)" gradientUnits="userSpaceOnUse" x1="468.737" x2="500.468" xlink:href="#lg2" y1="491.93" y2="519.47"></linearGradient><linearGradient id="SVGID_00000049925939611378189560000008491307268379650466_" gradientTransform="matrix(-.934 .358 .358 .934 958.435 -354.557)" gradientUnits="userSpaceOnUse" x1="720.557" x2="769.5" xlink:href="#lg1" y1="410.379" y2="446.749"></linearGradient><linearGradient id="SVGID_00000050630593499627444530000006899127445111967872_" gradientTransform="matrix(-.934 .358 .358 .934 958.435 -354.557)" gradientUnits="userSpaceOnUse" x1="741.075" x2="778.194" xlink:href="#lg2" y1="451.061" y2="450.462"></linearGradient><linearGradient id="SVGID_00000049932793420042601990000012835787075214329746_" gradientTransform="matrix(-.934 .358 .358 .934 958.435 -354.557)" gradientUnits="userSpaceOnUse" x1="753.116" x2="777.812" xlink:href="#lg1" y1="339.117" y2="416.348"></linearGradient><linearGradient id="SVGID_00000042711791447387489670000014827432407210869165_" gradientTransform="matrix(-.934 .358 .358 .934 958.435 -354.557)" gradientUnits="userSpaceOnUse" x1="758.092" x2="789.823" xlink:href="#lg2" y1="381.171" y2="408.711"></linearGradient><linearGradient id="SVGID_00000012473994419417457300000008786649331871959168_" gradientUnits="userSpaceOnUse" x1="156.954" x2="324.67" xlink:href="#lg1" y1="252.928" y2="420.644"></linearGradient><linearGradient id="SVGID_00000018919005500079697710000012645944846826055080_" gradientUnits="userSpaceOnUse" x1="337.326" x2="170.272" xlink:href="#lg1" y1="433.3" y2="266.246"></linearGradient><linearGradient id="SVGID_00000138541141564077426450000011187432492525464968_" gradientUnits="userSpaceOnUse" x1="175.891" x2="306.108" xlink:href="#lg1" y1="271.865" y2="402.082"></linearGradient><linearGradient id="SVGID_00000016787611390631994080000017525715681145371782_" gradientUnits="userSpaceOnUse" x1="255" x2="255" xlink:href="#lg2" y1="397.502" y2="501.882"></linearGradient><linearGradient id="SVGID_00000025408745545220902860000001198669253987985054_" gradientUnits="userSpaceOnUse" x1="350.243" x2="218.909" xlink:href="#lg2" y1="433.62" y2="350.953"></linearGradient><linearGradient id="SVGID_00000132058150211660521820000017834197133222122399_" gradientUnits="userSpaceOnUse" x1="221.874" x2="281.61" xlink:href="#lg1" y1="320.747" y2="380.482"></linearGradient><linearGradient id="SVGID_00000111174842818728827850000003509463940455402914_" gradientUnits="userSpaceOnUse" x1="290.793" x2="208.23" xlink:href="#lg2" y1="337.034" y2="371.166"></linearGradient><linearGradient id="SVGID_00000060028365816896364600000008661628946096492729_" gradientUnits="userSpaceOnUse" x1="269.236" x2="224.034" xlink:href="#lg2" y1="366.334" y2="346.961"></linearGradient><linearGradient id="SVGID_00000145038406879816526030000013394853554959771309_" gradientTransform="matrix(-1 0 0 1 528.704 0)" gradientUnits="userSpaceOnUse" x1="287.94" x2="242.738" xlink:href="#lg2" y1="366.334" y2="346.961"></linearGradient><linearGradient id="SVGID_00000173149398945396086060000006062974716471016359_" gradientUnits="userSpaceOnUse" x1="241.769" x2="270.827" xlink:href="#lg2" y1="368.601" y2="321.9"></linearGradient><linearGradient id="SVGID_00000109725189523726458680000013814100659501421243_" gradientUnits="userSpaceOnUse" x1="266.003" x2="263.582" xlink:href="#lg2" y1="362.703" y2="317.04"></linearGradient><linearGradient id="SVGID_00000008125655761623661570000004502704631712160932_" gradientUnits="userSpaceOnUse" x1="333.364" x2="272.031" xlink:href="#lg2" y1="283.792" y2="176.459"></linearGradient><linearGradient id="SVGID_00000000213690342275754550000015671498550082787470_" gradientUnits="userSpaceOnUse" x1="262.112" x2="301.612" y1="56.676" y2="119.676"><stop offset="0" stop-color="#f9f5f3"></stop><stop offset="1" stop-color="#d8e8f0"></stop></linearGradient><linearGradient id="SVGID_00000144326062477865677420000010933406538902621608_" gradientUnits="userSpaceOnUse" x1="222.713" x2="345.38" xlink:href="#lg3" y1="-20.62" y2="120.046"></linearGradient><linearGradient id="SVGID_00000072274243032983417130000017782409388021135790_" gradientUnits="userSpaceOnUse" x1="196.655" x2="319.321" xlink:href="#lg3" y1="2.104" y2="142.77"></linearGradient><linearGradient id="SVGID_00000080910689483036462390000003822908237317676456_" gradientUnits="userSpaceOnUse" x1="255" x2="255" xlink:href="#lg4" y1="66.5" y2="33.466"></linearGradient><linearGradient id="SVGID_00000030453207187208717570000014330866913237466270_" gradientUnits="userSpaceOnUse" x1="292.995" x2="310.065" xlink:href="#lg4" y1="107.005" y2="124.075"></linearGradient><linearGradient id="SVGID_00000060750215040323073290000016440185625368117692_" gradientTransform="matrix(-1 0 0 1 -554 0)" gradientUnits="userSpaceOnUse" x1="-771.005" x2="-753.935" xlink:href="#lg4" y1="107.005" y2="124.075"></linearGradient><linearGradient id="SVGID_00000085233707466301006690000011163084944089379979_" gradientUnits="userSpaceOnUse" x1="341.686" x2="136.626" xlink:href="#lg1" y1="177.612" y2="-27.448"></linearGradient><linearGradient id="SVGID_00000029014072763344359760000010879480147838154130_" gradientUnits="userSpaceOnUse" x1="255" x2="255" xlink:href="#lg1" y1="81.667" y2="221.706"></linearGradient><linearGradient id="SVGID_00000124870009630857698430000010796641528677958838_" gradientUnits="userSpaceOnUse" x1="255" x2="255" xlink:href="#lg2" y1="163" y2="209.044"></linearGradient><linearGradient id="SVGID_00000085221084841102295490000002747917190395419308_" gradientUnits="userSpaceOnUse" x1="302.267" x2="274.267" xlink:href="#lg2" y1="136.929" y2="165.429"></linearGradient><linearGradient id="SVGID_00000073705721062993959970000003822596216584107920_" gradientUnits="userSpaceOnUse" x1="233.5" x2="286.53" xlink:href="#lg1" y1="168.5" y2="221.53"></linearGradient><linearGradient id="SVGID_00000060010955421029962100000011344034963951612288_" gradientUnits="userSpaceOnUse" x1="270.25" x2="243.999" xlink:href="#lg1" y1="205.25" y2="178.999"></linearGradient><linearGradient id="SVGID_00000157999978755939364920000004602099427384640429_" gradientUnits="userSpaceOnUse" x1="255" x2="255" xlink:href="#lg1" y1="11.333" y2="32.171"></linearGradient></defs><g><linearGradient id="lg1"><stop offset="0" stop-color="#fbc56d"></stop><stop offset="1" stop-color="#c5715a"></stop></linearGradient><linearGradient id="SVGID_1_" gradientTransform="matrix(.934 .358 -.358 .934 -138.606 -354.557)" gradientUnits="userSpaceOnUse" x1="431.202" x2="480.145" xlink:href="#lg1" y1="521.137" y2="557.508"></linearGradient><linearGradient id="lg2"><stop offset="0" stop-color="#8c3d27" stop-opacity="0"></stop><stop offset="1" stop-color="#8c3d27"></stop></linearGradient><linearGradient id="SVGID_00000106113030674627527000000011675722416875708583_" gradientTransform="matrix(.934 .358 -.358 .934 -138.606 -354.557)" gradientUnits="userSpaceOnUse" x1="451.72" x2="488.839" xlink:href="#lg2" y1="561.82" y2="561.221"></linearGradient><linearGradient id="SVGID_00000018238689072769584250000005509058855753628545_" gradientTransform="matrix(.934 .358 -.358 .934 -138.606 -354.557)" gradientUnits="userSpaceOnUse" x1="463.761" x2="488.457" xlink:href="#lg1" y1="449.875" y2="527.107"></linearGradient><linearGradient id="SVGID_00000114792353373030639880000007183448900706701209_" gradientTransform="matrix(.934 .358 -.358 .934 -138.606 -354.557)" gradientUnits="userSpaceOnUse" x1="468.737" x2="500.468" xlink:href="#lg2" y1="491.93" y2="519.47"></linearGradient><linearGradient id="SVGID_00000049925939611378189560000008491307268379650466_" gradientTransform="matrix(-.934 .358 .358 .934 958.435 -354.557)" gradientUnits="userSpaceOnUse" x1="720.557" x2="769.5" xlink:href="#lg1" y1="410.379" y2="446.749"></linearGradient><linearGradient id="SVGID_00000050630593499627444530000006899127445111967872_" gradientTransform="matrix(-.934 .358 .358 .934 958.435 -354.557)" gradientUnits="userSpaceOnUse" x1="741.075" x2="778.194" xlink:href="#lg2" y1="451.061" y2="450.462"></linearGradient><linearGradient id="SVGID_00000049932793420042601990000012835787075214329746_" gradientTransform="matrix(-.934 .358 .358 .934 958.435 -354.557)" gradientUnits="userSpaceOnUse" x1="753.116" x2="777.812" xlink:href="#lg1" y1="339.117" y2="416.348"></linearGradient><linearGradient id="SVGID_00000042711791447387489670000014827432407210869165_" gradientTransform="matrix(-.934 .358 .358 .934 958.435 -354.557)" gradientUnits="userSpaceOnUse" x1="758.092" x2="789.823" xlink:href="#lg2" y1="381.171" y2="408.711"></linearGradient><linearGradient id="SVGID_00000012473994419417457300000008786649331871959168_" gradientUnits="userSpaceOnUse" x1="156.954" x2="324.67" xlink:href="#lg1" y1="252.928" y2="420.644"></linearGradient><linearGradient id="SVGID_00000018919005500079697710000012645944846826055080_" gradientUnits="userSpaceOnUse" x1="337.326" x2="170.272" xlink:href="#lg1" y1="433.3" y2="266.246"></linearGradient><linearGradient id="SVGID_00000138541141564077426450000011187432492525464968_" gradientUnits="userSpaceOnUse" x1="175.891" x2="306.108" xlink:href="#lg1" y1="271.865" y2="402.082"></linearGradient><linearGradient id="SVGID_00000016787611390631994080000017525715681145371782_" gradientUnits="userSpaceOnUse" x1="255" x2="255" xlink:href="#lg2" y1="397.502" y2="501.882"></linearGradient><linearGradient id="SVGID_00000025408745545220902860000001198669253987985054_" gradientUnits="userSpaceOnUse" x1="350.243" x2="218.909" xlink:href="#lg2" y1="433.62" y2="350.953"></linearGradient><linearGradient id="SVGID_00000132058150211660521820000017834197133222122399_" gradientUnits="userSpaceOnUse" x1="221.874" x2="281.61" xlink:href="#lg1" y1="320.747" y2="380.482"></linearGradient><linearGradient id="SVGID_00000111174842818728827850000003509463940455402914_" gradientUnits="userSpaceOnUse" x1="290.793" x2="208.23" xlink:href="#lg2" y1="337.034" y2="371.166"></linearGradient><linearGradient id="SVGID_00000060028365816896364600000008661628946096492729_" gradientUnits="userSpaceOnUse" x1="269.236" x2="224.034" xlink:href="#lg2" y1="366.334" y2="346.961"></linearGradient><linearGradient id="SVGID_00000145038406879816526030000013394853554959771309_" gradientTransform="matrix(-1 0 0 1 528.704 0)" gradientUnits="userSpaceOnUse" x1="287.94" x2="242.738" xlink:href="#lg2" y1="366.334" y2="346.961"></linearGradient><linearGradient id="SVGID_00000173149398945396086060000006062974716471016359_" gradientUnits="userSpaceOnUse" x1="241.769" x2="270.827" xlink:href="#lg2" y1="368.601" y2="321.9"></linearGradient><linearGradient id="SVGID_00000109725189523726458680000013814100659501421243_" gradientUnits="userSpaceOnUse" x1="266.003" x2="263.582" xlink:href="#lg2" y1="362.703" y2="317.04"></linearGradient><linearGradient id="SVGID_00000008125655761623661570000004502704631712160932_" gradientUnits="userSpaceOnUse" x1="333.364" x2="272.031" xlink:href="#lg2" y1="283.792" y2="176.459"></linearGradient><linearGradient id="SVGID_00000000213690342275754550000015671498550082787470_" gradientUnits="userSpaceOnUse" x1="262.112" x2="301.612" y1="56.676" y2="119.676"><stop offset="0" stop-color="#f9f5f3"></stop><stop offset="1" stop-color="#d8e8f0"></stop></linearGradient><linearGradient id="lg3"><stop offset="0" stop-color="#bbec6c"></stop><stop offset="1" stop-color="#81b823"></stop></linearGradient><linearGradient id="SVGID_00000144326062477865677420000010933406538902621608_" gradientUnits="userSpaceOnUse" x1="222.713" x2="345.38" xlink:href="#lg3" y1="-20.62" y2="120.046"></linearGradient><linearGradient id="SVGID_00000072274243032983417130000017782409388021135790_" gradientUnits="userSpaceOnUse" x1="196.655" x2="319.321" xlink:href="#lg3" y1="2.104" y2="142.77"></linearGradient><linearGradient id="lg4"><stop offset="0" stop-color="#78a91f" stop-opacity="0"></stop><stop offset="1" stop-color="#78a91f"></stop></linearGradient><linearGradient id="SVGID_00000080910689483036462390000003822908237317676456_" gradientUnits="userSpaceOnUse" x1="255" x2="255" xlink:href="#lg4" y1="66.5" y2="33.466"></linearGradient><linearGradient id="SVGID_00000030453207187208717570000014330866913237466270_" gradientUnits="userSpaceOnUse" x1="292.995" x2="310.065" xlink:href="#lg4" y1="107.005" y2="124.075"></linearGradient><linearGradient id="SVGID_00000060750215040323073290000016440185625368117692_" gradientTransform="matrix(-1 0 0 1 -554 0)" gradientUnits="userSpaceOnUse" x1="-771.005" x2="-753.935" xlink:href="#lg4" y1="107.005" y2="124.075"></linearGradient><linearGradient id="SVGID_00000085233707466301006690000011163084944089379979_" gradientUnits="userSpaceOnUse" x1="341.686" x2="136.626" xlink:href="#lg1" y1="177.612" y2="-27.448"></linearGradient><linearGradient id="SVGID_00000029014072763344359760000010879480147838154130_" gradientUnits="userSpaceOnUse" x1="255" x2="255" xlink:href="#lg1" y1="81.667" y2="221.706"></linearGradient><linearGradient id="SVGID_00000124870009630857698430000010796641528677958838_" gradientUnits="userSpaceOnUse" x1="255" x2="255" xlink:href="#lg2" y1="163" y2="209.044"></linearGradient><linearGradient id="SVGID_00000085221084841102295490000002747917190395419308_" gradientUnits="userSpaceOnUse" x1="302.267" x2="274.267" xlink:href="#lg2" y1="136.929" y2="165.429"></linearGradient><linearGradient id="SVGID_00000073705721062993959970000003822596216584107920_" gradientUnits="userSpaceOnUse" x1="233.5" x2="286.53" xlink:href="#lg1" y1="168.5" y2="221.53"></linearGradient><linearGradient id="SVGID_00000060010955421029962100000011344034963951612288_" gradientUnits="userSpaceOnUse" x1="270.25" x2="243.999" xlink:href="#lg1" y1="205.25" y2="178.999"></linearGradient><linearGradient id="SVGID_00000157999978755939364920000004602099427384640429_" gradientUnits="userSpaceOnUse" x1="255" x2="255" xlink:href="#lg1" y1="11.333" y2="32.171"></linearGradient><g><g><g><path d="m136.992 319.5c22.557 22.078 36.705 48.673 41.596 74.299 1.024 5.367-7.211 13.781-12.599 12.872-25.725-4.339-52.618-17.913-75.175-39.99s-36.705-48.673-41.596-74.299c-1.024-5.367 7.211-13.781 12.599-12.872 25.725 4.339 52.618 17.912 75.175 39.99z" fill="url(&quot;#SVGID_1_&quot;)" data-original="url(#SVGID_1_)"></path><path d="m136.992 319.5c22.557 22.078 36.705 48.673 41.596 74.299 1.024 5.367-7.211 13.781-12.599 12.872-25.725-4.339-52.618-17.913-75.175-39.99s-36.705-48.673-41.596-74.299c-1.024-5.367 7.211-13.781 12.599-12.872 25.725 4.339 52.618 17.912 75.175 39.99z" fill="url(&quot;#SVGID_00000106113030674627527000000011675722416875708583_&quot;)" data-original="url(#SVGID_00000106113030674627527000000011675722416875708583_)"></path><path d="m167.581 267.213c18.087 35.348 24.337 72.725 19.933 105.248-.922 6.811-14.108 13.558-20.172 10.321-28.953-15.454-55.61-42.39-73.696-77.738s-24.337-72.725-19.933-105.248c.922-6.811 14.108-13.558 20.172-10.321 28.952 15.454 55.609 42.39 73.696 77.738z" fill="url(&quot;#SVGID_00000018238689072769584250000005509058855753628545_&quot;)" data-original="url(#SVGID_00000018238689072769584250000005509058855753628545_)"></path><path d="m73.369 238.533c2.39 21.855 9.052 44.573 20.277 66.511 18.087 35.348 44.743 62.284 73.696 77.738 6.063 3.236 19.249-3.511 20.172-10.321 4.404-32.522-1.846-69.9-19.933-105.248-10.65-20.815-24.274-38.708-39.587-53.062z" fill="url(&quot;#SVGID_00000114792353373030639880000007183448900706701209_&quot;)" data-original="url(#SVGID_00000114792353373030639880000007183448900706701209_)"></path></g><g><path d="m373.008 319.5c-22.557 22.078-36.705 48.673-41.596 74.299-1.024 5.367 7.211 13.781 12.599 12.872 25.725-4.339 52.618-17.913 75.175-39.99s36.705-48.673 41.596-74.299c1.024-5.367-7.211-13.781-12.599-12.872-25.725 4.339-52.618 17.912-75.175 39.99z" fill="url(&quot;#SVGID_00000049925939611378189560000008491307268379650466_&quot;)" data-original="url(#SVGID_00000049925939611378189560000008491307268379650466_)"></path><path d="m373.008 319.5c-22.557 22.078-36.705 48.673-41.596 74.299-1.024 5.367 7.211 13.781 12.599 12.872 25.725-4.339 52.618-17.913 75.175-39.99s36.705-48.673 41.596-74.299c1.024-5.367-7.211-13.781-12.599-12.872-25.725 4.339-52.618 17.912-75.175 39.99z" fill="url(&quot;#SVGID_00000050630593499627444530000006899127445111967872_&quot;)" data-original="url(#SVGID_00000050630593499627444530000006899127445111967872_)"></path><path d="m342.419 267.213c-18.087 35.348-24.337 72.725-19.933 105.248.922 6.811 14.108 13.558 20.172 10.321 28.953-15.454 55.61-42.39 73.696-77.738s24.337-72.725 19.933-105.248c-.922-6.811-14.108-13.558-20.172-10.321-28.952 15.454-55.609 42.39-73.696 77.738z" fill="url(&quot;#SVGID_00000049932793420042601990000012835787075214329746_&quot;)" data-original="url(#SVGID_00000049932793420042601990000012835787075214329746_)"></path><path d="m436.631 238.533c-2.39 21.855-9.052 44.573-20.277 66.511-18.087 35.348-44.743 62.284-73.696 77.738-6.063 3.236-19.249-3.511-20.172-10.321-4.404-32.522 1.846-69.9 19.933-105.248 10.65-20.815 24.274-38.708 39.587-53.062z" fill="url(&quot;#SVGID_00000042711791447387489670000014827432407210869165_&quot;)" data-original="url(#SVGID_00000042711791447387489670000014827432407210869165_)"></path></g></g><g><circle cx="255" cy="350.974" fill="url(&quot;#SVGID_00000012473994419417457300000008786649331871959168_&quot;)" r="159.026" data-original="url(#SVGID_00000012473994419417457300000008786649331871959168_)"></circle><circle cx="255" cy="350.974" fill="url(&quot;#SVGID_00000018919005500079697710000012645944846826055080_&quot;)" r="126.755" data-original="url(#SVGID_00000018919005500079697710000012645944846826055080_)"></circle><circle cx="255" cy="350.974" fill="url(&quot;#SVGID_00000138541141564077426450000011187432492525464968_&quot;)" r="108.82" data-original="url(#SVGID_00000138541141564077426450000011187432492525464968_)"></circle><path d="m95.974 350.974c0 87.828 71.198 159.026 159.026 159.026s159.026-71.198 159.026-159.026c0-.617-.016-1.23-.023-1.846h-318.006c-.007.616-.023 1.229-.023 1.846z" fill="url(&quot;#SVGID_00000016787611390631994080000017525715681145371782_&quot;)" data-original="url(#SVGID_00000016787611390631994080000017525715681145371782_)"></path></g><path d="m299.601 503.65c50.109-14.614 89.983-53.219 106.356-102.552l-77.453-77.453-17.461.857-47.126-47.126-57.435 133.155z" fill="url(&quot;#SVGID_00000025408745545220902860000001198669253987985054_&quot;)" data-original="url(#SVGID_00000025408745545220902860000001198669253987985054_)"></path><g><path d="m320.208 316.419-31.187-7.535c-2.901-.701-5.436-2.46-7.109-4.932l-17.978-26.575c-2.175-3.214-5.506-4.939-8.934-5.217-3.428.278-6.76 2.003-8.934 5.217l-17.978 26.575c-1.672 2.472-4.207 4.231-7.109 4.932l-31.187 7.535c-8.46 2.044-11.985 12.141-6.637 19.007l19.719 25.31c1.834 2.355 2.724 5.309 2.494 8.285l-2.471 31.989c-.67 8.677 7.843 15.151 16.026 12.185l30.165-10.932c1.906-.691 3.939-.869 5.912-.563 1.974-.305 4.006-.127 5.912.563l30.165 10.932c8.182 2.965 16.696-3.508 16.026-12.185l-2.471-31.989c-.23-2.976.66-5.93 2.494-8.285l19.719-25.31c5.348-6.866 1.823-16.963-6.637-19.007z" fill="url(&quot;#SVGID_00000132058150211660521820000017834197133222122399_&quot;)" data-original="url(#SVGID_00000132058150211660521820000017834197133222122399_)"></path><path d="m260.912 402.263 30.165 10.932c8.182 2.965 16.696-3.508 16.026-12.185l-2.471-31.989c-.23-2.976.66-5.93 2.494-8.285l19.719-25.31c5.349-6.865 1.823-16.963-6.637-19.007l-31.187-7.535c-2.901-.701-5.436-2.46-7.109-4.932l-17.978-26.575c-2.175-3.214-5.506-4.939-8.934-5.217v129.54c1.974-.306 4.007-.128 5.912.563z" fill="url(&quot;#SVGID_00000111174842818728827850000003509463940455402914_&quot;)" data-original="url(#SVGID_00000111174842818728827850000003509463940455402914_)"></path><path d="m320.208 316.419-31.187-7.535c-1.065-.257-2.079-.66-3.02-1.185l-79.502 102.833c3.119 3.014 7.824 4.331 12.424 2.664l30.165-10.932c1.906-.691 3.939-.869 5.912-.563 1.974-.305 4.006-.127 5.912.563l30.165 10.932c8.182 2.965 16.696-3.508 16.026-12.185l-2.471-31.989c-.23-2.976.66-5.93 2.494-8.285l19.719-25.31c5.348-6.867 1.823-16.964-6.637-19.008z" fill="url(&quot;#SVGID_00000060028365816896364600000008661628946096492729_&quot;)" data-original="url(#SVGID_00000060028365816896364600000008661628946096492729_)"></path><path d="m189.792 316.419 31.187-7.535c1.065-.257 2.079-.66 3.02-1.185l79.502 102.833c-3.119 3.014-7.824 4.331-12.424 2.664l-30.165-10.932c-1.906-.691-3.939-.869-5.912-.563-1.974-.305-4.006-.127-5.912.563l-30.165 10.932c-8.182 2.965-16.696-3.508-16.026-12.185l2.471-31.989c.23-2.976-.66-5.93-2.494-8.285l-19.719-25.31c-5.348-6.867-1.823-16.964 6.637-19.008z" fill="url(&quot;#SVGID_00000145038406879816526030000013394853554959771309_&quot;)" data-original="url(#SVGID_00000145038406879816526030000013394853554959771309_)"></path><path d="m181.491 323.646c-1.483 3.74-1.127 8.197 1.664 11.78l19.719 25.31c1.834 2.355 2.724 5.309 2.494 8.285l-2.471 31.989c-.67 8.677 7.843 15.151 16.026 12.185l30.165-10.932c1.906-.691 3.939-.869 5.912-.563 1.974-.305 4.006-.127 5.912.563l30.165 10.932c8.182 2.965 16.696-3.508 16.026-12.185l-2.471-31.989c-.128-1.651.101-3.292.633-4.831z" fill="url(&quot;#SVGID_00000173149398945396086060000006062974716471016359_&quot;)" data-original="url(#SVGID_00000173149398945396086060000006062974716471016359_)"></path><path d="m328.521 323.646c1.483 3.74 1.128 8.197-1.664 11.78l-19.719 25.31c-1.834 2.355-2.724 5.309-2.494 8.285l2.471 31.989c.67 8.677-7.844 15.151-16.026 12.185l-30.165-10.932c-1.906-.691-3.939-.869-5.912-.563-1.974-.305-4.006-.127-5.912.563l-30.165 10.932c-8.182 2.965-16.696-3.508-16.026-12.185l2.471-31.989c.128-1.651-.101-3.292-.633-4.831z" fill="url(&quot;#SVGID_00000109725189523726458680000013814100659501421243_&quot;)" data-original="url(#SVGID_00000109725189523726458680000013814100659501421243_)"></path></g><path d="m255 191.948c-.66 0-1.315.017-1.973.025l-24.542 24.542 179.161 179.161c4.146-14.182 6.38-29.181 6.38-44.703 0-87.827-71.198-159.025-159.026-159.025z" fill="url(&quot;#SVGID_00000008125655761623661570000004502704631712160932_&quot;)" data-original="url(#SVGID_00000008125655761623661570000004502704631712160932_)"></path><g><path d="m159 3.333v84l96 96 96-96v-84z" fill="url(&quot;#SVGID_00000000213690342275754550000015671498550082787470_&quot;)" data-original="url(#SVGID_00000000213690342275754550000015671498550082787470_)"></path><g><path d="m159 3.333v26.142l95.679 95.679c.177.177.465.177.642 0l95.679-95.679v-26.142z" fill="url(&quot;#SVGID_00000144326062477865677420000010933406538902621608_&quot;)" data-original="url(#SVGID_00000144326062477865677420000010933406538902621608_)"></path><path d="m255 140.28c-3.958 0-7.915-1.506-10.927-4.519l-85.073-85.073v36.646l96 96 96-96v-36.646l-85.073 85.073c-3.012 3.012-6.969 4.519-10.927 4.519z" fill="url(&quot;#SVGID_00000072274243032983417130000017782409388021135790_&quot;)" data-original="url(#SVGID_00000072274243032983417130000017782409388021135790_)"></path><path d="m159 3.333v26.142l95.679 95.679c.177.177.465.177.642 0l95.679-95.679v-26.142z" fill="url(&quot;#SVGID_00000080910689483036462390000003822908237317676456_&quot;)" data-original="url(#SVGID_00000080910689483036462390000003822908237317676456_)"></path><path d="m255 140.28c-3.958 0-7.915-1.506-10.927-4.519l-85.073-85.073v36.646l96 96 96-96v-36.646l-85.073 85.073c-3.012 3.012-6.969 4.519-10.927 4.519z" fill="url(&quot;#SVGID_00000030453207187208717570000014330866913237466270_&quot;)" data-original="url(#SVGID_00000030453207187208717570000014330866913237466270_)"></path><path d="m255 140.28c3.958 0 7.915-1.506 10.927-4.519l85.073-85.073v36.646l-96 96-96-96v-36.646l85.073 85.073c3.012 3.012 6.97 4.519 10.927 4.519z" fill="url(&quot;#SVGID_00000060750215040323073290000016440185625368117692_&quot;)" data-original="url(#SVGID_00000060750215040323073290000016440185625368117692_)"></path></g><g><path d="m244.473 161.527-81.694-81.694c-6.126-6.126-16.059-6.126-22.185 0-6.126 6.126-6.126 16.059 0 22.185l114.406 114.408 114.407-114.407c6.126-6.126 6.126-16.059 0-22.185-6.126-6.126-16.059-6.126-22.185 0l-81.694 81.694c-5.815 5.814-15.241 5.814-21.055-.001z" fill="url(&quot;#SVGID_00000085233707466301006690000011163084944089379979_&quot;)" data-original="url(#SVGID_00000085233707466301006690000011163084944089379979_)"></path><path d="m140.593 80.019 102.361 102.361c6.653 6.653 17.44 6.653 24.093 0l102.36-102.361c.03-.03.054-.063.084-.093-.029-.03-.054-.063-.084-.093-6.126-6.126-16.059-6.126-22.185 0l-81.694 81.694c-5.814 5.814-15.241 5.814-21.055 0l-81.694-81.694c-6.126-6.126-16.059-6.126-22.185 0-.03.03-.054.063-.084.093.029.03.053.063.083.093z" fill="url(&quot;#SVGID_00000029014072763344359760000010879480147838154130_&quot;)" data-original="url(#SVGID_00000029014072763344359760000010879480147838154130_)"></path><path d="m255 216.426 80.759-80.759h-44.371l-25.861 25.861c-5.814 5.814-15.241 5.814-21.055 0l-25.861-25.861h-44.371z" fill="url(&quot;#SVGID_00000124870009630857698430000010796641528677958838_&quot;)" data-original="url(#SVGID_00000124870009630857698430000010796641528677958838_)"></path><path d="m245 206.426 10 10 102.426-102.426h-44.371l-47.527 47.527c-5.645 5.645-14.684 5.792-20.528.477z" fill="url(&quot;#SVGID_00000085221084841102295490000002747917190395419308_&quot;)" data-original="url(#SVGID_00000085221084841102295490000002747917190395419308_)"></path></g><g><circle cx="255" cy="190" fill="url(&quot;#SVGID_00000073705721062993959970000003822596216584107920_&quot;)" r="37.498" data-original="url(#SVGID_00000073705721062993959970000003822596216584107920_)"></circle><circle cx="255" cy="190" fill="url(&quot;#SVGID_00000060010955421029962100000011344034963951612288_&quot;)" r="21.498" data-original="url(#SVGID_00000060010955421029962100000011344034963951612288_)"></circle></g><path d="m365.502 37.333h-221.004c-6.35 0-11.498-5.148-11.498-11.498v-14.337c0-6.35 5.148-11.498 11.498-11.498h221.005c6.349 0 11.497 5.148 11.497 11.498v14.338c0 6.35-5.148 11.497-11.498 11.497z" fill="url(&quot;#SVGID_00000157999978755939364920000004602099427384640429_&quot;)" data-original="url(#SVGID_00000157999978755939364920000004602099427384640429_)"></path></g></g></g></svg>