<?xml version="1.0" encoding="utf-8"?>
<!-- Generator: Adobe Illustrator 25.0.1, SVG Export Plug-In . SVG Version: 6.00 Build 0)  -->
<svg version="1.1" id="Layer_1" xmlns="http://www.w3.org/2000/svg" xmlns:xlink="http://www.w3.org/1999/xlink" x="0px" y="0px"
	 viewBox="0 0 79.5 95" style="enable-background:new 0 0 79.5 95;" xml:space="preserve">
<style type="text/css">
	.st0{fill:#2F2D2E;}
	.st1{fill:#E4E6E8;}
	.st2{fill:#A3D8DD;}
	.st3{fill:#FAA940;}
	.st4{fill:#F8CD90;}
</style>
<path class="st0" d="M38.9,0c2.3,0.6,4.6,0.8,6.8,1.7C57.3,6.5,64,15.2,66.5,27.3c0.4,1.8,0.6,3.7,0.7,5.6c0.1,1.1,0.5,1.5,1.5,1.8
	c3,0.9,6.2,1.8,8.8,3.7c0.8,0.6,1.5,1.2,1.7,2.2c0,0.6,0,1.2,0,1.7c-0.6,3.1-3.1,4.5-5.6,5.9c-3,1.6-6.2,2.5-9.4,3.4
	c-2.8,0.5-5.6,1.1-8.5,1.5c-2.4,0.4-4.8,0.6-7.2,0.8c-3.4,0-6.7,0.1-10.1-0.2c-3.9-0.4-7.9-0.7-11.8-1.1c-5-1.1-10-2.2-14.9-3.2
	c-2.1-0.6-4.2-1.2-6.1-2.1c-1-0.4-1.9-0.9-2.8-1.5c-3.2-2.2-4-5.3-1.2-7.9c2.5-2.4,2.7-5,3.1-8C6.5,17.5,12.5,8.2,23.9,2.6
	c2.7-1.3,5.5-2,8.4-2.3c0.6,0.1,1.2,0.2,1.7-0.3C35.6,0,37.3,0,38.9,0z M63,34.7c0.2-0.3,0.5-0.4,0.7-0.4c1.6,0.1,1.7-0.8,1.6-2.1
	c-0.7-9.1-4.1-17-11-23C45.6,1.6,35.5-0.4,25,4.3C12.8,9.8,7,20.1,6.3,33.4c-0.1,1.8-0.2,3.2-2,4.2c-0.7,0.4-1.2,1.2-1.6,1.8
	c-1.3,2-1,3.3,1,4.7c1.8,1.2,3.7,2,5.7,2.6c9.5,2.9,19.2,4.3,29,5.1c10.4,0.8,20.6-0.2,30.5-3.6c2.6-0.9,5.2-2,7.2-4
	c1.8-1.8,1.7-3.1-0.4-4.5c-3-2-6.6-2.6-9.9-3.6C64.8,35.6,63.7,35.6,63,34.7z"/>
<path class="st0" d="M33.9,0c-0.5,0.5-1.1,0.4-1.7,0.3c0-0.1,0-0.2,0-0.3C32.8,0,33.4,0,33.9,0z"/>
<path class="st1" d="M79.2,27.6c0.1,0,0.2,0,0.3,0c0,0.6,0,1.1,0,1.7l-0.1,0h-0.1c0-0.6-0.1-1.1-0.1-1.7L79.2,27.6z"/>
<path class="st0" d="M79.2,42.3c0-0.6,0-1.2,0-1.7c0.1,0,0.2,0,0.3,0c0,0.6,0,1.1,0,1.7L79.2,42.3L79.2,42.3z"/>
<path class="st2" d="M11.7,49.3c5,1.1,10,2.2,14.9,3.2c-0.7,5.8,4.7,12.8,12,12.6c5.1-0.1,9.6-4,11.1-9.4c0.4-1.3,0-1.8-1.2-1.9
	c2.4-0.3,4.8-0.5,7.2-0.8c2.8-0.4,5.6-1,8.5-1.5c-0.2,4.9-2,9.3-4.2,13.7c-4,7.8-9.6,14.3-15.3,20.7c-2.3,2.6-4.5,5.4-6.6,8.1
	c-0.6,0.7-0.8,1-1.4,0.1C32.8,88.5,27.9,84,24,78.6c-5.2-7.2-10.1-14.7-11.8-23.7c-0.2-1.4-0.2-2.8-0.1-4.2
	C12.1,50.2,12.1,49.7,11.7,49.3z"/>
<path class="st0" d="M72.6,30.3c-1-2.2-0.5-3.8,1.6-5c0,0.2,0,0.4,0,0.6c-1.3,1-1.6,2.4-1.2,3.9C72.8,29.9,72.7,30.1,72.6,30.3z"/>
<path class="st0" d="M77.2,25.3c1.1,0.4,1.7,1.2,2,2.3h-0.1c-0.4,0.6-0.1,1.3-0.2,2c-0.1,0-0.2,0-0.3,0c0.4-1.8-0.2-3.1-1.8-3.9
	C76.9,25.6,77,25.4,77.2,25.3z"/>
<path class="st0" d="M77.2,25.3c-0.1,0.1-0.3,0.2-0.5,0.4c-0.9-0.2-1.7,0-2.5,0.2c0-0.2,0-0.4,0-0.6C75.2,24.8,76.2,24.7,77.2,25.3z
	"/>
<path class="st0" d="M76.5,31.9c-1,0.5-1.8,0.2-2.7-0.4c0.1-0.1,0.3-0.2,0.4-0.4c0.7,0.3,1.5,0.5,2.2,0.1
	C76.5,31.5,76.5,31.7,76.5,31.9z"/>
<path class="st0" d="M78.6,29.6c0.1,0,0.2,0,0.3,0H79h0.1c-0.1,0.8-0.5,1.4-1.2,1.8c-0.1-0.1-0.2-0.3-0.4-0.4
	C77.9,30.5,78.2,30,78.6,29.6z"/>
<path class="st0" d="M74.3,31.2c-0.1,0.1-0.3,0.2-0.4,0.4c-0.6-0.2-1.1-0.7-1.3-1.3c0.1-0.1,0.2-0.3,0.4-0.5
	C73.4,30.3,73.8,30.7,74.3,31.2z"/>
<path class="st0" d="M77.5,31c0.1,0.1,0.2,0.3,0.4,0.4c-0.4,0.4-0.8,0.6-1.4,0.6c0-0.2,0-0.4,0-0.6C76.8,31.2,77.2,31.1,77.5,31z"/>
<path class="st0" d="M79.2,29.6H79h-0.1c0.1-0.6-0.1-1.4,0.2-2c0,0.6,0.1,1.1,0.1,1.7C79.2,29.4,79.2,29.5,79.2,29.6z"/>
<path class="st3" d="M63,34.7c0.8,0.8,1.9,0.9,2.9,1.2c3.4,1.1,6.9,1.7,9.9,3.6c2.1,1.4,2.3,2.7,0.4,4.5c-2,2-4.6,3.1-7.2,4
	c-9.9,3.3-20.1,4.3-30.5,3.6c-9.9-0.7-19.6-2.2-29-5.1c-2-0.6-4-1.4-5.7-2.6c-2-1.4-2.3-2.6-1-4.7c0.5-0.7,0.9-1.5,1.6-1.8
	c1.8-0.9,1.9-2.4,2-4.2C7,20.1,12.8,9.8,25.1,4.2c10.5-4.7,20.5-2.7,29.2,4.9c7,6,10.3,13.9,11,23c0.1,1.3,0,2.2-1.6,2.1
	C63.4,34.3,63.1,34.4,63,34.7z M8.6,31.3c0,2.2,1.1,3.7,3,4c1.4,0.2,2.2-0.5,2.7-3c1.4-6.4,3.1-12.7,7.2-17.9
	c0.4-0.5,0.6-1.1,0.2-1.7c-0.5-0.6-1.1-0.4-1.7-0.3c-2.3,0.4-3.7,2-5.1,3.7C11.6,20.6,9.1,25.6,8.6,31.3z M50.9,22.2
	c-2.2,0.1-4.3,0.8-6.2,2c-1,0.6-1.2,1.4-1,2.4c0.9,3.3,2.5,6.1,5.4,8.1c2,1.4,3.1,1.2,4.7-0.7c1.7-2.1,2.6-4.4,3.1-7
	c0.3-1.6-0.4-3.4-1.6-3.8C53.8,22.7,52.4,22.2,50.9,22.2z M46.8,10.9c8,4.7,13.2,11.4,15.1,20.6C64.4,21.5,57.7,13.1,46.8,10.9z"/>
<path class="st1" d="M77.5,31c-0.3,0.1-0.7,0.2-1,0.4c-0.8,0.4-1.5,0.2-2.2-0.1c-0.5-0.5-0.9-0.9-1.4-1.4c-0.4-1.6-0.1-2.9,1.2-3.9
	c0.8-0.2,1.7-0.4,2.5-0.2c1.6,0.8,2.2,2.1,1.8,3.9C78.2,30,77.9,30.5,77.5,31z M76.5,29.7c0,0.3,0,0.9,0.5,0.6
	c0.4-0.2,0-0.7-0.2-1.1c0.1-0.5,0.1-1,0.2-1.4c0.1-0.7-0.3-1.1-0.8-1.2c-0.6-0.1-1.5-0.4-1.6,0.3c-0.2,1.1,0,2.3,0,3.7
	c0.9-0.6,0.3-1.4,0.9-1.7C76.1,28.8,76.2,29.5,76.5,29.7z"/>
<path class="st4" d="M8.6,31.3c0.5-5.8,2.9-10.7,6.3-15.2c1.3-1.8,2.8-3.3,5.1-3.7c0.6-0.1,1.2-0.3,1.7,0.3c0.5,0.6,0.2,1.2-0.2,1.7
	c-4.2,5.3-5.9,11.5-7.2,17.9c-0.6,2.4-1.3,3.1-2.7,3C9.8,35.1,8.6,33.5,8.6,31.3z"/>
<path class="st3" d="M50.9,22.2c1.5,0,3,0.5,4.3,0.9c1.2,0.4,1.9,2.2,1.6,3.8c-0.5,2.6-1.5,4.9-3.1,7C52.2,35.8,51,36,49,34.7
	c-2.9-2-4.5-4.8-5.4-8.1c-0.3-1,0-1.8,1-2.4C46.6,23,48.6,22.4,50.9,22.2z M51.2,23.9c-1.8,0.1-3.4,0.6-4.9,1.3
	c-0.7,0.4-1,0.9-0.7,1.8c0.8,2.5,2.2,4.5,4.3,6.1c1,0.7,1.6,0.6,2.4-0.3c1.6-1.8,2.3-3.8,2.9-6c0.4-1.5-0.3-2.1-1.5-2.4
	C52.8,24.1,51.9,24.1,51.2,23.9z"/>
<path class="st3" d="M46.8,10.9c10.9,2.2,17.7,10.7,15.1,20.6C60,22.3,54.7,15.6,46.8,10.9z"/>
<path class="st0" d="M76.5,29.7c-0.3-0.2-0.4-0.9-1-0.7c-0.6,0.2,0,1.1-0.9,1.7c0-1.4-0.1-2.6,0-3.7c0.1-0.7,1.1-0.4,1.6-0.3
	s1,0.5,0.8,1.2c-0.1,0.5-0.2,1-0.2,1.4C76.7,29.4,76.6,29.6,76.5,29.7z M75.8,27c-0.4,0-0.6,0.2-0.6,0.6c0,0.3,0,0.7,0.5,0.7
	c0.4,0,0.8-0.2,0.8-0.6C76.4,27.3,76.2,27.1,75.8,27z"/>
<path class="st0" d="M76.5,29.7c0.1-0.1,0.2-0.3,0.3-0.5c0.1,0.4,0.6,0.9,0.2,1.1C76.5,30.6,76.5,30.1,76.5,29.7z"/>
<path class="st4" d="M51.2,23.9c0.7,0.1,1.6,0.2,2.4,0.4c1.2,0.4,1.8,1,1.5,2.4c-0.6,2.2-1.2,4.3-2.9,6c-0.8,0.8-1.4,1-2.4,0.3
	c-2.1-1.6-3.5-3.6-4.3-6.1c-0.3-0.9,0-1.3,0.7-1.8C47.7,24.5,49.3,24,51.2,23.9z"/>
<path class="st1" d="M75.8,27c0.3,0.1,0.6,0.3,0.6,0.6c0,0.5-0.4,0.6-0.8,0.6c-0.5,0-0.5-0.4-0.5-0.7C75.2,27.2,75.4,27,75.8,27z"/>
</svg>
