<svg xmlns="http://www.w3.org/2000/svg" version="1.1" xmlns:xlink="http://www.w3.org/1999/xlink" xmlns:svgjs="http://svgjs.com/svgjs" width="512" height="512" x="0" y="0" viewBox="0 0 510 510" style="enable-background:new 0 0 512 512" xml:space="preserve"><defs><linearGradient id="SVGID_1_" gradientUnits="userSpaceOnUse" x1="72.721" x2="105.721" xlink:href="#lg1" y1="363.436" y2="408.936"></linearGradient><linearGradient id="SVGID_00000096059282872428830480000011499915508092298421_" gradientUnits="userSpaceOnUse" x1="69.716" x2="121.716" xlink:href="#lg2" y1="392.617" y2="416.617"></linearGradient><linearGradient id="SVGID_00000073683785649861447540000008250512956081955738_" gradientUnits="userSpaceOnUse" x1="38.872" x2="93.372" xlink:href="#lg1" y1="324.652" y2="365.152"></linearGradient><linearGradient id="SVGID_00000134940357196594510090000005070891299847048597_" gradientUnits="userSpaceOnUse" x1="61.72" x2="103.053" xlink:href="#lg2" y1="369.953" y2="369.287"></linearGradient><linearGradient id="SVGID_00000024720307053842855310000017122229594761748638_" gradientUnits="userSpaceOnUse" x1="148.363" x2="135.863" xlink:href="#lg1" y1="231.487" y2="288.987"></linearGradient><linearGradient id="SVGID_00000056407699143955633300000011206899048651824294_" gradientUnits="userSpaceOnUse" x1="94.349" x2="126.349" xlink:href="#lg2" y1="237.278" y2="269.944"></linearGradient><linearGradient id="SVGID_00000065793722268671470680000008096832128208309381_" gradientUnits="userSpaceOnUse" x1="75.128" x2="102.628" xlink:href="#lg1" y1="245.299" y2="331.299"></linearGradient><linearGradient id="SVGID_00000059275438799995172830000016531008987520891032_" gradientUnits="userSpaceOnUse" x1="80.669" x2="116.002" xlink:href="#lg2" y1="292.128" y2="322.795"></linearGradient><linearGradient id="SVGID_00000106137019791307634060000011746670599169048971_" gradientTransform="matrix(-1 0 0 1 1251.452 0)" gradientUnits="userSpaceOnUse" x1="814.174" x2="847.174" xlink:href="#lg1" y1="363.436" y2="408.936"></linearGradient><linearGradient id="SVGID_00000108999361436644517730000018021148800200361112_" gradientTransform="matrix(-1 0 0 1 1251.452 0)" gradientUnits="userSpaceOnUse" x1="811.168" x2="863.168" xlink:href="#lg2" y1="392.617" y2="416.617"></linearGradient><linearGradient id="SVGID_00000092453463080795751720000011023797112814379146_" gradientTransform="matrix(-1 0 0 1 1251.452 0)" gradientUnits="userSpaceOnUse" x1="780.324" x2="834.824" xlink:href="#lg1" y1="324.652" y2="365.152"></linearGradient><linearGradient id="SVGID_00000134932119374335817800000012118356890046906786_" gradientTransform="matrix(-1 0 0 1 1251.452 0)" gradientUnits="userSpaceOnUse" x1="803.172" x2="844.505" xlink:href="#lg2" y1="369.953" y2="369.287"></linearGradient><linearGradient id="SVGID_00000163039852097225205830000007347204393334895758_" gradientTransform="matrix(-1 0 0 1 1251.452 0)" gradientUnits="userSpaceOnUse" x1="889.815" x2="877.315" xlink:href="#lg1" y1="231.487" y2="288.987"></linearGradient><linearGradient id="SVGID_00000146463504554978784560000013389406356789528744_" gradientTransform="matrix(-1 0 0 1 1251.452 0)" gradientUnits="userSpaceOnUse" x1="835.801" x2="867.801" xlink:href="#lg2" y1="237.278" y2="269.944"></linearGradient><linearGradient id="SVGID_00000044859753002549876840000017467840226869347220_" gradientTransform="matrix(-1 0 0 1 1251.452 0)" gradientUnits="userSpaceOnUse" x1="816.58" x2="844.08" xlink:href="#lg1" y1="245.299" y2="331.299"></linearGradient><linearGradient id="SVGID_00000181057043746700985070000015378480368081286274_" gradientTransform="matrix(-1 0 0 1 1251.452 0)" gradientUnits="userSpaceOnUse" x1="822.121" x2="857.454" xlink:href="#lg2" y1="292.128" y2="322.795"></linearGradient><linearGradient id="SVGID_00000088105730694926041990000001992194922937344411_" gradientUnits="userSpaceOnUse" x1="156.954" x2="324.67" xlink:href="#lg1" y1="252.928" y2="420.644"></linearGradient><linearGradient id="SVGID_00000071561108277057066190000002073201051477929602_" gradientUnits="userSpaceOnUse" x1="337.326" x2="170.272" xlink:href="#lg1" y1="433.3" y2="266.246"></linearGradient><linearGradient id="SVGID_00000183233500541831055180000017552257388645439122_" gradientUnits="userSpaceOnUse" x1="175.891" x2="306.108" xlink:href="#lg1" y1="271.865" y2="402.082"></linearGradient><linearGradient id="SVGID_00000000918316877099873730000010553891599411407010_" gradientUnits="userSpaceOnUse" x1="255" x2="255" xlink:href="#lg2" y1="397.502" y2="501.882"></linearGradient><linearGradient id="SVGID_00000157305474378843298190000010909739780281153671_" gradientUnits="userSpaceOnUse" x1="350.243" x2="218.909" xlink:href="#lg2" y1="433.62" y2="350.953"></linearGradient><linearGradient id="SVGID_00000067202837751582379400000015304590177670947213_" gradientUnits="userSpaceOnUse" x1="221.874" x2="281.61" xlink:href="#lg3" y1="320.747" y2="380.482"></linearGradient><linearGradient id="SVGID_00000000902500109731794170000005408833589533994920_" gradientUnits="userSpaceOnUse" x1="290.793" x2="208.23" xlink:href="#lg4" y1="337.034" y2="371.166"></linearGradient><linearGradient id="SVGID_00000042016382380429756930000006447152958300983736_" gradientUnits="userSpaceOnUse" x1="269.236" x2="224.034" xlink:href="#lg4" y1="366.334" y2="346.961"></linearGradient><linearGradient id="SVGID_00000070079383850012534940000007842209833952310957_" gradientTransform="matrix(-1 0 0 1 2656.704 0)" gradientUnits="userSpaceOnUse" x1="2415.94" x2="2370.738" xlink:href="#lg4" y1="366.334" y2="346.961"></linearGradient><linearGradient id="SVGID_00000003810618284389568970000007269385251155011976_" gradientUnits="userSpaceOnUse" x1="241.769" x2="270.827" xlink:href="#lg4" y1="368.601" y2="321.9"></linearGradient><linearGradient id="SVGID_00000088117070798342456960000000833263787283560852_" gradientUnits="userSpaceOnUse" x1="266.003" x2="263.582" xlink:href="#lg4" y1="362.703" y2="317.04"></linearGradient><linearGradient id="SVGID_00000043433326417433653380000002907659520825269921_" gradientUnits="userSpaceOnUse" x1="333.364" x2="272.031" xlink:href="#lg2" y1="283.792" y2="176.459"></linearGradient><linearGradient id="SVGID_00000041990815809659017320000013912070958971954832_" gradientUnits="userSpaceOnUse" x1="262.112" x2="301.612" y1="56.676" y2="119.676"><stop offset="0" stop-color="#f9f5f3"></stop><stop offset="1" stop-color="#d8e8f0"></stop></linearGradient><linearGradient id="SVGID_00000017480474890867574070000004639875041324681874_" gradientUnits="userSpaceOnUse" x1="222.713" x2="345.38" xlink:href="#lg5" y1="-20.62" y2="120.046"></linearGradient><linearGradient id="SVGID_00000017502666571973420770000012434187902404561582_" gradientUnits="userSpaceOnUse" x1="255" x2="255" xlink:href="#lg6" y1="66.5" y2="33.466"></linearGradient><linearGradient id="SVGID_00000163063692234757140340000010092734682543963537_" gradientUnits="userSpaceOnUse" x1="196.655" x2="319.321" xlink:href="#lg5" y1="2.104" y2="142.77"></linearGradient><linearGradient id="SVGID_00000101086487707588144920000003385988987088475054_" gradientUnits="userSpaceOnUse" x1="292.995" x2="310.065" xlink:href="#lg6" y1="107.005" y2="124.075"></linearGradient><linearGradient id="SVGID_00000002375386552981520280000001346203996876177831_" gradientTransform="matrix(-1 0 0 1 1574 0)" gradientUnits="userSpaceOnUse" x1="1356.995" x2="1374.065" xlink:href="#lg6" y1="107.005" y2="124.075"></linearGradient><linearGradient id="SVGID_00000152234436945935641930000001615839193518459314_" gradientUnits="userSpaceOnUse" x1="341.686" x2="136.626" xlink:href="#lg1" y1="177.612" y2="-27.448"></linearGradient><linearGradient id="SVGID_00000151528649065452528880000003108432255969151413_" gradientUnits="userSpaceOnUse" x1="255" x2="255" xlink:href="#lg1" y1="81.667" y2="221.706"></linearGradient><linearGradient id="SVGID_00000089576389922551553110000011323850583732677556_" gradientUnits="userSpaceOnUse" x1="255" x2="255" xlink:href="#lg2" y1="163" y2="209.044"></linearGradient><linearGradient id="SVGID_00000034771112367295652530000015120071156190649989_" gradientUnits="userSpaceOnUse" x1="302.267" x2="274.267" xlink:href="#lg2" y1="136.929" y2="165.429"></linearGradient><linearGradient id="SVGID_00000159436357136572823330000015128865034840501153_" gradientUnits="userSpaceOnUse" x1="233.5" x2="286.53" xlink:href="#lg3" y1="168.5" y2="221.53"></linearGradient><linearGradient id="SVGID_00000091696865153676864420000003054716083236435892_" gradientUnits="userSpaceOnUse" x1="276" x2="226.323" xlink:href="#lg3" y1="211" y2="161.323"></linearGradient><linearGradient id="SVGID_00000155121582527183284030000010332501736471910306_" gradientUnits="userSpaceOnUse" x1="255" x2="255" xlink:href="#lg1" y1="11.333" y2="32.171"></linearGradient></defs><g><linearGradient id="lg1"><stop offset="0" stop-color="#fef0ae"></stop><stop offset="1" stop-color="#fbc56d"></stop></linearGradient><linearGradient id="SVGID_1_" gradientUnits="userSpaceOnUse" x1="72.721" x2="105.721" xlink:href="#lg1" y1="363.436" y2="408.936"></linearGradient><linearGradient id="lg2"><stop offset="0" stop-color="#dc8758" stop-opacity="0"></stop><stop offset=".9957" stop-color="#dc8758" stop-opacity=".996"></stop><stop offset="1" stop-color="#dc8758"></stop></linearGradient><linearGradient id="SVGID_00000096059282872428830480000011499915508092298421_" gradientUnits="userSpaceOnUse" x1="69.716" x2="121.716" xlink:href="#lg2" y1="392.617" y2="416.617"></linearGradient><linearGradient id="SVGID_00000073683785649861447540000008250512956081955738_" gradientUnits="userSpaceOnUse" x1="38.872" x2="93.372" xlink:href="#lg1" y1="324.652" y2="365.152"></linearGradient><linearGradient id="SVGID_00000134940357196594510090000005070891299847048597_" gradientUnits="userSpaceOnUse" x1="61.72" x2="103.053" xlink:href="#lg2" y1="369.953" y2="369.287"></linearGradient><linearGradient id="SVGID_00000024720307053842855310000017122229594761748638_" gradientUnits="userSpaceOnUse" x1="148.363" x2="135.863" xlink:href="#lg1" y1="231.487" y2="288.987"></linearGradient><linearGradient id="SVGID_00000056407699143955633300000011206899048651824294_" gradientUnits="userSpaceOnUse" x1="94.349" x2="126.349" xlink:href="#lg2" y1="237.278" y2="269.944"></linearGradient><linearGradient id="SVGID_00000065793722268671470680000008096832128208309381_" gradientUnits="userSpaceOnUse" x1="75.128" x2="102.628" xlink:href="#lg1" y1="245.299" y2="331.299"></linearGradient><linearGradient id="SVGID_00000059275438799995172830000016531008987520891032_" gradientUnits="userSpaceOnUse" x1="80.669" x2="116.002" xlink:href="#lg2" y1="292.128" y2="322.795"></linearGradient><linearGradient id="SVGID_00000106137019791307634060000011746670599169048971_" gradientTransform="matrix(-1 0 0 1 1251.452 0)" gradientUnits="userSpaceOnUse" x1="814.174" x2="847.174" xlink:href="#lg1" y1="363.436" y2="408.936"></linearGradient><linearGradient id="SVGID_00000108999361436644517730000018021148800200361112_" gradientTransform="matrix(-1 0 0 1 1251.452 0)" gradientUnits="userSpaceOnUse" x1="811.168" x2="863.168" xlink:href="#lg2" y1="392.617" y2="416.617"></linearGradient><linearGradient id="SVGID_00000092453463080795751720000011023797112814379146_" gradientTransform="matrix(-1 0 0 1 1251.452 0)" gradientUnits="userSpaceOnUse" x1="780.324" x2="834.824" xlink:href="#lg1" y1="324.652" y2="365.152"></linearGradient><linearGradient id="SVGID_00000134932119374335817800000012118356890046906786_" gradientTransform="matrix(-1 0 0 1 1251.452 0)" gradientUnits="userSpaceOnUse" x1="803.172" x2="844.505" xlink:href="#lg2" y1="369.953" y2="369.287"></linearGradient><linearGradient id="SVGID_00000163039852097225205830000007347204393334895758_" gradientTransform="matrix(-1 0 0 1 1251.452 0)" gradientUnits="userSpaceOnUse" x1="889.815" x2="877.315" xlink:href="#lg1" y1="231.487" y2="288.987"></linearGradient><linearGradient id="SVGID_00000146463504554978784560000013389406356789528744_" gradientTransform="matrix(-1 0 0 1 1251.452 0)" gradientUnits="userSpaceOnUse" x1="835.801" x2="867.801" xlink:href="#lg2" y1="237.278" y2="269.944"></linearGradient><linearGradient id="SVGID_00000044859753002549876840000017467840226869347220_" gradientTransform="matrix(-1 0 0 1 1251.452 0)" gradientUnits="userSpaceOnUse" x1="816.58" x2="844.08" xlink:href="#lg1" y1="245.299" y2="331.299"></linearGradient><linearGradient id="SVGID_00000181057043746700985070000015378480368081286274_" gradientTransform="matrix(-1 0 0 1 1251.452 0)" gradientUnits="userSpaceOnUse" x1="822.121" x2="857.454" xlink:href="#lg2" y1="292.128" y2="322.795"></linearGradient><linearGradient id="SVGID_00000088105730694926041990000001992194922937344411_" gradientUnits="userSpaceOnUse" x1="156.954" x2="324.67" xlink:href="#lg1" y1="252.928" y2="420.644"></linearGradient><linearGradient id="SVGID_00000071561108277057066190000002073201051477929602_" gradientUnits="userSpaceOnUse" x1="337.326" x2="170.272" xlink:href="#lg1" y1="433.3" y2="266.246"></linearGradient><linearGradient id="SVGID_00000183233500541831055180000017552257388645439122_" gradientUnits="userSpaceOnUse" x1="175.891" x2="306.108" xlink:href="#lg1" y1="271.865" y2="402.082"></linearGradient><linearGradient id="SVGID_00000000918316877099873730000010553891599411407010_" gradientUnits="userSpaceOnUse" x1="255" x2="255" xlink:href="#lg2" y1="397.502" y2="501.882"></linearGradient><linearGradient id="SVGID_00000157305474378843298190000010909739780281153671_" gradientUnits="userSpaceOnUse" x1="350.243" x2="218.909" xlink:href="#lg2" y1="433.62" y2="350.953"></linearGradient><linearGradient id="lg3"><stop offset="0" stop-color="#fbc56d"></stop><stop offset="1" stop-color="#c5715a"></stop></linearGradient><linearGradient id="SVGID_00000067202837751582379400000015304590177670947213_" gradientUnits="userSpaceOnUse" x1="221.874" x2="281.61" xlink:href="#lg3" y1="320.747" y2="380.482"></linearGradient><linearGradient id="lg4"><stop offset="0" stop-color="#8c3d27" stop-opacity="0"></stop><stop offset="1" stop-color="#8c3d27"></stop></linearGradient><linearGradient id="SVGID_00000000902500109731794170000005408833589533994920_" gradientUnits="userSpaceOnUse" x1="290.793" x2="208.23" xlink:href="#lg4" y1="337.034" y2="371.166"></linearGradient><linearGradient id="SVGID_00000042016382380429756930000006447152958300983736_" gradientUnits="userSpaceOnUse" x1="269.236" x2="224.034" xlink:href="#lg4" y1="366.334" y2="346.961"></linearGradient><linearGradient id="SVGID_00000070079383850012534940000007842209833952310957_" gradientTransform="matrix(-1 0 0 1 2656.704 0)" gradientUnits="userSpaceOnUse" x1="2415.94" x2="2370.738" xlink:href="#lg4" y1="366.334" y2="346.961"></linearGradient><linearGradient id="SVGID_00000003810618284389568970000007269385251155011976_" gradientUnits="userSpaceOnUse" x1="241.769" x2="270.827" xlink:href="#lg4" y1="368.601" y2="321.9"></linearGradient><linearGradient id="SVGID_00000088117070798342456960000000833263787283560852_" gradientUnits="userSpaceOnUse" x1="266.003" x2="263.582" xlink:href="#lg4" y1="362.703" y2="317.04"></linearGradient><linearGradient id="SVGID_00000043433326417433653380000002907659520825269921_" gradientUnits="userSpaceOnUse" x1="333.364" x2="272.031" xlink:href="#lg2" y1="283.792" y2="176.459"></linearGradient><linearGradient id="SVGID_00000041990815809659017320000013912070958971954832_" gradientUnits="userSpaceOnUse" x1="262.112" x2="301.612" y1="56.676" y2="119.676"><stop offset="0" stop-color="#f9f5f3"></stop><stop offset="1" stop-color="#d8e8f0"></stop></linearGradient><linearGradient id="lg5"><stop offset="0" stop-color="#fd4755"></stop><stop offset="1" stop-color="#a72b2b"></stop></linearGradient><linearGradient id="SVGID_00000017480474890867574070000004639875041324681874_" gradientUnits="userSpaceOnUse" x1="222.713" x2="345.38" xlink:href="#lg5" y1="-20.62" y2="120.046"></linearGradient><linearGradient id="lg6"><stop offset="0" stop-color="#a72b2b" stop-opacity="0"></stop><stop offset="1" stop-color="#42210b"></stop></linearGradient><linearGradient id="SVGID_00000017502666571973420770000012434187902404561582_" gradientUnits="userSpaceOnUse" x1="255" x2="255" xlink:href="#lg6" y1="66.5" y2="33.466"></linearGradient><linearGradient id="SVGID_00000163063692234757140340000010092734682543963537_" gradientUnits="userSpaceOnUse" x1="196.655" x2="319.321" xlink:href="#lg5" y1="2.104" y2="142.77"></linearGradient><linearGradient id="SVGID_00000101086487707588144920000003385988987088475054_" gradientUnits="userSpaceOnUse" x1="292.995" x2="310.065" xlink:href="#lg6" y1="107.005" y2="124.075"></linearGradient><linearGradient id="SVGID_00000002375386552981520280000001346203996876177831_" gradientTransform="matrix(-1 0 0 1 1574 0)" gradientUnits="userSpaceOnUse" x1="1356.995" x2="1374.065" xlink:href="#lg6" y1="107.005" y2="124.075"></linearGradient><linearGradient id="SVGID_00000152234436945935641930000001615839193518459314_" gradientUnits="userSpaceOnUse" x1="341.686" x2="136.626" xlink:href="#lg1" y1="177.612" y2="-27.448"></linearGradient><linearGradient id="SVGID_00000151528649065452528880000003108432255969151413_" gradientUnits="userSpaceOnUse" x1="255" x2="255" xlink:href="#lg1" y1="81.667" y2="221.706"></linearGradient><linearGradient id="SVGID_00000089576389922551553110000011323850583732677556_" gradientUnits="userSpaceOnUse" x1="255" x2="255" xlink:href="#lg2" y1="163" y2="209.044"></linearGradient><linearGradient id="SVGID_00000034771112367295652530000015120071156190649989_" gradientUnits="userSpaceOnUse" x1="302.267" x2="274.267" xlink:href="#lg2" y1="136.929" y2="165.429"></linearGradient><linearGradient id="SVGID_00000159436357136572823330000015128865034840501153_" gradientUnits="userSpaceOnUse" x1="233.5" x2="286.53" xlink:href="#lg3" y1="168.5" y2="221.53"></linearGradient><linearGradient id="SVGID_00000091696865153676864420000003054716083236435892_" gradientUnits="userSpaceOnUse" x1="276" x2="226.323" xlink:href="#lg3" y1="211" y2="161.323"></linearGradient><linearGradient id="SVGID_00000155121582527183284030000010332501736471910306_" gradientUnits="userSpaceOnUse" x1="255" x2="255" xlink:href="#lg1" y1="11.333" y2="32.171"></linearGradient><g><g><path d="m110.119 377.851c30.153 3.894 56.459 16.139 75.085 33.009 3.901 3.533 2.448 14.781-2.222 17.207-22.3 11.585-50.854 16.746-81.007 12.852s-56.459-16.139-75.085-33.009c-3.901-3.533-2.448-14.781 2.222-17.207 22.3-11.585 50.854-16.746 81.007-12.852z" fill="url(&quot;#SVGID_1_&quot;)" data-original="url(#SVGID_1_)"></path><path d="m110.119 377.851c30.153 3.894 56.459 16.139 75.085 33.009 3.901 3.533 2.448 14.781-2.222 17.207-22.3 11.585-50.854 16.746-81.007 12.852s-56.459-16.139-75.085-33.009c-3.901-3.533-2.448-14.781 2.222-17.207 22.3-11.585 50.854-16.746 81.007-12.852z" fill="url(&quot;#SVGID_00000096059282872428830480000011499915508092298421_&quot;)" data-original="url(#SVGID_00000096059282872428830480000011499915508092298421_)"></path><path d="m113.644 335.627c32.247 13.98 57.546 36.007 72.834 60.709 3.201 5.173-2.014 17.202-7.978 18.402-28.48 5.728-61.851 2.317-94.097-11.663-32.247-13.98-57.546-36.006-72.834-60.709-3.201-5.173 2.014-17.202 7.978-18.402 28.48-5.727 61.85-2.317 94.097 11.663z" fill="url(&quot;#SVGID_00000073683785649861447540000008250512956081955738_&quot;)" data-original="url(#SVGID_00000073683785649861447540000008250512956081955738_)"></path><path d="m113.644 335.627c32.247 13.98 57.546 36.007 72.834 60.709 3.201 5.173-2.014 17.202-7.978 18.402-28.48 5.728-61.851 2.317-94.097-11.663-32.247-13.98-57.546-36.006-72.834-60.709-3.201-5.173 2.014-17.202 7.978-18.402 28.48-5.727 61.85-2.317 94.097 11.663z" fill="url(&quot;#SVGID_00000134940357196594510090000005070891299847048597_&quot;)" data-original="url(#SVGID_00000134940357196594510090000005070891299847048597_)"></path><path d="m171.708 267.844c12.916 32.687 15.231 66.152 8.573 94.429-1.394 5.922-13.588 10.74-18.653 7.371-24.189-16.089-45.374-42.097-58.29-74.784s-15.231-66.152-8.573-94.429c1.394-5.922 13.588-10.74 18.653-7.371 24.189 16.088 45.374 42.096 58.29 74.784z" fill="url(&quot;#SVGID_00000024720307053842855310000017122229594761748638_&quot;)" data-original="url(#SVGID_00000024720307053842855310000017122229594761748638_)"></path><path d="m171.708 267.844c12.916 32.687 15.231 66.152 8.573 94.429-1.394 5.922-13.588 10.74-18.653 7.371-24.189-16.089-45.374-42.097-58.29-74.784s-15.231-66.152-8.573-94.429c1.394-5.922 13.588-10.74 18.653-7.371 24.189 16.088 45.374 42.096 58.29 74.784z" fill="url(&quot;#SVGID_00000056407699143955633300000011206899048651824294_&quot;)" data-original="url(#SVGID_00000056407699143955633300000011206899048651824294_)"></path><path d="m124.641 269.074c32.88 29.56 54.259 65.943 62.625 101.518 1.752 7.45-9.275 19.716-16.869 18.764-36.262-4.547-74.706-21.947-107.586-51.508-32.88-29.56-54.259-65.943-62.625-101.518-1.752-7.45 9.275-19.716 16.869-18.764 36.261 4.547 74.706 21.948 107.586 51.508z" fill="url(&quot;#SVGID_00000065793722268671470680000008096832128208309381_&quot;)" data-original="url(#SVGID_00000065793722268671470680000008096832128208309381_)"></path><path d="m15.249 276.751c11.185 21.777 27.157 42.751 47.563 61.097 32.88 29.56 71.324 46.961 107.586 51.508 7.594.952 18.621-11.313 16.869-18.764-8.366-35.575-29.745-71.958-62.625-101.518-19.361-17.407-40.653-30.592-62.291-39.424z" fill="url(&quot;#SVGID_00000059275438799995172830000016531008987520891032_&quot;)" data-original="url(#SVGID_00000059275438799995172830000016531008987520891032_)"></path></g><g><path d="m399.881 377.851c-30.153 3.894-56.459 16.139-75.085 33.009-3.901 3.533-2.448 14.781 2.222 17.207 22.3 11.585 50.854 16.746 81.007 12.852s56.459-16.139 75.085-33.009c3.901-3.533 2.448-14.781-2.222-17.207-22.3-11.585-50.854-16.746-81.007-12.852z" fill="url(&quot;#SVGID_00000106137019791307634060000011746670599169048971_&quot;)" data-original="url(#SVGID_00000106137019791307634060000011746670599169048971_)"></path><path d="m399.881 377.851c-30.153 3.894-56.459 16.139-75.085 33.009-3.901 3.533-2.448 14.781 2.222 17.207 22.3 11.585 50.854 16.746 81.007 12.852s56.459-16.139 75.085-33.009c3.901-3.533 2.448-14.781-2.222-17.207-22.3-11.585-50.854-16.746-81.007-12.852z" fill="url(&quot;#SVGID_00000108999361436644517730000018021148800200361112_&quot;)" data-original="url(#SVGID_00000108999361436644517730000018021148800200361112_)"></path><path d="m396.356 335.627c-32.247 13.98-57.546 36.007-72.834 60.709-3.201 5.173 2.014 17.202 7.978 18.402 28.48 5.728 61.851 2.317 94.097-11.663 32.247-13.98 57.546-36.006 72.834-60.709 3.201-5.173-2.014-17.202-7.978-18.402-28.48-5.727-61.85-2.317-94.097 11.663z" fill="url(&quot;#SVGID_00000092453463080795751720000011023797112814379146_&quot;)" data-original="url(#SVGID_00000092453463080795751720000011023797112814379146_)"></path><path d="m396.356 335.627c-32.247 13.98-57.546 36.007-72.834 60.709-3.201 5.173 2.014 17.202 7.978 18.402 28.48 5.728 61.851 2.317 94.097-11.663 32.247-13.98 57.546-36.006 72.834-60.709 3.201-5.173-2.014-17.202-7.978-18.402-28.48-5.727-61.85-2.317-94.097 11.663z" fill="url(&quot;#SVGID_00000134932119374335817800000012118356890046906786_&quot;)" data-original="url(#SVGID_00000134932119374335817800000012118356890046906786_)"></path><path d="m338.292 267.844c-12.916 32.687-15.231 66.152-8.573 94.429 1.394 5.922 13.588 10.74 18.653 7.371 24.189-16.089 45.374-42.097 58.29-74.784s15.231-66.152 8.573-94.429c-1.394-5.922-13.588-10.74-18.653-7.371-24.189 16.088-45.374 42.096-58.29 74.784z" fill="url(&quot;#SVGID_00000163039852097225205830000007347204393334895758_&quot;)" data-original="url(#SVGID_00000163039852097225205830000007347204393334895758_)"></path><path d="m338.292 267.844c-12.916 32.687-15.231 66.152-8.573 94.429 1.394 5.922 13.588 10.74 18.653 7.371 24.189-16.089 45.374-42.097 58.29-74.784s15.231-66.152 8.573-94.429c-1.394-5.922-13.588-10.74-18.653-7.371-24.189 16.088-45.374 42.096-58.29 74.784z" fill="url(&quot;#SVGID_00000146463504554978784560000013389406356789528744_&quot;)" data-original="url(#SVGID_00000146463504554978784560000013389406356789528744_)"></path><path d="m385.359 269.074c-32.88 29.56-54.259 65.943-62.625 101.518-1.752 7.45 9.275 19.716 16.869 18.764 36.262-4.547 74.706-21.947 107.586-51.508 32.88-29.56 54.259-65.943 62.625-101.518 1.752-7.45-9.275-19.716-16.869-18.764-36.261 4.547-74.706 21.948-107.586 51.508z" fill="url(&quot;#SVGID_00000044859753002549876840000017467840226869347220_&quot;)" data-original="url(#SVGID_00000044859753002549876840000017467840226869347220_)"></path><path d="m494.751 276.751c-11.185 21.777-27.157 42.751-47.563 61.097-32.88 29.56-71.324 46.961-107.586 51.508-7.594.952-18.621-11.313-16.869-18.764 8.366-35.575 29.745-71.958 62.625-101.518 19.361-17.407 40.653-30.592 62.291-39.424z" fill="url(&quot;#SVGID_00000181057043746700985070000015378480368081286274_&quot;)" data-original="url(#SVGID_00000181057043746700985070000015378480368081286274_)"></path></g><g><circle cx="255" cy="350.974" fill="url(&quot;#SVGID_00000088105730694926041990000001992194922937344411_&quot;)" r="159.026" data-original="url(#SVGID_00000088105730694926041990000001992194922937344411_)"></circle><circle cx="255" cy="350.974" fill="url(&quot;#SVGID_00000071561108277057066190000002073201051477929602_&quot;)" r="126.755" data-original="url(#SVGID_00000071561108277057066190000002073201051477929602_)"></circle><circle cx="255" cy="350.974" fill="url(&quot;#SVGID_00000183233500541831055180000017552257388645439122_&quot;)" r="108.82" data-original="url(#SVGID_00000183233500541831055180000017552257388645439122_)"></circle><path d="m95.974 350.974c0 87.828 71.198 159.026 159.026 159.026s159.026-71.198 159.026-159.026c0-.617-.016-1.23-.023-1.846h-318.006c-.007.616-.023 1.229-.023 1.846z" fill="url(&quot;#SVGID_00000000918316877099873730000010553891599411407010_&quot;)" data-original="url(#SVGID_00000000918316877099873730000010553891599411407010_)"></path></g><path d="m299.601 503.65c50.109-14.614 89.983-53.219 106.356-102.552l-77.453-77.453-17.461.857-47.126-47.126-57.435 133.155z" fill="url(&quot;#SVGID_00000157305474378843298190000010909739780281153671_&quot;)" data-original="url(#SVGID_00000157305474378843298190000010909739780281153671_)"></path><g><path d="m320.208 316.419-31.187-7.535c-2.901-.701-5.436-2.46-7.109-4.932l-17.978-26.575c-2.175-3.214-5.506-4.939-8.934-5.217-3.428.278-6.76 2.003-8.934 5.217l-17.978 26.575c-1.672 2.472-4.207 4.231-7.109 4.932l-31.187 7.535c-8.46 2.044-11.985 12.141-6.637 19.007l19.719 25.31c1.834 2.355 2.724 5.309 2.494 8.285l-2.471 31.989c-.67 8.677 7.843 15.151 16.026 12.185l30.165-10.932c1.906-.691 3.939-.869 5.912-.563 1.974-.305 4.006-.127 5.912.563l30.165 10.932c8.182 2.965 16.696-3.508 16.026-12.185l-2.471-31.989c-.23-2.976.66-5.93 2.494-8.285l19.719-25.31c5.348-6.866 1.823-16.963-6.637-19.007z" fill="url(&quot;#SVGID_00000067202837751582379400000015304590177670947213_&quot;)" data-original="url(#SVGID_00000067202837751582379400000015304590177670947213_)"></path><path d="m260.912 402.263 30.165 10.932c8.182 2.965 16.696-3.508 16.026-12.185l-2.471-31.989c-.23-2.976.66-5.93 2.494-8.285l19.719-25.31c5.349-6.865 1.823-16.963-6.637-19.007l-31.187-7.535c-2.901-.701-5.436-2.46-7.109-4.932l-17.978-26.575c-2.175-3.214-5.506-4.939-8.934-5.217v129.54c1.974-.306 4.007-.128 5.912.563z" fill="url(&quot;#SVGID_00000000902500109731794170000005408833589533994920_&quot;)" data-original="url(#SVGID_00000000902500109731794170000005408833589533994920_)"></path><path d="m320.208 316.419-31.187-7.535c-1.065-.257-2.079-.66-3.02-1.185l-79.502 102.833c3.119 3.014 7.824 4.331 12.424 2.664l30.165-10.932c1.906-.691 3.939-.869 5.912-.563 1.974-.305 4.006-.127 5.912.563l30.165 10.932c8.182 2.965 16.696-3.508 16.026-12.185l-2.471-31.989c-.23-2.976.66-5.93 2.494-8.285l19.719-25.31c5.348-6.867 1.823-16.964-6.637-19.008z" fill="url(&quot;#SVGID_00000042016382380429756930000006447152958300983736_&quot;)" data-original="url(#SVGID_00000042016382380429756930000006447152958300983736_)"></path><path d="m189.792 316.419 31.187-7.535c1.065-.257 2.079-.66 3.02-1.185l79.502 102.833c-3.119 3.014-7.824 4.331-12.424 2.664l-30.165-10.932c-1.906-.691-3.939-.869-5.912-.563-1.974-.305-4.006-.127-5.912.563l-30.165 10.932c-8.182 2.965-16.696-3.508-16.026-12.185l2.471-31.989c.23-2.976-.66-5.93-2.494-8.285l-19.719-25.31c-5.348-6.867-1.823-16.964 6.637-19.008z" fill="url(&quot;#SVGID_00000070079383850012534940000007842209833952310957_&quot;)" data-original="url(#SVGID_00000070079383850012534940000007842209833952310957_)"></path><path d="m181.491 323.646c-1.483 3.74-1.127 8.197 1.664 11.78l19.719 25.31c1.834 2.355 2.724 5.309 2.494 8.285l-2.471 31.989c-.67 8.677 7.843 15.151 16.026 12.185l30.165-10.932c1.906-.691 3.939-.869 5.912-.563 1.974-.305 4.006-.127 5.912.563l30.165 10.932c8.182 2.965 16.696-3.508 16.026-12.185l-2.471-31.989c-.128-1.651.101-3.292.633-4.831z" fill="url(&quot;#SVGID_00000003810618284389568970000007269385251155011976_&quot;)" data-original="url(#SVGID_00000003810618284389568970000007269385251155011976_)"></path><path d="m328.521 323.646c1.483 3.74 1.128 8.197-1.664 11.78l-19.719 25.31c-1.834 2.355-2.724 5.309-2.494 8.285l2.471 31.989c.67 8.677-7.844 15.151-16.026 12.185l-30.165-10.932c-1.906-.691-3.939-.869-5.912-.563-1.974-.305-4.006-.127-5.912.563l-30.165 10.932c-8.182 2.965-16.696-3.508-16.026-12.185l2.471-31.989c.128-1.651-.101-3.292-.633-4.831z" fill="url(&quot;#SVGID_00000088117070798342456960000000833263787283560852_&quot;)" data-original="url(#SVGID_00000088117070798342456960000000833263787283560852_)"></path></g><path d="m255 191.948c-.66 0-1.315.017-1.973.025l-24.542 24.542 179.161 179.161c4.146-14.182 6.38-29.181 6.38-44.703 0-87.827-71.198-159.025-159.026-159.025z" fill="url(&quot;#SVGID_00000043433326417433653380000002907659520825269921_&quot;)" data-original="url(#SVGID_00000043433326417433653380000002907659520825269921_)"></path><g><path d="m159 3.333v84l96 96 96-96v-84z" fill="url(&quot;#SVGID_00000041990815809659017320000013912070958971954832_&quot;)" data-original="url(#SVGID_00000041990815809659017320000013912070958971954832_)"></path><g><path d="m159 3.333v26.142l95.679 95.679c.177.177.465.177.642 0l95.679-95.679v-26.142z" fill="url(&quot;#SVGID_00000017480474890867574070000004639875041324681874_&quot;)" data-original="url(#SVGID_00000017480474890867574070000004639875041324681874_)"></path><path d="m159 3.333v26.142l95.679 95.679c.177.177.465.177.642 0l95.679-95.679v-26.142z" fill="url(&quot;#SVGID_00000017502666571973420770000012434187902404561582_&quot;)" data-original="url(#SVGID_00000017502666571973420770000012434187902404561582_)"></path><path d="m255 140.28c-3.958 0-7.915-1.506-10.927-4.519l-85.073-85.073v36.646l96 96 96-96v-36.646l-85.073 85.073c-3.012 3.012-6.969 4.519-10.927 4.519z" fill="url(&quot;#SVGID_00000163063692234757140340000010092734682543963537_&quot;)" data-original="url(#SVGID_00000163063692234757140340000010092734682543963537_)"></path><path d="m255 140.28c-3.958 0-7.915-1.506-10.927-4.519l-85.073-85.073v36.646l96 96 96-96v-36.646l-85.073 85.073c-3.012 3.012-6.969 4.519-10.927 4.519z" fill="url(&quot;#SVGID_00000101086487707588144920000003385988987088475054_&quot;)" data-original="url(#SVGID_00000101086487707588144920000003385988987088475054_)"></path><path d="m255 140.28c3.958 0 7.915-1.506 10.927-4.519l85.073-85.073v36.646l-96 96-96-96v-36.646l85.073 85.073c3.012 3.012 6.97 4.519 10.927 4.519z" fill="url(&quot;#SVGID_00000002375386552981520280000001346203996876177831_&quot;)" data-original="url(#SVGID_00000002375386552981520280000001346203996876177831_)"></path></g><g><path d="m244.473 161.527-81.694-81.694c-6.126-6.126-16.059-6.126-22.185 0-6.126 6.126-6.126 16.059 0 22.185l114.406 114.408 114.407-114.407c6.126-6.126 6.126-16.059 0-22.185-6.126-6.126-16.059-6.126-22.185 0l-81.694 81.694c-5.815 5.814-15.241 5.814-21.055-.001z" fill="url(&quot;#SVGID_00000152234436945935641930000001615839193518459314_&quot;)" data-original="url(#SVGID_00000152234436945935641930000001615839193518459314_)"></path><path d="m140.593 80.019 102.361 102.361c6.653 6.653 17.44 6.653 24.093 0l102.36-102.361c.03-.03.054-.063.084-.093-.029-.03-.054-.063-.084-.093-6.126-6.126-16.059-6.126-22.185 0l-81.694 81.694c-5.814 5.814-15.241 5.814-21.055 0l-81.694-81.694c-6.126-6.126-16.059-6.126-22.185 0-.03.03-.054.063-.084.093.029.03.053.063.083.093z" fill="url(&quot;#SVGID_00000151528649065452528880000003108432255969151413_&quot;)" data-original="url(#SVGID_00000151528649065452528880000003108432255969151413_)"></path><path d="m255 216.426 80.759-80.759h-44.371l-25.861 25.861c-5.814 5.814-15.241 5.814-21.055 0l-25.861-25.861h-44.371z" fill="url(&quot;#SVGID_00000089576389922551553110000011323850583732677556_&quot;)" data-original="url(#SVGID_00000089576389922551553110000011323850583732677556_)"></path><path d="m245 206.426 10 10 102.426-102.426h-44.371l-47.527 47.527c-5.645 5.645-14.684 5.792-20.528.477z" fill="url(&quot;#SVGID_00000034771112367295652530000015120071156190649989_&quot;)" data-original="url(#SVGID_00000034771112367295652530000015120071156190649989_)"></path></g><g><circle cx="255" cy="190" fill="url(&quot;#SVGID_00000159436357136572823330000015128865034840501153_&quot;)" r="37.498" data-original="url(#SVGID_00000159436357136572823330000015128865034840501153_)"></circle><circle cx="255" cy="190" fill="url(&quot;#SVGID_00000091696865153676864420000003054716083236435892_&quot;)" r="21.498" data-original="url(#SVGID_00000091696865153676864420000003054716083236435892_)"></circle></g><path d="m365.502 37.333h-221.004c-6.35 0-11.498-5.148-11.498-11.498v-14.337c0-6.35 5.148-11.498 11.498-11.498h221.005c6.349 0 11.497 5.148 11.497 11.498v14.338c0 6.35-5.148 11.497-11.498 11.497z" fill="url(&quot;#SVGID_00000155121582527183284030000010332501736471910306_&quot;)" data-original="url(#SVGID_00000155121582527183284030000010332501736471910306_)"></path></g></g></g></svg>