<svg xmlns="http://www.w3.org/2000/svg" version="1.1" xmlns:xlink="http://www.w3.org/1999/xlink" xmlns:svgjs="http://svgjs.com/svgjs" width="512" height="512" x="0" y="0" viewBox="0 0 512 512" style="enable-background:new 0 0 512 512" xml:space="preserve"><g><path d="m256 0c-140.959 0-256 115.05-256 256 0 140.959 115.05 256 256 256 140.959 0 256-115.05 256-256 0-140.959-115.05-256-256-256zm-75.947 43.143c-17.51 22.374-30.148 50.053-38.875 76.857h-65.556c26.349-34.861 62.553-61.87 104.431-76.857zm-123.6 106.847h76.355c-6.684 28.421-10.629 59.191-11.576 91.01h-90.722c2.154-32.707 11.293-63.533 25.943-91.01zm-25.943 121.01h90.722c.935 31.448 4.803 61.866 11.346 90h-76.654c-14.34-27.215-23.286-57.689-25.414-90zm44.349 120h65.993c8.767 27.206 21.52 55.263 39.201 77.857-42.28-15.131-78.783-42.51-105.194-77.857zm166.141 88.434c-33.62-11.395-56.496-54.97-68.483-88.434h68.483zm0-118.434h-77.583c-7.018-27.741-11.176-58.238-12.174-90h89.757zm0-120h-89.757c1.01-32.145 5.259-62.992 12.432-91h77.325zm0-121h-68.124c11.999-33.122 34.769-76.129 68.124-87.434zm195.378 0h-65.556c-8.725-26.798-21.363-54.479-38.875-76.857 41.878 14.987 78.082 41.996 104.431 76.857zm-165.378-87.434c33.359 11.307 56.128 54.32 68.124 87.434h-68.124zm0 117.434h77.325c7.172 28.008 11.422 58.855 12.432 91h-89.757zm0 120.99h89.757c-.998 31.772-5.156 62.269-12.174 90.01h-77.583zm0 208.444v-88.444h68.483c-11.979 33.454-34.854 77.046-68.483 88.444zm60.947-10.577c17.683-22.596 30.435-50.655 39.201-77.867h65.993c-26.411 35.357-62.914 62.736-105.194 77.867zm124.129-107.857h-76.653c6.543-28.134 10.411-58.552 11.346-90.01h90.722c-2.129 32.321-11.075 62.795-25.415 90.01zm25.414-120h-90.722c-.947-31.819-4.892-62.589-11.576-91h76.355c14.65 27.467 23.789 58.293 25.943 91z" fill="#434340" data-original="#000000"></path></g></svg>