<svg width="229" height="95" viewBox="0 0 229 95" fill="none" xmlns="http://www.w3.org/2000/svg">
<path d="M188.396 0C190.656 0.64598 193.01 0.784405 195.224 1.70723C206.806 6.4598 213.496 15.1805 215.988 27.2696C216.357 29.1153 216.542 31.0071 216.68 32.8527C216.772 33.914 217.188 34.3754 218.203 34.6984C221.248 35.5751 224.386 36.4517 227.016 38.3897C227.8 38.9434 228.492 39.5432 228.723 40.5583C228.723 41.112 228.723 41.7119 228.769 42.2656C228.123 45.4032 225.632 46.7874 223.186 48.1717C220.233 49.7866 216.957 50.6633 213.773 51.5861C210.959 52.0937 208.144 52.6474 205.283 53.0627C202.884 53.4318 200.485 53.6164 198.085 53.8932C194.717 53.9394 191.349 53.9855 188.026 53.6625C184.104 53.2934 180.136 52.9242 176.214 52.5551C171.231 51.4939 166.248 50.3865 161.264 49.3252C159.188 48.7254 157.112 48.1255 155.174 47.2488C154.205 46.8336 153.282 46.326 152.405 45.7723C149.175 43.5575 148.391 40.4661 151.206 37.836C153.697 35.4828 153.882 32.8066 154.297 29.8535C156.004 17.5338 162.003 8.16704 173.4 2.63006C176.076 1.3381 178.89 0.64598 181.843 0.369132C182.443 0.461415 183.043 0.599839 183.551 0.0922833C185.073 3.50656e-07 186.734 0 188.396 0ZM212.435 34.7445C212.62 34.4215 212.897 34.3292 213.127 34.3292C214.696 34.4215 214.835 33.5448 214.742 32.2067C214.004 23.1169 210.682 15.2267 203.714 9.18215C195.04 1.61495 185.027 -0.415272 174.507 4.29116C162.233 9.78199 156.466 20.1177 155.82 33.3603C155.727 35.1136 155.635 36.5902 153.836 37.513C153.143 37.8821 152.682 38.7127 152.221 39.3587C150.929 41.3427 151.206 42.6347 153.19 44.0189C154.943 45.2186 156.881 46.003 158.911 46.6029C168.37 49.4636 178.106 50.9402 187.934 51.6784C198.316 52.4628 208.513 51.4477 218.387 48.1255C221.018 47.2488 223.555 46.0953 225.586 44.1112C227.431 42.3117 227.293 40.9736 225.17 39.5894C222.125 37.6053 218.618 37.0054 215.25 35.9442C214.281 35.6212 213.22 35.5751 212.435 34.7445Z" fill="#2F2D2E"/>
<path d="M0.138424 38.5742C0.461415 37.4207 0.830546 36.3133 1.06125 35.1598C1.24582 34.2369 1.79952 33.8678 2.6762 33.8678C4.61415 33.8678 6.55209 33.8678 8.49003 33.8678C10.2895 33.8678 10.428 34.1447 9.87427 35.8058C8.95144 38.3897 8.58231 41.0659 8.76688 43.7882C9.08987 48.3101 13.1042 52.3705 17.5338 52.7858C21.6865 53.2011 25.9315 50.1557 27.1773 45.9569C27.5464 44.8033 27.6387 43.5575 27.6387 42.3578C27.6387 38.0205 27.6387 33.7294 27.6387 29.3921C27.6387 27.0389 27.6387 27.0389 30.0381 27.0389C31.33 27.0389 32.5759 27.0389 33.8678 27.0389C36.3133 27.0389 36.3133 27.0389 36.3133 29.4382C36.3133 32.5297 36.3133 35.6212 36.3133 38.7588C36.3133 40.0969 36.5902 41.3889 37.3284 42.5424C37.19 42.6808 37.0516 42.7731 36.9132 42.9115C35.8058 41.8964 35.5751 40.5583 35.5751 39.1279C35.5751 35.898 35.5289 32.7143 35.6212 29.4844C35.6673 28.1463 35.2059 27.731 33.914 27.8233C32.5759 27.9156 31.2378 27.9156 29.9458 27.8233C28.6538 27.731 28.377 28.1924 28.377 29.4382C28.4231 34.1908 28.5154 38.9895 28.2847 43.7421C28.1001 48.0332 25.8392 51.1709 21.871 52.8781C15.3651 55.6004 8.1209 50.4787 7.84405 43.0961C7.75176 40.6506 8.16704 38.2513 8.95144 35.898C9.22829 35.0213 9.13601 34.5599 8.02861 34.6522C6.4598 34.7445 4.93714 34.7445 3.36833 34.6522C2.16865 34.5599 1.70723 35.1136 1.47653 36.1749C0.784405 39.3586 0.507556 42.5424 1.06125 45.7262C2.26093 52.5551 5.90611 57.5384 12.5505 59.8916C17.9029 61.7834 22.9784 60.7683 27.8694 58.1844C28.0079 58.3228 28.1463 58.4612 28.2847 58.5535C21.2712 63.4906 8.44389 63.2138 2.30707 52.1398C1.24582 50.248 1.01511 48.1255 0 46.2337C0.138424 43.6959 0.138424 41.1582 0.138424 38.5742Z" fill="#2F2D2E"/>
<path d="M183.412 0C182.905 0.507556 182.305 0.415273 181.705 0.276849C181.751 0.184566 181.751 0.0922829 181.751 0C182.305 0 182.859 0 183.412 0Z" fill="#2F2D2E"/>
<path d="M228.723 27.5926C228.815 27.5926 228.908 27.5926 229 27.5926C229 28.1463 229 28.7 229 29.2537L228.862 29.2998H228.723C228.677 28.7461 228.631 28.1924 228.585 27.6387L228.723 27.5926Z" fill="#E4E6E8"/>
<path d="M228.723 42.2655C228.723 41.7119 228.723 41.112 228.677 40.5583C228.769 40.5583 228.862 40.5583 228.954 40.5583C228.954 41.112 228.954 41.6657 228.954 42.2194L228.815 42.2655H228.723Z" fill="#2F2D2E"/>
<path d="M161.172 49.2791C166.155 50.3403 171.139 51.4477 176.122 52.509C175.43 58.3228 180.828 65.3363 188.119 65.1517C193.24 65.0594 197.716 61.1374 199.193 55.785C199.562 54.493 199.193 54.0316 198.039 53.8471C200.438 53.5702 202.838 53.3856 205.237 53.0165C208.052 52.6012 210.866 52.0475 213.727 51.54C213.543 56.4771 211.697 60.8606 209.482 65.1979C205.514 72.9496 199.885 79.4556 194.163 85.9154C191.856 88.4993 189.687 91.2678 187.565 93.9901C187.011 94.6822 186.734 94.9591 186.135 94.0824C182.305 88.5454 177.368 84.0236 173.446 78.5789C168.232 71.3347 163.341 63.9059 161.68 54.8622C161.449 53.4779 161.449 52.0937 161.587 50.7094C161.587 50.2019 161.541 49.7405 161.172 49.2791Z" fill="#A3D8DD"/>
<path d="M85.9615 78.3482C85.1771 82.6855 84.3927 87.0228 83.6083 91.4062C83.5622 91.7292 83.516 92.0522 83.4237 92.3752C83.0546 94.267 81.4858 95.0975 79.7324 94.4054C78.948 94.0824 79.271 93.4826 79.3172 92.975C80.24 87.761 81.1628 82.5009 82.0856 77.2869C82.7316 73.6879 82.7778 73.734 86.4691 73.734C86.9305 73.734 87.3458 73.7802 87.8072 73.734C89.0069 73.5956 89.4221 74.1954 89.5606 75.349C90.0681 79.5017 90.6679 83.7006 91.2216 87.8533C91.2678 88.1763 91.2678 88.5454 91.5908 88.7761C92.2368 88.4993 92.2829 87.8072 92.5136 87.2996C94.4515 83.3776 96.3433 79.4556 98.2351 75.5335C98.835 74.2877 99.6194 73.5495 101.05 73.7802C101.142 73.7802 101.28 73.7802 101.373 73.7802C102.803 73.8725 104.787 73.1342 105.479 74.1032C106.079 74.9798 105.249 76.8255 105.018 78.2559C104.187 83.0546 103.311 87.8533 102.48 92.6059C102.203 94.2208 99.9885 95.2359 98.6043 94.3593C98.0506 94.0363 98.3736 93.5749 98.4197 93.1596C99.158 88.8684 99.8962 84.5311 100.635 80.24C100.727 79.7324 100.957 79.2249 100.588 78.4405C99.158 81.3012 97.7737 83.9774 96.4356 86.6536C95.3744 88.7761 94.3131 90.8986 93.2519 93.0212C92.6059 94.267 90.2988 95.0052 89.0991 94.3593C88.2225 93.8978 88.3609 92.9289 88.2224 92.1445C87.5765 87.8072 86.9305 83.516 86.2845 79.1787C86.2384 78.9019 86.1922 78.625 86.0999 78.3943C86.1461 78.3482 86.0538 78.3482 85.9615 78.3482Z" fill="#FAA940"/>
<path d="M113.323 79.6863C112.539 84.1159 111.755 88.4993 110.924 92.9289C110.693 94.2208 108.156 95.1437 107.14 94.3131C106.679 93.944 106.91 93.4826 106.956 93.0673C108.017 87.0228 109.125 80.9782 110.186 74.9337C110.324 74.0109 110.786 73.7802 111.616 73.734C115.4 73.5495 115.4 73.5033 116.553 77.1024C117.799 80.886 119.091 84.6234 120.475 88.7761C121.398 86.4229 121.444 84.3004 121.86 82.2241C122.367 79.917 122.69 77.5638 123.152 75.2106C123.428 73.7802 124.443 73.3188 126.474 73.734C127.904 74.057 127.074 75.026 126.981 75.7181C126.012 81.3935 124.951 87.0228 124.028 92.6982C123.798 94.0363 123.336 94.4977 121.998 94.4515C118.307 94.3131 118.86 95.0052 117.568 91.2216C116.276 87.3458 114.985 83.516 113.693 79.6401C113.554 79.6401 113.416 79.6401 113.323 79.6863Z" fill="#FAA940"/>
<path d="M40.1892 94.4054C36.4056 94.4054 36.4056 94.4054 37.0054 90.8987C37.9283 85.6847 38.8511 80.4246 39.7278 75.2106C39.9123 74.057 40.3738 73.5956 41.5734 73.5956C44.3881 73.6879 47.2488 73.4572 50.0173 74.1032C54.3546 75.1644 56.2003 77.7022 56.0157 82.1779C55.7389 89.0069 51.4016 93.5287 44.5726 94.1286C43.05 94.3131 41.4811 94.4977 40.1892 94.4054ZM41.2043 91.0371C46.4183 91.4524 49.925 89.3299 51.217 85.0387C52.6474 80.2861 49.7405 76.5487 44.9418 76.8717C44.1112 76.9178 43.6037 77.1947 43.4652 78.0713C42.6808 82.3625 41.9426 86.6536 41.2043 91.0371Z" fill="#FAA940"/>
<path d="M68.3816 82.1318C72.3959 82.1318 72.3959 82.1318 73.0419 78.2559C73.2265 77.2408 73.5033 76.1795 73.5956 75.1644C73.6879 74.0109 74.2416 73.734 75.3028 73.734C78.0713 73.734 78.0252 73.6879 77.5638 76.4102C76.5948 81.9011 75.6258 87.3919 74.6107 92.8827C74.5184 93.4826 74.5646 94.267 73.8263 94.3593C72.7651 94.4977 71.6115 94.7284 70.5503 94.2208C69.9966 93.944 70.3196 93.298 70.4118 92.8366C70.7348 90.8987 71.0578 88.9146 71.5192 86.9766C71.7499 85.8231 71.5192 85.3155 70.2734 85.3617C68.4278 85.4078 66.6282 85.4078 64.7826 85.3617C63.8598 85.3617 63.3983 85.7308 63.2599 86.6998C62.9369 88.8223 62.5678 90.9448 62.1525 93.0673C62.0602 93.5749 62.1064 94.3131 61.3681 94.3593C60.2607 94.4515 59.1533 94.6361 58.0921 94.267C57.7229 94.1286 57.9075 93.5749 57.9998 93.2057C59.061 87.0689 60.1223 80.886 61.322 74.7491C61.7373 72.7651 63.5368 73.8725 64.6442 73.8263C65.8438 73.734 65.3363 74.8876 65.244 75.4874C65.0133 77.2408 64.6442 78.9942 64.3212 80.7014C64.1366 81.6704 64.275 82.3163 65.5208 82.1779C66.4898 82.0395 67.4588 82.1318 68.3816 82.1318Z" fill="#FAA940"/>
<path d="M12.9196 94.4054C15.3651 90.0681 17.6722 86.0077 19.9331 81.9934C21.0867 79.917 22.2863 77.8406 23.4399 75.7643C24.5011 73.8263 26.6236 73.0881 28.7461 73.734C29.346 73.9186 29.4383 74.38 29.5305 74.8876C30.8686 80.9782 32.1606 87.115 33.4987 93.2057C33.7294 94.2208 33.3141 94.4054 32.5297 94.4054C31.8837 94.4054 31.1916 94.3593 30.5456 94.4054C29.4844 94.4977 29.1153 93.9901 28.8846 93.0212C28.1002 89.5144 28.054 89.5144 24.5011 89.5144C24.455 89.5144 24.4088 89.5144 24.3166 89.5144C21.1328 88.9146 18.8719 89.9758 17.8568 93.2057C17.5799 94.0824 16.8878 94.4515 15.9188 94.4054C15.0421 94.3593 14.1654 94.4054 12.9196 94.4054ZM26.2545 78.4405C26.1161 78.3943 25.9776 78.3943 25.8854 78.3482C24.6857 80.7014 23.4399 83.0546 22.2402 85.3617C21.7788 86.2384 22.194 86.4229 22.9785 86.4229C24.132 86.4229 25.2855 86.3768 26.4391 86.4229C27.3619 86.4691 27.6387 86.0538 27.4542 85.2233C27.0389 82.9623 26.6236 80.7014 26.2545 78.4405Z" fill="#FAA940"/>
<path d="M28.4231 58.5535C28.2847 58.4151 28.1463 58.2767 28.0079 58.1844C30.8225 56.108 33.0373 53.5241 34.3293 50.248C34.6984 49.3252 35.0675 49.5559 35.6674 49.9712C37.19 51.0786 38.9434 51.5861 40.7891 51.5861C43.5114 51.6323 46.2337 51.5861 48.9099 51.5861C50.2019 51.5861 51.4939 51.3554 52.6013 50.7095C53.7548 50.0173 54.4008 50.3865 55.2775 51.1709C60.5376 55.9696 68.2432 55.5543 72.9035 50.248C73.6418 49.3714 74.1493 49.4636 74.9337 49.9712C76.5487 50.9863 78.3482 51.5861 80.24 51.5861C91.2678 51.5861 102.296 51.6323 113.277 51.54C116.784 51.4939 119.875 50.1096 122.229 47.4334C125.828 43.3268 125.92 37.4669 122.459 32.299C122.598 32.1606 122.736 32.0222 122.875 31.8376C128.596 38.0206 125.735 48.5408 117.522 51.4939C115.63 52.186 113.646 52.4628 111.662 52.4628C101.742 52.4628 91.8215 52.4628 81.9011 52.4628C79.3633 52.4628 76.9178 52.1398 74.7492 50.8017C74.057 50.3865 73.734 50.6172 73.2265 51.0786C67.5972 56.4771 61.0913 56.754 54.8622 51.863C54.1239 51.2632 53.4779 51.3093 52.6013 51.54C46.972 52.9242 41.3428 53.2934 35.8981 50.9863C34.8829 50.571 34.7907 51.1709 34.5138 51.7246C33.0373 54.5392 31.2839 57.0308 28.4231 58.5535Z" fill="#2F2D2E"/>
<path d="M37.0054 42.9115C37.1439 42.7731 37.2823 42.6808 37.4207 42.5424C38.6204 43.4652 39.9585 43.7882 41.435 43.7421C43.1884 43.6959 44.9879 43.7421 46.7413 43.7421C49.5098 43.7421 50.0173 43.2806 50.248 40.5122C50.5249 37.1438 51.54 34.0985 53.8932 31.653C57.9075 27.5464 62.7985 26.6236 68.1048 28.2847C73.3188 29.9458 76.0872 33.8678 76.9178 39.1279C77.6099 43.6959 77.5638 43.7421 82.1779 43.7421C83.839 43.7421 85.5001 43.6498 87.1612 43.7882C88.73 43.9266 89.2837 43.4652 89.2375 41.8041C89.0991 37.8821 89.2375 33.9139 89.1914 29.9919C89.1914 28.6999 89.6528 28.1924 90.9448 28.2847C92.5597 28.377 94.1747 28.377 95.7435 28.2847C97.3584 28.1924 98.0506 28.6999 97.6353 30.361C97.5891 30.5456 97.6814 30.7763 97.6814 31.0532C98.6043 30.9147 99.158 30.2226 99.8501 29.8073C106.587 25.47 114.8 25.4239 120.568 29.7151C120.937 29.9919 121.214 30.3149 121.537 30.5917C121.398 30.7302 121.26 30.8686 121.075 31.007C117.384 28.1001 113.231 26.8081 108.525 27.3618C103.911 27.9155 100.035 29.9919 96.5279 33.5448C96.6663 32.2067 96.7125 31.2839 96.8509 30.4072C97.0355 29.3459 96.6202 28.9768 95.6051 29.0229C94.267 29.0691 92.9289 29.1152 91.6369 29.0229C90.3449 28.9307 89.9297 29.3921 89.9297 30.7302C90.022 34.8829 89.9758 39.0356 89.9758 43.1884C89.9758 44.065 89.9297 44.6649 88.73 44.6649C85.7308 44.6187 82.7316 44.6649 79.7786 44.6187C78.1636 44.6187 77.0562 43.7421 76.6409 42.1733C76.4102 41.435 76.3641 40.6506 76.2718 39.9123C75.6258 34.6983 73.088 30.7763 67.9663 29.1614C62.9369 27.5464 58.1844 28.2385 54.4008 32.3451C52.186 34.7445 51.1709 37.6975 50.9863 40.9274C50.8479 43.5575 49.7405 44.5726 47.1104 44.6187C45.0802 44.6649 43.0038 44.6649 40.9736 44.6187C39.4509 44.5265 38.0205 44.2496 37.0054 42.9115Z" fill="#2F2D2E"/>
<path d="M140.778 34.2831C140.778 39.5894 140.778 44.9418 140.778 50.248C140.778 52.3244 140.639 52.509 138.517 52.5551C136.902 52.6012 135.287 52.5551 133.672 52.5551C132.518 52.6012 131.918 52.1398 131.918 50.9402C131.918 39.9123 131.918 28.8845 131.918 17.8567C131.918 16.7493 132.334 16.2418 133.487 16.2879C135.241 16.3341 137.04 16.3802 138.793 16.2879C140.27 16.1956 140.731 16.7955 140.731 18.2259C140.778 23.486 140.778 28.8845 140.778 34.2831ZM132.841 34.0985C132.841 39.4509 132.887 44.8495 132.841 50.2019C132.841 51.2631 133.072 51.6784 134.179 51.6323C135.61 51.54 137.04 51.54 138.517 51.6323C139.716 51.7246 139.993 51.217 139.993 50.1096C139.947 45.034 139.993 39.9123 139.993 34.8368C139.993 29.346 139.993 23.8551 139.993 18.4104C139.993 17.3953 139.762 16.8878 138.609 16.98C137.271 17.0723 135.933 17.0723 134.641 16.98C133.303 16.8878 132.841 17.2107 132.841 18.6873C132.887 23.809 132.841 28.9307 132.841 34.0985Z" fill="#2F2D2E"/>
<path d="M134.825 14.7191C133.718 14.7191 132.611 14.7191 131.503 14.7191C130.58 14.7191 130.303 14.1654 130.58 13.4272C130.996 12.3659 130.765 10.9817 132.241 10.428C132.933 10.1511 132.703 9.13601 132.887 8.49003C133.349 6.64437 134.687 5.4447 136.44 5.30627C138.655 5.07556 140.224 5.95225 141.008 7.79791C141.101 8.02862 141.239 8.30547 141.239 8.58231C141.239 9.82813 140.778 11.074 141.839 12.2736C142.346 12.8735 140.593 14.4884 139.116 14.6268C137.686 14.7653 136.256 14.8114 134.825 14.8576C134.825 14.8114 134.825 14.7653 134.825 14.7191ZM135.517 13.9809C136.809 13.8424 138.424 14.3039 139.855 13.5656C140.408 13.2887 141.285 12.9658 140.824 12.1352C140.455 11.4431 139.901 10.6587 138.886 11.1201C138.24 11.3969 137.594 11.3047 136.948 11.2585C136.21 11.2124 135.84 10.8432 135.933 10.0588C136.071 8.72074 136.763 8.35161 137.824 9.18215C138.609 9.78199 139.439 9.68971 140.178 9.459C140.824 9.27444 140.27 8.58231 140.178 8.16704C139.716 6.59823 138.47 5.85997 136.717 6.04453C134.871 6.2291 133.764 7.3365 133.533 9.27444C133.441 10.1511 133.856 11.2585 132.241 11.4892C131.457 11.6276 131.365 12.9196 131.411 13.6579C131.457 14.3961 132.334 13.9347 132.795 13.9809C133.626 14.027 134.456 13.9809 135.517 13.9809ZM136.948 10.5203C137.271 10.5664 137.409 10.6587 137.548 10.6587C137.732 10.6125 138.24 10.7048 137.824 10.2895C137.64 10.0588 137.363 10.1973 136.948 10.5203Z" fill="#2F2D2E"/>
<path d="M109.401 23.3476C104.926 23.3476 104.926 23.3476 104.926 18.918C104.926 15.5036 104.51 15.5958 108.248 15.5958C109.586 15.5958 110.924 15.642 112.216 15.5958C113.231 15.5497 113.785 15.965 113.831 17.0262C113.877 18.6873 113.877 20.3484 113.831 22.0095C113.831 22.9323 113.37 23.4399 112.401 23.3476C111.385 23.3015 110.416 23.3476 109.401 23.3476ZM109.355 16.4725C108.617 16.4725 107.925 16.5187 107.187 16.4725C105.895 16.3341 105.387 17.0262 105.71 18.1798C106.125 19.6101 104.833 21.5481 106.171 22.3786C107.279 23.0708 109.078 22.6093 110.555 22.6093C113.231 22.6093 112.908 22.7939 112.908 20.1638C112.954 16.4725 112.954 16.4725 109.355 16.4725Z" fill="#2F2D2E"/>
<path d="M18.6411 38.9895C14.2577 38.9895 14.2116 38.9895 14.2577 34.5599C14.3039 31.0532 13.6579 31.2839 17.4876 31.2377C18.918 31.2377 20.3484 31.33 21.7788 31.2839C22.7939 31.2377 23.1169 31.6991 23.1169 32.6681C23.0707 34.3292 23.0707 35.9903 23.1169 37.6514C23.163 38.6665 22.7477 39.0818 21.7326 39.0356C20.7637 38.9433 19.7024 38.9895 18.6411 38.9895ZM18.8719 31.976C18.272 31.976 17.626 32.0683 17.0723 31.976C15.4574 31.7453 14.996 32.3913 15.0421 33.9601C15.1344 38.2051 15.0883 38.2051 19.4256 38.2051C22.3786 38.2051 22.3786 38.2051 22.3786 35.3905C22.3325 31.976 22.3325 31.976 18.8719 31.976Z" fill="#2F2D2E"/>
<path d="M121.121 30.9609C121.26 30.8225 121.398 30.684 121.583 30.5456C122.136 30.8686 122.598 31.33 122.967 31.8837C122.829 32.0221 122.69 32.1606 122.552 32.3451C122.044 31.8837 121.583 31.4223 121.121 30.9609Z" fill="#2F2D2E"/>
<path d="M222.033 30.2688C221.064 28.1002 221.571 26.4852 223.648 25.2855C223.648 25.4701 223.648 25.7008 223.648 25.8854C222.31 26.9005 222.033 28.2386 222.402 29.8074C222.31 29.9458 222.171 30.1304 222.033 30.2688Z" fill="#2F2D2E"/>
<path d="M226.647 25.3317C227.754 25.7008 228.354 26.5314 228.677 27.6388H228.539C228.169 28.2847 228.446 28.9769 228.308 29.6228C228.216 29.6228 228.123 29.6228 227.985 29.6228C228.4 27.8233 227.754 26.5314 226.139 25.7008C226.37 25.5624 226.508 25.424 226.647 25.3317Z" fill="#2F2D2E"/>
<path d="M226.647 25.3316C226.508 25.4701 226.324 25.5624 226.185 25.7008C225.309 25.5162 224.478 25.7008 223.694 25.8853C223.694 25.7008 223.694 25.4701 223.694 25.2855C224.663 24.8241 225.678 24.7318 226.647 25.3316Z" fill="#2F2D2E"/>
<path d="M226.001 31.9299C225.032 32.4374 224.155 32.1144 223.325 31.5607C223.463 31.4223 223.601 31.33 223.74 31.1916C224.478 31.5146 225.216 31.6992 225.955 31.2839C226.001 31.5146 226.001 31.7453 226.001 31.9299Z" fill="#2F2D2E"/>
<path d="M228.031 29.6228C228.123 29.6228 228.216 29.6228 228.354 29.6228H228.492H228.631C228.492 30.4072 228.123 31.007 227.385 31.3762C227.247 31.2377 227.154 31.0993 227.016 30.9609C227.339 30.4995 227.708 30.0381 228.031 29.6228Z" fill="#2F2D2E"/>
<path d="M223.786 31.2378C223.648 31.3762 223.509 31.4685 223.371 31.6069C222.725 31.3762 222.309 30.9148 222.079 30.3149C222.217 30.1765 222.309 29.9919 222.448 29.8535C222.863 30.2688 223.325 30.7302 223.786 31.2378Z" fill="#2F2D2E"/>
<path d="M227.016 30.9609C227.154 31.0993 227.247 31.2377 227.385 31.3762C227.016 31.7914 226.601 32.0221 226.001 31.976C226.001 31.7914 226.001 31.5607 226.001 31.3762C226.324 31.1916 226.693 31.0532 227.016 30.9609Z" fill="#2F2D2E"/>
<path d="M228.631 29.5767H228.492H228.354C228.492 28.9307 228.216 28.1924 228.585 27.5926C228.631 28.1463 228.677 28.7 228.723 29.2537C228.723 29.3921 228.677 29.4844 228.631 29.5767Z" fill="#2F2D2E"/>
<path d="M212.435 34.7445C213.22 35.5289 214.327 35.6212 215.296 35.898C218.664 36.9593 222.171 37.5591 225.216 39.5432C227.339 40.9274 227.523 42.2655 225.632 44.0651C223.601 46.0491 221.064 47.2027 218.434 48.0794C208.513 51.4015 198.362 52.4167 187.98 51.6323C178.106 50.894 168.416 49.4175 158.957 46.5567C156.927 45.9569 154.989 45.1724 153.236 43.9728C151.252 42.5885 150.975 41.3427 152.267 39.3125C152.728 38.6204 153.19 37.7898 153.882 37.4668C155.635 36.544 155.774 35.0675 155.866 33.3141C156.512 20.0715 162.279 9.78196 174.553 4.24498C185.027 -0.461442 195.04 1.56878 203.761 9.13598C210.728 15.1805 214.05 23.0707 214.788 32.1606C214.881 33.4987 214.788 34.3292 213.173 34.2831C212.851 34.3292 212.574 34.4215 212.435 34.7445ZM158.127 31.2839C158.081 33.4987 159.234 35.0213 161.126 35.252C162.556 35.4366 163.295 34.7445 163.802 32.299C165.233 25.8853 166.894 19.6101 171.046 14.35C171.415 13.8424 171.646 13.2426 171.231 12.6427C170.769 12.089 170.124 12.2275 169.524 12.3197C167.217 12.735 165.786 14.3038 164.448 16.0572C161.034 20.6252 158.588 25.5623 158.127 31.2839ZM200.346 22.2401C198.131 22.3786 196.055 23.0246 194.117 24.2242C193.148 24.8241 192.871 25.6085 193.148 26.6236C194.025 29.9458 195.686 32.7143 198.547 34.6983C200.531 36.0826 201.684 35.8519 203.207 33.9601C204.868 31.8837 205.837 29.5305 206.345 26.9466C206.668 25.3316 205.975 23.5321 204.73 23.163C203.299 22.7016 201.869 22.194 200.346 22.2401ZM196.24 10.8894C204.222 15.5958 209.436 22.3324 211.328 31.5146C213.912 21.548 207.129 13.1041 196.24 10.8894Z" fill="#FAA940"/>
<path d="M121.121 30.9609C121.583 31.4224 122.044 31.8838 122.506 32.3452C125.966 37.513 125.874 43.373 122.275 47.4796C119.922 50.1558 116.83 51.54 113.323 51.5862C102.296 51.6784 91.2678 51.6323 80.2861 51.6323C78.3482 51.6323 76.5948 51.0786 74.9799 50.0174C74.1954 49.5098 73.6879 49.4175 72.9496 50.2942C68.2893 55.6005 60.5837 56.0157 55.3236 51.217C54.4469 50.3865 53.7548 50.0635 52.6474 50.7556C51.54 51.4016 50.248 51.6323 48.9561 51.6323C46.2337 51.6323 43.5114 51.6785 40.8352 51.6323C38.9434 51.6323 37.2361 51.0786 35.7135 50.0174C35.1136 49.6021 34.7445 49.3714 34.3754 50.2942C33.0834 53.5702 30.8686 56.1542 28.054 58.2305C23.163 60.8145 18.0413 61.8296 12.735 59.9378C6.09067 57.5384 2.39935 52.6013 1.24582 45.7723C0.692118 42.5886 0.968967 39.4048 1.66109 36.2211C1.8918 35.1598 2.35321 34.6061 3.55289 34.6984C5.07556 34.7907 6.64436 34.7907 8.21317 34.6984C9.32057 34.6523 9.41285 35.1137 9.136 35.9442C8.3516 38.2513 7.93633 40.6506 8.02861 43.1423C8.25932 50.5711 15.5497 55.6928 22.0556 52.9243C26.0238 51.2632 28.2847 48.0794 28.4693 43.7883C28.7 39.0357 28.6077 34.2831 28.5616 29.4844C28.5616 28.2847 28.8384 27.7772 30.1304 27.8695C31.4685 27.9617 32.8066 27.9617 34.0985 27.8695C35.3905 27.7772 35.8519 28.1463 35.8058 29.5306C35.7135 32.7605 35.7596 35.9442 35.7596 39.1741C35.7596 40.6045 35.9903 41.9426 37.0977 42.9577C38.1128 44.2497 39.5432 44.5727 41.0659 44.5727C43.0961 44.6188 45.1725 44.6188 47.2027 44.5727C49.8328 44.5265 50.9402 43.5114 51.0786 40.8813C51.2631 37.6053 52.2783 34.6984 54.493 32.299C58.2766 28.1925 63.0292 27.5003 68.0586 29.1153C73.1803 30.7302 75.7181 34.6523 76.3641 39.8662C76.4564 40.6506 76.5487 41.3889 76.7332 42.1272C77.1946 43.696 78.2559 44.5727 79.8708 44.5727C82.87 44.6188 85.8692 44.5265 88.8223 44.6188C89.9758 44.6649 90.0681 44.019 90.0681 43.1423C90.0681 38.9896 90.1142 34.8368 90.022 30.6841C89.9758 29.346 90.4372 28.8846 91.7292 28.9769C93.0673 29.0691 94.4054 29.023 95.6974 28.9769C96.7125 28.9769 97.1277 29.346 96.9432 30.3611C96.8048 31.2378 96.7586 32.1606 96.6202 33.4987C100.127 29.9458 104.003 27.8695 108.617 27.3158C113.277 26.7621 117.43 28.054 121.121 30.9609ZM104.926 44.5727C107.371 44.5727 109.77 44.6188 112.216 44.5265C115.815 44.3881 118.214 41.758 117.522 38.6204C116.969 36.1288 115.077 34.883 112.816 34.237C107.14 32.7143 99.8039 35.8058 97.0355 43.4191C96.7125 44.342 97.0816 44.5727 97.9583 44.5265C100.265 44.5727 102.619 44.5727 104.926 44.5727ZM68.9815 41.5735C68.9815 39.5432 68.7507 37.9283 67.9202 36.4518C66.8128 34.4677 65.0133 34.0524 62.9831 34.237C60.999 34.4215 59.6147 35.4367 59.0149 37.4207C58.3228 39.8201 58.1844 42.1733 58.9226 44.5727C59.7532 47.2027 61.0913 48.3101 63.6752 48.3101C66.1668 48.3101 67.7818 47.1104 68.5201 44.6188C68.843 43.5576 68.9815 42.404 68.9815 41.5735Z" fill="#A3D8DD"/>
<path d="M132.841 34.0985C132.841 28.9307 132.887 23.809 132.795 18.6411C132.749 17.2108 133.256 16.8416 134.595 16.9339C135.933 17.0262 137.271 17.0262 138.563 16.9339C139.716 16.8416 139.947 17.3492 139.947 18.3643C139.901 23.8551 139.947 29.346 139.947 34.7906C139.947 39.8662 139.901 44.9879 139.947 50.0635C139.947 51.1709 139.716 51.6784 138.47 51.5861C137.04 51.4938 135.61 51.4938 134.133 51.5861C132.98 51.6784 132.749 51.217 132.795 50.1557C132.887 44.8495 132.841 39.4509 132.841 34.0985Z" fill="#A3D8DD"/>
<path d="M135.517 13.9809C134.456 13.9809 133.626 14.027 132.795 13.9809C132.334 13.9347 131.457 14.3961 131.411 13.6579C131.365 12.9196 131.457 11.6277 132.241 11.4892C133.856 11.2585 133.395 10.1511 133.533 9.27444C133.764 7.3365 134.871 6.2291 136.717 6.04454C138.47 5.90611 139.716 6.59823 140.178 8.16704C140.316 8.58232 140.824 9.27444 140.178 9.459C139.439 9.68971 138.609 9.78199 137.824 9.18215C136.763 8.35161 136.071 8.72074 135.933 10.0588C135.84 10.8432 136.21 11.2124 136.948 11.2585C137.594 11.3047 138.24 11.3969 138.886 11.1201C139.947 10.6587 140.501 11.4431 140.824 12.1352C141.239 12.9658 140.408 13.2887 139.855 13.5656C138.378 14.3039 136.809 13.8424 135.517 13.9809Z" fill="#A3D8DD"/>
<path d="M136.948 10.5202C137.363 10.1972 137.64 10.0127 137.871 10.2434C138.24 10.6587 137.778 10.6125 137.594 10.6125C137.409 10.6587 137.271 10.6125 136.948 10.5202Z" fill="#2F2D2E"/>
<path d="M109.355 16.4725C112.954 16.4725 112.954 16.4725 112.954 20.1177C112.954 22.7477 113.277 22.5632 110.601 22.5632C109.125 22.5632 107.325 22.9784 106.218 22.3325C104.88 21.5019 106.125 19.564 105.756 18.1336C105.433 16.98 105.895 16.3341 107.233 16.4263C107.879 16.5648 108.617 16.4725 109.355 16.4725Z" fill="#A3D8DD"/>
<path d="M18.8719 31.976C22.3325 31.976 22.3325 31.976 22.3786 35.3905C22.3786 38.2051 22.3786 38.2051 19.4256 38.2051C15.0421 38.2051 15.1344 38.2051 15.0421 33.9601C14.996 32.3451 15.4574 31.7453 17.0723 31.976C17.626 32.0683 18.272 31.976 18.8719 31.976Z" fill="#A3D8DD"/>
<path d="M227.016 30.9609C226.693 31.0994 226.324 31.1917 226.001 31.3301C225.216 31.7454 224.524 31.5608 223.786 31.2378C223.325 30.7764 222.863 30.315 222.402 29.8074C222.033 28.2386 222.309 26.9005 223.648 25.8854C224.478 25.7008 225.309 25.5163 226.139 25.7008C227.754 26.5314 228.354 27.8233 227.985 29.6228C227.708 30.0381 227.339 30.4995 227.016 30.9609ZM225.955 29.7151C226.001 30.0381 226.001 30.638 226.462 30.3611C226.877 30.1304 226.416 29.6228 226.278 29.2537C226.37 28.7923 226.416 28.2847 226.508 27.8233C226.647 27.1312 226.232 26.7621 225.678 26.6237C225.124 26.5314 224.201 26.2084 224.063 26.9466C223.832 28.054 224.017 29.2537 224.017 30.638C224.893 30.0381 224.294 29.2076 224.94 28.9769C225.586 28.7923 225.632 29.4844 225.955 29.7151Z" fill="#E4E6E8"/>
<path d="M158.127 31.2839C158.588 25.5162 160.988 20.5791 164.448 16.0572C165.786 14.3039 167.217 12.735 169.524 12.3198C170.124 12.2275 170.769 12.0429 171.231 12.6428C171.692 13.1965 171.462 13.8424 171.046 14.35C166.847 19.6101 165.186 25.8854 163.802 32.299C163.248 34.7445 162.51 35.3905 161.126 35.2521C159.28 35.0675 158.127 33.4987 158.127 31.2839Z" fill="#F8CD90"/>
<path d="M200.346 22.2402C201.869 22.194 203.299 22.7016 204.683 23.1169C205.929 23.486 206.621 25.2855 206.298 26.9005C205.791 29.4844 204.822 31.8376 203.161 33.914C201.638 35.8058 200.485 35.9903 198.5 34.6522C195.64 32.6681 193.979 29.8996 193.102 26.5775C192.825 25.6085 193.102 24.7779 194.071 24.1781C196.055 23.0246 198.085 22.3786 200.346 22.2402ZM200.669 23.9474C198.823 24.0397 197.255 24.5011 195.732 25.2855C194.994 25.7008 194.763 26.1622 195.04 27.0389C195.87 29.5305 197.209 31.5607 199.331 33.1757C200.3 33.914 200.9 33.7294 201.684 32.8988C203.299 31.1455 203.991 29.0691 204.545 26.8543C204.914 25.3778 204.268 24.7779 203.068 24.4088C202.238 24.132 201.361 24.0858 200.669 23.9474Z" fill="#FAA940"/>
<path d="M196.24 10.8894C207.129 13.1042 213.912 21.548 211.328 31.5146C209.436 22.3325 204.222 15.5958 196.24 10.8894Z" fill="#FAA940"/>
<path d="M104.926 44.5726C102.619 44.5726 100.265 44.5265 97.9583 44.5726C97.0816 44.5726 96.6663 44.3881 97.0355 43.4652C99.8039 35.8058 107.187 32.7604 112.816 34.2831C115.123 34.8829 117.015 36.1288 117.522 38.6665C118.168 41.8042 115.815 44.4342 112.216 44.5726C109.77 44.6649 107.371 44.5726 104.926 44.5726ZM98.0044 43.5575C98.3274 43.8344 98.7427 43.7421 99.1118 43.7421C103.357 43.7421 107.648 43.7421 111.893 43.7421C114.523 43.7421 116.553 42.1733 116.83 40.0046C117.107 38.0667 115.538 36.0365 113.185 35.2521C107.14 33.268 99.7578 37.2823 98.0044 43.5575Z" fill="#2F2D2E"/>
<path d="M68.9814 41.5734C68.9814 42.404 68.843 43.5575 68.52 44.6649C67.7818 47.1565 66.1668 48.3562 63.6752 48.3562C61.0913 48.3562 59.7532 47.2027 58.9226 44.6188C58.1843 42.2194 58.3228 39.8201 59.0149 37.4668C59.6147 35.4828 60.999 34.4676 62.9831 34.2831C65.0133 34.0985 66.8589 34.5138 67.9202 36.4979C68.7507 37.9744 68.9814 39.5893 68.9814 41.5734ZM68.1048 41.112C68.0586 40.5122 68.0586 39.6355 67.9663 38.8511C67.5972 36.4517 66.1207 35.1136 63.7213 35.0213C61.5527 34.9291 60.1684 36.0365 59.5686 38.4358C59.061 40.466 59.1072 42.4501 59.6609 44.4803C60.3069 46.6951 61.4143 47.5718 63.5368 47.618C65.8438 47.6641 66.9512 46.8336 67.6895 44.6649C68.0586 43.5114 68.0586 42.404 68.1048 41.112Z" fill="#2F2D2E"/>
<path d="M225.955 29.7151C225.632 29.4844 225.585 28.7922 224.986 28.9768C224.34 29.2075 224.94 30.0381 224.063 30.6379C224.063 29.2537 223.924 28.054 224.109 26.9466C224.247 26.2083 225.17 26.5313 225.724 26.6236C226.278 26.7159 226.693 27.1312 226.554 27.8233C226.462 28.2847 226.37 28.7922 226.324 29.2537C226.185 29.4382 226.047 29.5767 225.955 29.7151ZM225.263 27.0389C224.847 26.9927 224.663 27.2234 224.617 27.5926C224.57 27.9156 224.617 28.2847 225.078 28.2847C225.493 28.2847 225.862 28.1001 225.862 27.6387C225.909 27.3157 225.632 27.1312 225.263 27.0389Z" fill="#2F2D2E"/>
<path d="M225.955 29.7151C226.047 29.5767 226.185 29.3921 226.278 29.2537C226.416 29.6228 226.877 30.1304 226.462 30.3611C226.001 30.6379 226.001 30.0842 225.955 29.7151Z" fill="#2F2D2E"/>
<path d="M200.669 23.9474C201.361 24.0858 202.284 24.132 203.115 24.3627C204.268 24.7318 204.96 25.3317 204.591 26.8082C204.037 29.023 203.345 31.1455 201.73 32.8527C200.946 33.6833 200.346 33.8678 199.377 33.1296C197.255 31.5607 195.917 29.4844 195.086 26.9927C194.809 26.1161 195.04 25.6546 195.778 25.2394C197.209 24.5011 198.777 24.0397 200.669 23.9474Z" fill="#F8CD90"/>
<path d="M225.263 27.0389C225.586 27.1312 225.909 27.3157 225.862 27.6849C225.862 28.1463 225.493 28.3309 225.078 28.3309C224.617 28.3309 224.617 27.9617 224.617 27.6387C224.663 27.2235 224.847 26.9928 225.263 27.0389Z" fill="#E4E6E8"/>
</svg>
