<svg xmlns="http://www.w3.org/2000/svg" version="1.1" xmlns:xlink="http://www.w3.org/1999/xlink" xmlns:svgjs="http://svgjs.com/svgjs" width="512" height="512" x="0" y="0" viewBox="0 0 512 512" style="enable-background:new 0 0 512 512" xml:space="preserve"><g>
<polygon style="" points="446.149,420.109 446.149,178.826 255.989,112.915 65.829,178.826 65.829,420.109 
	255.989,480.421 " fill="#FD982C" data-original="#fd982c"></polygon>
<polygon style="" points="446.149,420.109 446.149,178.826 255.989,112.915 255.989,480.421 " fill="#FA502E" data-original="#fa502e"></polygon>
<polygon style="" points="446.149,178.826 255.989,112.915 65.829,178.826 255.989,245.736 " fill="#FFF2B4" data-original="#fff2b4"></polygon>
<polygon style="" points="446.149,178.826 255.989,112.915 255.989,245.736 " fill="#FFDF8E" data-original="#ffdf8e"></polygon>
<g>
	<polygon style="" points="65.829,178.826 0,256.722 193.739,327.127 255.989,245.736 	" fill="#FABE3D" data-original="#fabe3d"></polygon>
	<polygon style="" points="446.149,178.826 512,256.722 318.261,327.127 255.989,245.736 	" fill="#FABE3D" data-original="#fabe3d"></polygon>
</g>
<polygon style="" points="446.149,178.826 512,256.722 318.261,327.127 255.989,245.736 " fill="#FD982C" data-original="#fd982c"></polygon>
<polygon style="" points="65.829,178.826 0,101.985 193.739,31.579 255.989,112.915 " fill="#FDDA50" data-original="#fdda50"></polygon>
<polygon style="" points="446.149,178.826 512,101.985 318.261,31.579 255.989,112.915 " fill="#FABE3D" data-original="#fabe3d"></polygon>
<g>
</g>
<g>
</g>
<g>
</g>
<g>
</g>
<g>
</g>
<g>
</g>
<g>
</g>
<g>
</g>
<g>
</g>
<g>
</g>
<g>
</g>
<g>
</g>
<g>
</g>
<g>
</g>
<g>
</g>
</g></svg>