<?xml version="1.0" encoding="utf-8"?>
<!-- Generator: Adobe Illustrator 23.0.1, SVG Export Plug-In . SVG Version: 6.00 Build 0)  -->
<svg version="1.1" id="Layer_1" xmlns="http://www.w3.org/2000/svg" xmlns:xlink="http://www.w3.org/1999/xlink" x="0px" y="0px"
	 viewBox="0 0 1000 1000" style="enable-background:new 0 0 1000 1000;" xml:space="preserve">
<style type="text/css">
	.st0{fill:#045C4D;}
	.st1{fill:#FFFFFF;}
	.st2{fill:#C5992C;}
</style>
<g>
	<path class="st0" d="M215.1,636.4h568.8c11.4,0,21.9,4.1,30.1,11V134.4c0-19.1-15.6-34.7-34.7-34.7H219.7
		c-19.1,0-34.7,15.6-34.7,34.7v512.9C193.2,640.6,203.6,636.4,215.1,636.4"/>
	<path class="st1" d="M275.8,252.1c-33.5,0-45.4-21.4-45.4-39.8c0-23.5,19.7-39.9,48-39.9h4.5v-7h15v71.7h101.5v-64.7h15v64.7h94.6
		v-64.7h14.7v79.7H275.8z M273.8,187.4c-13.7,0-28.4,9.5-28.4,24.9c0,17.1,14.3,24.8,28.4,24.8h9.1v-49.7H273.8z M299.9,145.8
		c0-5.1-4.3-9.2-9.7-9.2c-5.4,0-9.6,4-9.6,9.2c0,5.3,4.1,9.3,9.6,9.3C295.7,155.1,299.9,151.1,299.9,145.8 M272.8,145.8
		c0-5.1-4.2-9.2-9.6-9.2c-5.4,0-9.6,4-9.6,9.2c0,5.3,4.1,9.3,9.6,9.3C268.7,155.1,272.8,151.1,272.8,145.8 M416.8,271.8
		c0-5.2-4.3-9.3-9.9-9.3s-9.9,4.1-9.9,9.3c0,5.4,4.2,9.5,9.9,9.5C412.6,281.3,416.8,277.2,416.8,271.8 M501.1,272.1
		c0-5.2-4.2-9.3-9.6-9.3c-5.4,0-9.6,4.1-9.6,9.3c0,5.2,4.1,9.2,9.6,9.2C497,281.3,501.1,277.3,501.1,272.1 M528.2,272.1
		c0-5.2-4.3-9.3-9.7-9.3c-5.4,0-9.6,4.1-9.6,9.3c0,5.2,4.1,9.2,9.6,9.2C524.1,281.3,528.2,277.4,528.2,272.1 M552.8,282.8
		c-3.2,0-6.3-0.4-9.6-1.3l-1.8-0.5l3.9-14.4l1.8,0.5c2.6,0.7,3.5,0.8,5.2,0.8c6.5,0,8.7-2.2,8.7-15.3v-80.1h15v64.7h89.8v-64.7h15
		v8.8h49c11.4,0,19,3,25.2,10.2c4.7,5.3,7.3,13.7,7.3,23.5v37.3h-188l0,0.8c0.6,11.4-1.5,19.6-6.2,24.5
		C563.1,282.8,556.1,282.8,552.8,282.8L552.8,282.8z M680.9,237.1h66.5v-22.3c0-6-1.2-10.1-3.8-13.3c-2.9-3.5-7.5-5.3-13.7-5.3h-49
		V237.1z M723.1,158.5c0-5.3-4.3-9.4-9.9-9.4c-5.5,0-9.9,4.2-9.9,9.4c0,5.4,4.2,9.5,9.9,9.5C718.9,168,723.1,163.9,723.1,158.5"/>
	<path class="st1" d="M289.8,322.8c-5.5,0-9.6-4-9.6-9.3c0-5.1,4.2-9.2,9.6-9.2c5.5,0,9.7,4,9.7,9.2
		C299.6,318.8,295.4,322.8,289.8,322.8 M272.5,313.4c0-5.1-4.2-9.2-9.6-9.2s-9.6,4-9.6,9.2c0,5.3,4.1,9.3,9.6,9.3
		S272.5,318.8,272.5,313.4 M505.8,439.7c0-5.2-4.2-9.3-9.6-9.3c-5.4,0-9.6,4.1-9.6,9.3c0,5.2,4.1,9.2,9.6,9.2
		C501.7,448.9,505.8,445,505.8,439.7 M532.9,439.7c0-5.2-4.3-9.3-9.7-9.3c-5.4,0-9.6,4.1-9.6,9.3c0,5.2,4.1,9.2,9.6,9.2
		C528.8,448.9,532.9,445,532.9,439.7 M616.6,318.9c0-5.1-4.2-9.2-9.6-9.2s-9.6,4-9.6,9.2c0,5.3,4.1,9.3,9.6,9.3
		S616.6,324.2,616.6,318.9 M643.7,318.9c0-5.1-4.3-9.2-9.7-9.2c-5.4,0-9.6,4-9.6,9.2c0,5.3,4.1,9.3,9.6,9.3
		C639.5,328.2,643.7,324.2,643.7,318.9 M428.3,419.9l0.2-0.2h290.7V302.6h-15v102.1h-56.7V340h-20.8c-28.5,0-46.9,15.6-46.9,39.8
		c0,9.1,2.9,17.1,8.6,23.7l1.1,1.3h-71.3V340h-15v64.7h-65.4l0.3-1c1.5-4.3,2.2-8.8,2.2-13.6c0-24.3-18.4-42.7-42.7-42.7
		c-23.4,0-41.7,18.8-41.7,42.7c0,4.6,0.7,9.1,2.2,13.6l0.3,1h-60.8V333h-15v7h-4.5c-28.3,0-48,16.4-48,39.9
		c0,19.2,12.6,39.8,48,39.8h89.6l0.2,0.2c7.9,8,18.5,12.5,29.8,12.5C409.3,432.4,420.5,427.9,428.3,419.9 M425.4,390
		c0,15.6-11.9,27.3-27.7,27.3c-15,0-26.7-12-26.7-27.3c0-15.5,11.7-27.6,26.7-27.6C413.7,362.4,425.4,374,425.4,390 M632.6,355v49.7
		h-22l-0.2-0.1c-9.8-5.8-15.5-14.8-15.5-24.8c0-16.1,14.1-24.8,27.3-24.8L632.6,355z M282.6,355v49.7h-9.1
		c-14.1,0-28.4-7.7-28.4-24.8c0-15.4,14.7-24.9,28.4-24.9L282.6,355z M762.4,302.6h-15v117.1h15V302.6z"/>
	<path class="st1" d="M290.2,490.4c-5.5,0-9.6-4-9.6-9.3c0-5.1,4.2-9.2,9.6-9.2c5.5,0,9.7,4,9.7,9.2
		C299.9,486.4,295.7,490.4,290.2,490.4 M272.8,481.1c0-5.1-4.2-9.2-9.6-9.2c-5.4,0-9.6,4-9.6,9.2c0,5.3,4.1,9.3,9.6,9.3
		C268.7,490.4,272.8,486.4,272.8,481.1 M389.7,587.3v-79.7h-20.8c-28.5,0-46.9,15.6-46.9,39.8c0,9.1,2.9,17.1,8.6,23.6l1.1,1.3
		h-33.7v-71.7h-15v7h-4.5c-28.3,0-48,16.4-48,39.9c0,19.2,12.6,39.8,48,39.8H389.7z M374.7,522.6v49.7h-22l-0.2-0.1
		c-9.8-5.8-15.5-14.8-15.5-24.8c0-12,9.6-24.8,27.3-24.8L374.7,522.6L374.7,522.6z M282.9,522.6v49.7h-9.1
		c-14.1,0-28.4-7.7-28.4-24.8c0-15.4,14.7-24.9,28.4-24.9H282.9z M372.2,486.4c0-5.3-4.3-9.5-9.9-9.5c-5.5,0-9.9,4.2-9.9,9.5
		c0,5.4,4.2,9.5,9.9,9.5C367.9,495.8,372.2,491.8,372.2,486.4 M519.1,493.8c0-5.3-4.3-9.5-9.9-9.5c-5.5,0-9.9,4.2-9.9,9.5
		c0,5.4,4.2,9.5,9.9,9.5C514.9,503.2,519.1,499.2,519.1,493.8 M658.1,587.5l0.2-0.2h60.9V470.2h-15v102.1h-36.5l0.3-1
		c1.5-4.3,2.2-8.8,2.2-13.6c0-24.3-18.4-42.7-42.7-42.7c-23.4,0-41.7,18.8-41.7,42.7c0,4.6,0.7,9.1,2.2,13.6l0.3,1h-29.9v-22.3
		c0-9.8-2.6-18.1-7.3-23.5c-6.2-7.1-13.7-10.2-25.2-10.2h-47.4v-8.8h-15v64.7h-36.1V470.2h-15v117.1h185.1l0.2,0.2
		c7.9,8.1,18.5,12.5,29.8,12.5C639.2,600,650.3,595.5,658.1,587.5 M655.2,557.6c0,15.6-11.9,27.3-27.7,27.3c-15,0-26.7-12-26.7-27.3
		c0-15.5,11.7-27.6,26.7-27.6C643.6,530,655.2,541.6,655.2,557.6 M478.4,531.4h47.4c6.3,0,10.9,1.8,13.7,5.3
		c2.6,3.2,3.8,7.3,3.8,13.3v22.3h-64.9V531.4z M762.4,470.2h-15v117.1h15V470.2z"/>
	<path class="st2" d="M786.8,899.9H212.2c-15,0-27.2-12.2-27.2-27.2V684.2c0-15,12.2-27.2,27.2-27.2h574.6c15,0,27.2,12.2,27.2,27.2
		v188.5C813.9,887.7,801.8,899.9,786.8,899.9"/>
	<path class="st1" d="M322.7,823.9l-38.2-129.3H231c17.8,53.6,55.8,168.4,56.3,168.4h67.4L410,694.6h-52.9L322.7,823.9z"/>
	<polygon class="st1" points="767.8,694.6 590.5,694.6 603.8,733.2 660.5,733.2 660.5,863 711.4,863 711.4,733.2 767.9,733.2 	"/>
	<path class="st0" d="M584,744.5l5.4,11.9c0,0-38.4,32.2-79.1,106.7c0,0-17.7-31.2-24.1-40.4l6.3-24.5l17.5,19.8
		C510,817.9,556.1,762.8,584,744.5"/>
	<path class="st1" d="M520.8,794.6c10.4-11.6,24.4-26.5,37.9-38.8c-11.2-33.2-20.8-61.2-21-61.2h-67.4L415,863h53l34.3-135.8
		C502.3,727.3,511.5,760.9,520.8,794.6"/>
	<path class="st1" d="M532.9,838.4c4.1,14.6,6.9,24.6,7,24.6h54.9c0,0-12.2-36.4-25.4-75.3C559.2,800,546.5,816.8,532.9,838.4"/>
</g>
</svg>
