<svg width="170" height="200" viewBox="0 0 170 200" fill="none" xmlns="http://www.w3.org/2000/svg">
<path d="M154.054 78.1402C154.436 82.4845 151.405 86.0048 148.394 87.9552C148.171 89.8742 147.774 91.7688 147.208 93.6157C149.794 91.3472 151.893 88.5914 154.054 85.876C154.31 92.1931 146.741 93.2317 145.723 99.2527C147.97 97.8321 150.875 94.504 153.463 92.4053C152.614 96.2212 149.265 100.101 145.131 101.627C144.623 102.411 144.432 103.514 143.944 104.298C147.379 102.475 149.817 99.6766 153.759 98.3409C152.17 102.496 148.629 104.7 143.944 105.781C142.97 106.692 142.546 108.134 142.163 109.639C145.471 108.685 148.502 104.869 153.166 104.276C151.725 106.968 149.477 108.791 146.616 110.233C143.796 111.653 139.917 111.481 139.176 114.982C143.12 113.584 146.192 111.293 151.366 111.123C149.288 115.299 144.751 116.995 138.283 116.783C137.478 118.267 135.994 119.051 135.316 120.641C139.343 119.454 143.541 117.059 148.693 117.97C146.615 122.167 140.383 124.627 134.129 122.719C132.581 123.44 132.032 125.178 130.863 126.28C134.828 125.538 139.873 124.437 143.646 125.983C141.653 129.821 133.174 130.244 129.972 127.171C128.234 128.613 126.793 130.329 124.927 131.622C128.913 132.047 135.082 131.135 137.71 133.7C134.19 136.116 125.52 135.586 122.551 133.107C120.728 134.167 119.075 135.375 116.892 136.075C118.927 137.028 123.824 137.113 127.3 137.559C124.534 138.53 121.578 138.835 118.672 138.449C117.274 138.279 115.789 137.261 114.517 137.261C111.21 137.261 107.182 139.699 103.812 140.823C100.102 142.072 96.6466 143.282 93.1063 144.385C100.186 148.307 108.306 151.19 116.001 154.496C112.864 156.511 109.027 157.825 105.889 159.86C100.25 154.2 91.6009 151.528 83.8846 147.968C76.4445 151.338 67.9428 153.648 63.0667 159.564C59.5055 157.782 55.9227 156.002 52.3615 154.2C59.6518 150.704 68.4091 147.861 74.3662 144.681C71.2284 143.451 68.1335 142.54 64.8479 141.417C61.9647 140.418 58.4454 138.258 55.6261 138.153C52.3804 138.003 47.782 140.887 43.1397 138.746C45.514 137.348 50.3896 138.471 52.6581 136.965C50.9232 136.376 49.3129 135.47 47.9094 134.293C43.627 136.329 37.4792 136.774 32.4554 135.184C34.1302 132.089 40.9985 132.662 45.2384 133.107C43.9901 131.177 41.6557 130.351 40.4897 128.358C36.907 131.135 29.4873 130.944 26.8164 127.468C29.9747 125.305 35.6352 126.747 39.3028 127.468C38.3276 126.26 37.5007 124.924 36.3347 123.906C30.2718 125.602 23.7015 123.737 22.0677 119.158C27.6008 118.883 31.1621 120.556 34.8507 122.125C34.4692 120.217 32.6247 119.794 32.1798 117.97C25.7348 118.565 20.6261 116.253 19.3967 112.607C24.2088 112.946 27.4096 114.918 30.9923 116.465C31.268 115.466 29.7205 114.068 28.9151 113.201C23.3819 112.586 19.9475 109.872 17.6156 106.056C22.0887 106.841 24.7177 109.47 28.0248 111.42C28.3848 110.254 27.1979 108.346 26.5407 107.265C21.8345 106.438 18.5064 104.191 17.0224 100.121C20.6675 101.435 23.0429 104.021 26.2436 105.781C26.3934 104.848 25.8197 104.615 25.6504 104C21.9613 101.647 18.5274 99.0395 17.0224 94.4815C20.0114 96.3685 22.1311 99.0819 24.7621 101.329C23.9986 94.9694 17.0878 94.7377 16.4307 88.2493C19.1016 90.3265 20.7554 93.4219 23.2781 95.6894C23.2566 88.3756 16.4941 87.8034 16.4307 80.532C18.7411 82.5883 19.9919 85.6837 21.794 88.2718C23.299 81.3185 16.9395 79.6437 17.3425 72.8178C19.3138 74.915 20.1617 78.1173 21.4974 80.8521C23.3839 72.4133 17.4059 69.2775 17.3425 61.8154C19.4621 64.4649 20.4583 68.1959 21.794 71.6304C24.2957 65.6733 18.6567 61.9432 19.7163 54.6709C21.5394 57.5116 21.7306 61.9612 22.981 65.3767C26.5852 60.0338 21.2003 54.9041 22.6844 48.4172C24.1259 50.7281 24.7197 53.9099 25.0587 57.3423C28.6414 54.2465 24.9738 48.5236 26.2456 43.6685C27.1364 45.7462 27.5389 48.3323 27.4331 51.4082C30.9094 49.352 27.6448 42.1655 29.5103 38.3286C30.2948 40.4907 30.4645 43.5437 30.104 46.0683C33.5384 44.8599 31.8018 38.4574 33.3687 35.3625C34.0473 36.6558 33.4745 39.2209 33.6653 41.0225C34.179 40.8562 34.6349 40.5475 34.98 40.1322C34.7441 40.4875 34.5985 40.8952 34.5561 41.3196C35.5313 41.6587 37.8417 41.065 39.3048 41.6162C37.4178 44.0964 31.2914 42.3153 31.27 46.6595C33.157 46.1722 35.4889 46.1103 37.5237 45.7692C36.2943 47.4015 33.7287 47.7196 30.6762 47.5499C29.7435 48.4192 29.3196 49.7759 28.8956 51.1116C29.9767 50.7087 32.8813 49.331 35.4464 50.2213C34.662 52.6181 31.609 52.7225 28.3024 52.5956C27.346 53.9074 26.7337 55.4379 26.5213 57.0472C29.0015 56.3482 31.3334 55.4993 33.6653 54.6729C32.9238 56.6023 29.0214 57.959 25.9256 58.5313C24.8235 59.9094 24.7811 62.3472 24.1449 64.1917C26.8373 62.4106 28.7029 59.8246 32.1798 58.8279C30.5899 62.1774 27.113 63.6829 23.8483 65.3787C23.7634 67.1803 23.4029 68.6858 23.2546 70.422C25.5441 68.3657 28.194 66.627 30.6947 64.762C29.9737 67.8144 26.1792 70.3586 22.955 71.906C22.8277 73.2627 23.2516 75.1707 22.6584 76.061C24.1209 76.04 24.0151 74.4287 24.7356 73.6866C26.5428 72.2874 28.4331 70.9989 30.3961 69.8283C29.5692 72.7744 26.1772 75.7204 22.956 77.2684C23.1467 79.2612 22.553 82.0171 23.2526 83.5221C24.9648 80.3215 27.2917 77.4903 30.1 75.1906C29.5912 78.7524 26.1992 81.9961 23.2526 84.1158C23.2741 86.0872 23.0833 88.2498 23.8463 89.4792C25.7118 86.4053 27.0685 82.7801 30.1 80.8511C29.6336 84.4339 26.2631 87.7195 23.8463 90.3695C24.2278 92.5741 24.5034 94.8635 25.627 96.3266C26.708 91.9384 28.8282 88.6313 30.9903 85.3242C31.1401 90.8998 23.5073 96.2417 27.4291 101.987C28.7223 98.0418 30.1215 94.1645 32.1778 90.9842C31.9021 94.9699 29.4004 99.3156 27.7257 102.877C28.0309 104.277 28.6386 105.594 29.5063 106.735C30.2908 102.665 31.9655 99.4849 33.3647 96.03C33.492 101.011 27.9164 107.753 32.4744 112.099C33.9794 108.749 34.2765 104.17 35.1453 100.206C36.3537 106.735 30.842 114.304 36.3327 117.759C36.9474 115.999 36.6508 113.328 37.2231 111.505V109.724C37.1806 108.982 37.5836 109.215 37.5197 109.724C37.4562 115.131 36.8206 121.13 40.4877 122.804C41.1448 120.408 40.7843 116.954 41.378 114.472V112.695C42.0352 115.005 41.6746 120.92 42.2684 124.291C43.286 125.372 44.028 126.688 45.533 127.259C44.986 123.419 44.7883 119.537 44.9423 115.661C47.5289 120.515 44.6672 130.818 50.8994 132.026C49.8163 128.353 49.2177 124.555 49.1188 120.727C51.175 123.038 51.8536 128.317 51.4931 132.026C52.5108 133.574 54.4187 134.253 56.2418 134.994C55.733 133.235 54.3124 129.78 54.1641 126.663C56.5174 127.087 57.26 131.706 57.4287 135.291C65.3153 137.708 74.7273 141.058 84.2037 140.951C93.5523 140.845 103.94 136.584 112.167 134.698C112.506 131.878 112.888 127.024 115.135 125.179C115.984 128.295 114.265 131.433 113.354 133.807C114.602 133.957 116.746 132.451 118.103 131.73C118.124 126.896 118.696 122.615 120.477 119.54C121.092 123.229 119.841 127.617 118.992 130.84C120.074 130.607 122.13 128.825 123.148 127.574C123.317 122.593 123.784 117.907 124.928 113.901C125.755 117.802 124.908 122.593 124.335 126.091C125.184 125.941 126.985 124.204 127.896 123.123C128.046 119.307 128.405 115.703 128.49 111.824C128.447 111.484 128.554 111.294 128.787 111.23V114.494C129.146 116.86 129.344 119.247 129.381 121.638C130.886 120.875 131.437 119.137 132.645 118.077C132.667 116.826 132.623 113.838 132.645 111.527C132.667 109.471 132.752 105.676 132.944 109.449C133.411 111.654 133.347 114.41 133.834 116.594C139.093 112.671 134.429 105.422 134.726 98.1502C135.827 102.009 136.59 106.206 137.397 110.339C142.759 106.799 137.227 100.103 136.803 94.5674C138.52 97.6204 140.152 100.736 140.661 104.976C142.039 104.467 141.933 102.475 142.739 101.415C140.936 97.5779 138.986 93.8678 137.99 89.225C140.387 92.0872 141.721 96.009 142.739 100.227C147.063 94.6523 139.601 89.0343 138.88 82.9713C141.361 86.236 143.862 89.5006 144.541 94.5674C146.151 93.5073 146.067 90.7515 146.618 88.6103C144.35 85.4305 141.275 83.0562 140.068 78.7954C143.269 80.5335 144.88 83.9041 146.322 87.4234C150.688 80.9999 140.768 78.5622 140.068 73.453C143.226 74.152 145.452 78.3714 147.212 81.4873C147.911 80.0038 147.318 77.2264 147.508 75.2336C144.386 73.3871 141.737 70.84 139.768 67.7935C140.828 66.6275 142.46 69.5951 142.44 69.5741C143.033 69.9346 143.711 69.4682 144.219 69.8707C145.428 70.8249 146.149 72.4782 147.484 73.7291C148.269 72.7329 147.061 71.1855 147.484 69.5741C144.238 67.8569 141.422 65.7372 139.45 62.7267C142.1 63.0448 144.643 66.0553 146.89 67.77C147.548 66.604 146.615 64.4844 146.594 63.0213C143.519 60.9441 139.788 59.5025 137.965 56.1744C140.7 56.7237 143.88 59.3752 146 61.5378C146.404 59.84 145.194 57.1935 144.516 55.5807C140.955 55.3685 138.665 53.9059 136.482 52.316C138.665 51.9131 141.23 53.7142 143.626 54.0967C144.175 52.74 142.627 50.9378 142.141 49.6446C138.75 49.7509 135.591 49.666 134.701 47.2707C137.182 46.4648 139.831 47.2917 141.548 48.161C141.149 46.8862 140.548 45.6836 139.768 44.5993C136.822 44.769 134.383 44.4495 132.92 43.1157C134.638 42.3947 137.16 43.4123 138.877 43.709C138.835 41.9708 137.52 41.5044 137.097 40.1477C134.616 40.1477 132.348 39.9569 130.843 38.9603C131.563 37.8158 133.896 38.0065 135.294 38.367C135.867 37.3918 134.001 36.2893 133.514 35.399C131.417 35.9483 127.727 35.9483 126.964 34.2121C128.829 34.2121 130.843 34.0847 132.326 34.5087C132.92 34.2755 133.025 31.8587 132.92 30.0566C133.578 33.2578 134.001 36.7132 136.482 38.0914C136.332 35.7595 136.632 33.894 136.779 31.8377C138.517 35.5897 136.694 41.059 140.043 43.1367C140.022 41.1014 140.043 37.1586 140.637 34.8053C142.948 38.812 139.62 45.2564 142.418 48.182C143.244 45.935 143.286 42.9035 143.901 40.4423C145.852 45.4456 141.654 50.7241 145.089 54.4127C146.105 51.4666 146.297 47.6927 147.76 45.191C149.498 52.1443 143.837 57.0627 147.463 62.7442C148.629 59.3522 149.18 55.324 150.431 52.0384C152.129 59.2883 146.53 62.5744 148.354 69.2945C150.177 66.1781 151.066 62.108 153.102 59.1824C153.377 66.1996 147.653 69.8033 148.65 78.5162C150.558 76.1629 151.384 72.7289 153.102 70.1848C153.951 76.776 147.738 78.8977 148.354 86.254C150.663 83.8636 151.957 80.599 154.054 78.1402Z" fill="#259146"/>
<path d="M126.093 27.5779C128.764 28.6804 130.29 30.9274 132.05 32.9413C130.48 31.9046 127.089 30.1664 126.093 27.5779Z" fill="#259146"/>
<path d="M43.4161 31.1417C43.4586 33.4521 39.6426 34.5122 38.3728 36.505C38.4767 35.4874 41.3389 32.1593 43.4161 31.1417Z" fill="#259146"/>
<path d="M37.4809 37.6919C39.3464 37.6919 41.4451 36.9714 43.1409 37.6919C41.1695 39.6423 36.8872 38.0734 35.1914 39.7697C36.251 38.3491 36.972 35.9537 36.8892 33.537C37.3326 34.5756 37.2687 37.3739 37.4809 37.6919Z" fill="#259146"/>
<path d="M35.1697 39.7697C35.0853 39.8755 35.0199 39.9604 34.9365 40.0663C35.0024 39.9587 35.0807 39.8591 35.1697 39.7697Z" fill="#259146"/>
<path d="M90.7327 55.5408L85.8996 59.0361L81.066 55.5408H84.7112C84.7112 55.5408 83.5877 52.8698 84.861 52.5727C84.861 52.5727 83.3769 50.114 84.479 49.8169C84.479 49.8169 82.8466 47.8879 84.6288 46.9976C84.6288 46.9976 83.357 44.835 84.7137 44.1779C84.7137 44.1779 83.1452 41.6552 84.7137 41.2103C84.7137 41.2103 83.3784 38.7511 84.7985 38.3905V31.5646C84.7985 31.5646 82.9545 30.4196 83.5267 36.6079L83.0813 37.0528L83.2311 38.8339C83.2311 38.8339 81.5983 38.007 82.192 36.8201L81.0685 37.265C81.0685 37.265 80.6236 36.3747 81.0685 34.5941C81.0685 34.5941 80.8563 34.1487 80.4323 35.1873C80.4323 35.1873 78.2278 33.4067 80.5387 31.0323V30.5025C80.5387 30.5025 79.4996 29.2307 81.5139 28.2765C81.5139 28.2765 82.7857 26.4109 80.4323 26.3475C80.4323 26.3475 79.8601 28.5731 79.1181 28.5731C79.1181 28.5731 79.0332 30.2059 78.2492 30.2059C78.2492 30.2059 78.3551 31.8807 77.2101 32.2831C77.2101 32.2831 77.5072 33.4706 76.956 33.6189C76.956 33.6189 76.8501 34.6575 77.2101 34.8482C76.434 34.1461 75.8978 33.2181 75.6773 32.195C75.4567 31.1719 75.5629 30.1054 75.9808 29.1458L77.6131 25.7753C77.6131 25.7753 78.058 24.7766 76.3837 25.0762L76.2774 26.2212C76.2774 26.2212 75.811 26.9632 75.5783 26.0304C75.5783 26.0304 74.4972 25.1816 74.6031 27.7686L74.7943 29.2102C74.7943 29.2102 74.3914 29.9947 74.0523 28.7229C74.0523 28.7229 72.2712 28.7653 74.0523 32.1993C74.0523 32.1993 70.7237 29.6766 72.8225 26.0514L77.0413 21.5364C77.0413 21.5364 76.8506 19.6494 73.8191 21.091C73.1966 21.4662 72.6324 21.9305 72.1444 22.4692C72.1444 22.4692 73.6284 18.2503 77.677 17.6141H80.5602C80.5602 17.6141 81.5588 15.2403 77.3804 16.3848C77.3804 16.3848 76.6813 13.1625 80.8997 13.947L83.719 16.3848L83.9736 16.4272V13.3553L85.6714 11.5746L87.6642 13.3128V16.4292L90.5469 13.9065C90.5469 13.9065 94.4687 12.8679 94.6175 16.196C94.6175 16.196 90.3562 15.1574 90.9923 17.5742H94.6175C94.6175 17.5742 98.8359 17.9766 99.8745 22.1741C99.8745 22.1741 96.9494 19.2485 94.6175 21.093L99.6204 26.2442C100.158 27.1887 100.339 28.2951 100.128 29.3615C99.9181 30.4279 99.3314 31.3832 98.4754 32.053C98.4754 32.053 99.8111 29.1698 98.2212 28.5341C98.2212 28.5341 97.8822 28.4278 97.4792 29.1698C97.4792 29.1698 97.9246 26.5837 97.0762 25.99C96.8573 25.8965 96.6119 25.8859 96.3857 25.96C96.1595 26.0342 95.968 26.188 95.8469 26.393C95.8469 26.393 95.9527 24.6543 94.2145 25.1631C94.2145 25.1631 94.0238 26.1618 95.8893 28.7883C95.8893 28.7883 97.4792 32.795 94.999 34.7878C94.999 34.7878 95.2532 32.2013 93.8116 31.4592C93.8116 31.4592 94.4477 29.9757 92.9213 29.5303C92.9213 29.5303 93.4091 28.8312 92.0724 28.1946C92.0724 28.1946 91.4787 27.9404 91.585 26.8169C91.585 26.8169 90.0586 25.5236 90.101 27.7497C90.101 27.7497 92.2846 29.4244 91.1821 30.3782C91.1821 30.3782 93.4715 32.4559 92.0309 33.7911C92.0309 33.7911 92.37 35.7206 91.1821 34.9361C91.1821 34.9361 90.483 33.7492 90.6328 36.1231C90.6328 36.1231 91.3748 37.6495 89.8483 37.0139C89.8483 37.0139 89.6985 38.3491 88.7673 38.8579V37.0154H88.3224V32.8599C88.3492 32.6883 88.3332 32.5127 88.2758 32.3488C88.2184 32.1849 88.1214 32.0376 87.9935 31.9202C87.8655 31.8028 87.7105 31.7187 87.5423 31.6756C87.374 31.6325 87.1978 31.6316 87.0291 31.673V38.1139C87.0291 38.1139 88.3224 38.7501 87.0715 41.1454C87.0715 41.1454 88.5556 41.442 87.114 44.0286C87.114 44.0286 88.4492 44.3252 87.2198 46.8478C87.2198 46.8478 88.958 46.9542 87.474 49.9217C87.474 49.9217 88.7673 49.9217 87.0715 52.5507C87.0715 52.5507 88.5556 52.4009 87.2213 55.37L90.7327 55.5408Z" fill="#259146"/>
<path d="M101.163 70.3811L99.4883 71.7168C96.6691 72.9037 93.7859 70.1269 93.7859 70.1269C92.7468 69.278 94.485 68.7912 94.485 68.7912C97.071 67.8584 94.9723 66.311 94.9723 66.311C92.4497 65.8656 93.2341 67.795 93.2341 67.795C93.8273 69.2366 92.4497 69.0244 92.4497 69.0244L87.722 64.5513C90.6476 61.755 96.4988 56.4321 101.099 54.1651C101.099 54.1651 105.318 51.0912 117.316 50.6038C117.316 50.6038 107.649 46.2366 97.2833 53.2323C97.2833 53.2323 89.1001 58.4474 85.8355 62.3058L85.7081 62.4331L85.5813 62.3058C82.3166 58.4474 74.1335 53.2323 74.1335 53.2323C63.7673 46.2366 54.1001 50.6038 54.1001 50.6038C66.0992 51.0912 70.3176 54.1651 70.3176 54.1651C74.918 56.4551 80.7902 61.755 83.6943 64.5513L78.9671 69.0244C78.9671 69.0244 77.5889 69.2151 78.1826 67.795C78.1826 67.795 78.9671 65.8656 76.4444 66.311C76.4444 66.311 74.3667 67.8374 76.9318 68.7912C76.9318 68.7912 78.67 69.279 77.6308 70.1269C77.6308 70.1269 74.7477 72.9037 71.9284 71.7168L70.2536 70.3811C70.2536 70.3811 67.8154 69.4907 67.4339 72.0134C67.4339 72.0134 69.4267 77.1226 75.9985 74.6848C77.6885 74.0417 79.1901 72.9848 80.3657 71.6109L81.2985 72.4598C81.2985 72.4598 81.1926 74.3887 82.7825 74.4946C82.7825 74.4946 83.8636 74.3039 83.8211 72.9047C83.8211 72.9047 83.5245 71.8236 81.9341 71.7178L81.1502 71.0187C81.1502 71.0187 84.1392 68.2629 85.6867 66.5457C87.2346 68.2629 90.2231 71.0187 90.2231 71.0187L89.4387 71.7178C87.8488 71.8236 87.5522 72.9047 87.5522 72.9047C87.5011 73.2509 87.5786 73.6037 87.7699 73.8967C87.9613 74.1896 88.2533 74.4023 88.5908 74.4946C90.1807 74.3887 90.0748 72.4598 90.0748 72.4598L91.0076 71.6109C92.179 72.9894 93.6819 74.0472 95.3748 74.6848C101.966 77.1226 103.939 72.0134 103.939 72.0134C103.58 69.4907 101.163 70.3811 101.163 70.3811Z" fill="#259146"/>
<path d="M104.258 77.4616H116.891C116.891 77.4616 113.626 104.385 85.0706 104.385C85.0706 104.385 61.1369 104.681 55.0315 77.4616H67.3691C67.3691 77.4616 72.2661 89.206 85.9609 90.0949C85.9629 90.1178 99.5094 90.1178 104.258 77.4616Z" fill="#259146"/>
<path d="M120.028 76.7196H134.593C134.593 76.7196 130.587 116.278 87.9134 119.987C87.9134 119.987 46.7231 123.548 37.353 77.4616H51.6186C51.6186 77.4616 56.6619 106.017 85.9615 106.017C85.963 106.017 113.034 107.798 120.028 76.7196Z" fill="#259146"/>
<path d="M84.9242 169.848C79.1784 169.852 73.4468 169.277 67.8165 168.131C62.3514 167.009 57.0113 165.348 51.8746 163.171C46.825 161.027 41.9908 158.407 37.4373 155.347C28.3925 149.242 20.6055 141.455 14.4998 132.41C11.4234 127.867 8.80349 123.031 6.67815 117.973C0.0184182 102.133 -1.71047 84.6533 1.71723 67.8159C2.83841 62.3507 4.50023 57.0104 6.67815 51.8741C8.82129 46.8245 11.4405 41.9906 14.5003 37.4377C20.6056 28.3928 28.3925 20.6057 37.4373 14.5002C41.9803 11.4237 46.8161 8.80347 51.8741 6.67758C67.7142 0.0185042 85.1939 -1.71036 102.032 1.71666C107.497 2.838 112.837 4.49981 117.973 6.67758C123.023 8.82039 127.858 11.4398 132.411 14.5002C141.456 20.6053 149.244 28.3925 155.349 37.4377C158.425 41.9807 161.045 46.8162 163.17 51.8741C169.829 67.7141 171.558 85.1938 168.131 102.031C167.009 107.496 165.348 112.836 163.17 117.973C161.027 123.023 158.407 127.857 155.347 132.41C149.242 141.455 141.456 149.242 132.411 155.347C127.868 158.424 123.032 161.044 117.974 163.171C107.521 167.603 96.2785 169.874 84.9242 169.848ZM84.9242 3.60366C74.0537 3.59421 63.2915 5.76396 53.2738 9.98469C48.4398 12.0309 43.8176 14.5451 39.4731 17.4912C35.1568 20.4128 31.1254 23.7344 27.4321 27.412C20.0252 34.8334 14.1096 43.6058 10.0052 53.2542C7.92479 58.1709 6.34182 63.2834 5.28 68.5155C1.97417 84.6378 3.62206 101.383 10.0072 116.552C12.0532 121.386 14.5667 126.008 17.5118 130.353C20.4331 134.669 23.7549 138.701 27.4331 142.394C34.8544 149.801 43.6265 155.716 53.2748 159.821C58.1926 161.901 63.3059 163.484 68.5385 164.548C84.6608 167.854 101.406 166.206 116.575 159.821C121.408 157.774 126.03 155.261 130.375 152.316C134.692 149.394 138.723 146.072 142.417 142.394C149.825 134.974 155.74 126.201 159.844 116.552C161.925 111.635 163.509 106.522 164.571 101.289C167.878 85.1666 166.23 68.4212 159.844 53.2527C157.798 48.4191 155.285 43.7969 152.34 39.4521C149.418 35.1357 146.097 31.1041 142.419 27.4105C134.997 20.0039 126.225 14.0882 116.577 9.98368C111.659 7.90288 106.545 6.31958 101.311 5.25746C95.9185 4.15473 90.4283 3.60064 84.9242 3.60366Z" fill="#259146"/>
<path d="M107.501 84.1393C107.501 84.1393 106.42 85.475 106.165 83.3973C106.165 83.3973 108.052 81.8074 109.494 85.475C109.494 85.475 109.685 88.2948 108.052 88.4006C108.052 88.4006 109.133 86.5775 108.497 85.0725C108.497 85.0725 108.561 83.9276 107.501 84.1393Z" fill="white"/>
<path d="M104.915 86.0263C104.869 86.6686 104.975 87.3128 105.226 87.906C105.476 88.4993 105.864 89.0247 106.357 89.4393C106.357 89.4393 107.353 92.3224 104.894 93.5942C104.894 93.5942 104.003 93.8274 104.894 92.4073C104.894 92.4073 106.335 91.1774 104.703 88.2099C104.703 88.2099 103.283 86.4502 104.067 85.7082C104.088 85.7292 104.915 85.2209 104.915 86.0263Z" fill="white"/>
<path d="M101.227 91.6014C101.227 91.6014 98.2163 90.5627 97.3894 87.6161C97.3894 87.6161 101.078 88.2099 102.859 91.6014C102.859 91.6014 103.94 94.6972 101.142 95.4597C101.142 95.4597 101.099 95.1207 101.884 93.4249C101.884 93.4249 102.433 91.8345 101.629 91.0081C100.891 90.0973 99.9267 89.3956 98.833 88.9728C98.833 88.9728 100.357 90.7939 101.227 91.6014Z" fill="white"/>
<path d="M125.817 84.4788C125.817 84.4788 122.234 84.4364 120.284 81.5327C121.595 81.3772 122.923 81.5069 124.178 81.9132C125.433 82.3194 126.586 82.9924 127.556 83.8861C127.556 83.8861 129.846 86.8541 127.195 88.7197C127.195 88.7197 127.026 88.3592 127.217 86.218C127.217 86.218 127.217 84.2676 126.05 83.6739C124.939 82.9535 123.662 82.5302 122.341 82.4445C123.462 83.1842 124.623 83.8633 125.817 84.4788Z" fill="white"/>
<path d="M87.9559 97.6848C87.9559 97.6848 86.1328 95.0773 87.2139 92.2156C87.2139 92.2156 89.8429 94.8656 89.2702 98.66C89.2702 98.66 88.3164 101.797 85.603 100.78C85.603 100.78 85.7723 100.483 87.4046 99.5718C87.4046 99.5718 88.8028 98.6176 88.613 97.4746C88.5604 96.3073 88.2023 95.1743 87.5744 94.189C87.5744 94.1455 87.7437 96.5199 87.9559 97.6848Z" fill="white"/>
<path d="M103.771 109.07C103.771 109.07 101.247 107.098 101.46 103.877C102.487 104.476 103.369 105.297 104.04 106.28C104.711 107.263 105.155 108.383 105.339 109.558C105.339 109.558 105.318 113.034 102.413 112.992C102.413 112.992 102.498 112.632 103.812 111.126C103.812 111.126 104.893 109.664 104.384 108.583C103.998 107.45 103.318 106.44 102.412 105.657C102.392 105.657 103.24 107.967 103.771 109.07Z" fill="white"/>
<path d="M67.3711 108.752C67.3711 108.752 67.2018 105.551 69.8093 103.6C70.0286 104.773 69.9825 105.979 69.6743 107.131C69.3662 108.283 68.8039 109.351 68.0287 110.257C68.0287 110.257 65.3997 112.504 63.5132 110.278C63.5132 110.278 63.8308 110.108 65.8451 110.128C65.8451 110.128 67.6467 109.978 68.1345 108.899C68.7343 107.868 69.0558 106.699 69.0673 105.507C68.4467 106.559 67.8805 107.642 67.3711 108.752Z" fill="white"/>
<path d="M78.0982 96.8164C78.0982 96.8164 77.144 93.764 79.031 91.3687C79.031 91.3687 80.7288 94.6968 79.052 98.1312C79.052 98.1312 77.2079 100.823 74.918 99.0425C74.918 99.0425 75.1726 98.8093 77.0152 98.4278C77.0152 98.4278 78.626 97.9405 78.8168 96.7955C79.1082 95.6621 79.1082 94.4734 78.8168 93.3401C78.8188 93.3186 78.2466 95.6295 78.0982 96.8164Z" fill="white"/>
<path d="M99.7 92.6829C99.7 92.6829 99.0639 92.4283 99.4668 94.6543C99.4668 94.6543 100.76 98.7034 97.0925 99.4454C97.0925 99.4454 96.3934 99.6362 97.3891 98.5127C98.3848 97.3892 99.1063 96.8379 98.8307 94.5679C98.8307 94.5679 98.0467 91.8755 99.2127 91.5364C99.2127 91.5589 100.018 91.4745 99.7 92.6829Z" fill="white"/>
<path d="M95.7151 95.0383C95.0707 94.9787 94.4479 94.7758 93.892 94.4446L93.51 95.4837C94.252 95.8228 93.892 96.7131 93.892 96.7131C93.892 98.9816 95.7151 98.0488 95.7151 98.0488C97.1991 96.1808 95.7151 95.0383 95.7151 95.0383ZM95.6302 97.0097C95.6302 97.0097 94.6315 97.54 94.4003 96.7131C94.3576 96.3184 94.3576 95.9203 94.4003 95.5257C94.4218 95.5022 96.3093 95.7778 95.6302 97.0072V97.0097Z" fill="white"/>
<path d="M84.7744 97.919C84.7744 97.919 83.8841 95.2481 84.7744 92.7888C84.7744 92.7888 86.7887 94.9509 86.1101 98.7669C86.1101 98.7669 85.7077 100.929 83.9905 100.484C83.9905 100.484 82.803 100.675 82.5064 99.0635C82.5064 99.0635 81.1707 103.261 78.4998 100.696C78.4998 100.696 81.5956 100.929 82.0401 98.2156L82.7821 96.5833C83.0219 97.2785 83.1367 98.0107 83.1211 98.7459C83.1211 98.7459 84.0539 100.378 85.6013 98.661C85.8101 97.2781 85.5882 95.8644 84.9657 94.6119C84.7301 95.6976 84.6656 96.8134 84.7744 97.919Z" fill="white"/>
<path d="M76.0206 96.5833C75.4877 95.8989 75.0059 95.1762 74.579 94.4211C73.5404 93.043 71.3333 95.5022 71.3333 95.5022C69.701 95.2056 70.1034 94.167 70.1034 94.167L73.5589 89.5666L72.6261 89.7164L69.5736 93.7231C67.8355 94.1685 67.5598 92.2181 67.5598 92.2181C68.3862 91.6688 67.814 91.3487 67.814 91.3487C66.0968 91.7302 65.3338 90.755 65.3338 90.755C64.5493 89.8223 66.0758 88.7202 66.0758 88.7202C67.2627 87.2996 65.5265 87.1513 65.5265 87.1513L61.8814 87.1089C61.436 85.837 63.4498 84.353 63.4498 84.353C64.0619 84.1711 64.7159 84.1881 65.3177 84.4013C65.9196 84.6146 66.4383 85.0132 66.7993 85.5399C68.0926 86.9606 68.1351 86.4727 68.1351 86.4727L65.9724 83.9081C63.4078 82.7207 61.2452 85.498 61.2452 85.498C59.9519 87.3211 61.2452 87.9567 61.2452 87.9567H64.7855C65.8666 88.3382 64.2557 89.5466 64.2557 89.5466C63.8103 92.0273 66.7359 92.1966 66.7359 92.1966C66.4393 94.6983 69.2161 94.4226 69.2161 94.4226C69.2161 96.1608 70.6367 96.3306 70.6367 96.3306C70.5644 96.7093 70.4505 97.0789 70.2972 97.4326L71.1026 96.5838C74.0707 96.6262 74.4946 96.9867 74.4946 96.9867C76.7626 97.4736 76.0206 96.5833 76.0206 96.5833ZM72.2471 95.7778C72.2659 95.5549 72.3603 95.3451 72.5147 95.1831C72.6691 95.0212 72.8742 94.9169 73.096 94.8875C74.3443 94.7817 74.3683 95.7778 74.3683 95.7778H72.2471Z" fill="white"/>
<path d="M68.7705 85.4326V84.5422H67.647V85.4326L68.41 85.6233V86.3653L69.3852 86.5985V85.7716L68.7705 85.4326Z" fill="white"/>
<path d="M124.907 89.8207C126.283 87.5527 124.397 87.3615 124.397 87.3615L124.247 88.4006C123.398 89.2495 123.611 86.7468 123.611 86.7468C122.679 83.5461 119.267 83.8851 119.267 83.8851C119.352 85.5175 122.213 87.2347 122.213 87.2347C122.128 86.6854 120.58 85.1145 120.58 85.1145C122.616 85.6023 123.04 86.4502 123.04 86.4502L123.125 87.6371C122.913 89.3124 124.014 89.609 124.014 89.609C124.261 90.2411 124.289 90.9377 124.093 91.5872C123.896 92.2368 123.488 92.8018 122.933 93.1918L121.746 93.2766L121.831 93.6581C122.53 95.7778 120.347 96.2232 120.347 96.2232L115.896 92.2785L115.746 93.0629L119.943 96.9213C120.134 99.1468 117.781 99.1893 117.781 99.1893L114.621 95.9037L115.024 94.144L116.763 96.37C116.093 94.9335 115.35 93.5325 114.537 92.1726C114.537 95.4797 112.523 98.8293 112.523 98.8293C113.668 98.1931 114.388 96.6457 114.388 96.6457L117.166 99.6981C117.95 100.97 115.681 102.412 115.681 102.412L114.791 101.862C113.287 100.336 112.778 102.095 112.778 102.095L112.82 106.25L112.566 106.78C109.025 106.547 109.534 102.795 109.534 102.795C112.036 100.463 111.866 99.5303 111.866 99.5303L109.174 102.392C107.944 105.36 110.658 106.971 110.658 106.971C112.375 108.709 113.562 107.374 113.562 107.374L113.456 104.278C113.117 101.862 114.092 102.243 114.092 102.243C114.983 103.515 115.661 103.367 115.661 103.367C118.31 103.473 118.119 100.271 118.119 100.271C121.427 100.121 120.6 97.1545 120.6 97.1545C122.126 97.6209 122.486 95.4567 122.486 95.4567C123.313 97.0257 124.225 96.1558 124.225 96.1558C125.053 94.863 123.738 93.5907 123.738 93.5907C125.371 93.2127 124.907 89.8207 124.907 89.8207ZM122.892 94.4426C122.999 94.4178 123.109 94.4189 123.215 94.4459C123.32 94.473 123.418 94.5251 123.499 94.5979C123.58 94.6707 123.642 94.762 123.681 94.8641C123.719 94.9661 123.732 95.0759 123.719 95.1841C123.697 95.1841 122.892 95.6929 122.892 94.4426Z" fill="white"/>
<path d="M100.4 110.426C100.4 110.426 97.7499 107.522 98.6826 104.915C98.6826 104.915 101.502 106.335 101.99 110.426C101.99 110.426 102.839 114.371 98.789 113.182C98.3062 113.787 97.6769 114.258 96.9608 114.551C96.2447 114.844 95.4656 114.95 94.6974 114.857C94.6974 114.857 93.6988 115.197 93.2773 116.723C93.2773 116.723 92.768 118.886 89.3131 118.206C89.3131 118.206 88.0647 118.056 90.8181 117.571C92.0341 116.872 92.976 115.78 93.489 114.475C93.489 114.475 94.1037 113.776 95.7575 113.733C95.7575 113.733 97.7289 113.097 98.0679 112.589C98.0679 112.589 97.9181 112.059 96.8196 112.292C96.8196 112.292 96.544 111.02 98.2827 110.511C98.2827 110.511 99.3637 110.257 99.3213 111.296L99.3637 112.334C99.3637 112.334 101.738 112.589 101.335 109.918C101.335 109.918 100.593 107.904 99.4062 106.865L100.4 110.426Z" fill="white"/>
<path d="M89.0578 111.317C89.0578 111.317 90.9233 112.398 89.3334 115.218C89.3334 115.218 86.3654 117.041 84.6272 115.218C84.6272 115.218 84.6696 114.837 83.9491 115.133C83.9491 115.133 81.2776 117.146 79.2638 114.603C79.1204 114.371 79.0258 114.112 78.9857 113.843C78.9456 113.573 78.9609 113.298 79.0306 113.034C79.0306 113.034 78.395 112.035 77.3329 113.479L75.2357 115.641C75.2357 115.641 73.5609 116.596 73.455 113.649C73.455 113.649 72.374 108.985 76.3592 108.921C76.3592 108.921 78.6911 109.471 79.6024 109.367C79.6024 109.367 78.6276 110.066 75.8928 109.558C75.8928 109.558 74.1121 109.408 74.3663 112.207C74.3663 112.207 74.4512 114.708 75.4898 114.54L78.2861 111.614C78.2861 111.614 79.6842 110.596 79.7916 112.758C79.7916 112.758 79.6218 114.285 80.9576 114.688C80.9576 114.688 84.0534 115.515 84.8154 113.31L85.5999 114.603C85.5999 114.603 87.8259 115.43 89.0553 114.263C89.0553 114.263 89.7973 113.564 88.7163 113.119C88.7192 113.14 87.5318 112.166 89.0578 111.317Z" fill="white"/>
<path d="M64.1517 106.886C64.1517 106.886 65.4869 102.137 67.1192 101.947C67.4082 103.213 67.3458 104.533 66.9385 105.766C66.5313 106.999 65.7949 108.098 64.8088 108.942C64.8088 108.942 63.7702 109.684 61.8408 108.54L57.4965 104.936V104.003L56.373 103.853L54.6982 102.56V101.818C54.6982 101.818 51.2428 103.79 50.3101 99.4016C50.3101 99.4016 52.0273 102.052 54.2953 101.415V100.991C54.2953 100.991 53.3625 100.249 54.0621 99.6772C54.0621 99.6772 55.3554 99.444 55.3554 99.9738L55.4612 101.945L57.0301 103.238H57.4331V102.496L57.136 102.454L57.2858 101.861L58.7913 102.011L59.0245 103.685L58.4308 103.919L58.4732 104.597L59.5543 105.446L60.3812 104.958L60.0841 105.743L60.911 106.442L61.9496 106.187L61.4553 106.78L61.8368 107.035L62.9178 106.695L62.2188 107.522C62.2188 107.522 63.8511 109.367 65.3351 107.755C66.0961 106.552 66.3975 105.114 66.184 103.706C66.2055 103.643 64.5941 106.823 64.1517 106.886Z" fill="white"/>
<path d="M50.9196 95.5022C50.9196 95.5022 50.4742 92.8947 53.1452 92.7888H54.1439C54.1439 92.7888 55.3308 96.4989 52.8506 97.4327C52.8506 97.4327 49.6493 99.044 47.9111 94.8681V94.4012C48.9187 95.4177 50.0109 96.3468 51.1758 97.1785C51.1758 97.1785 53.3804 97.4966 53.3804 95.292C53.3804 95.292 53.9296 93.7021 52.7447 93.405C52.7447 93.405 52.0661 93.2143 52.2144 95.1222C52.0795 95.3297 51.8748 95.482 51.6373 95.5517C51.3999 95.6214 51.1453 95.6039 50.9196 95.5022Z" fill="white"/>
<path d="M51.3233 91.7926H50.0939L49.5637 93.022H48.9719L47.403 90.9867V89.7783L48.548 88.6548C48.548 88.6548 49.5467 87.8284 47.403 87.1288C47.403 87.1288 44.5413 86.5351 44.393 86.5796C44.2447 86.624 43.7569 85.1589 44.8379 84.2052C44.8379 84.2052 47.2547 81.8733 48.6748 84.5443C48.6748 84.5443 49.2685 86.4732 50.5618 87.0245C49.9531 86.0601 49.4417 85.0376 49.0354 83.972C49.0354 83.972 47.3376 81.0259 44.1593 83.8657C44.1593 83.8657 42.2094 85.3072 43.248 87.0245C43.2905 87.2577 44.2232 87.8514 46.5976 87.6606C46.5976 87.6606 48.7173 88.0421 46.9366 89.3988C46.9366 89.3988 45.938 89.5896 46.1946 91.3492L48.4207 93.9777C48.4207 93.9777 49.6925 94.9764 51.3248 92.5576L51.3233 91.7926Z" fill="white"/>
<path d="M101.693 84.7754H103.05V85.9204L101.884 85.7291L101.693 84.7754Z" fill="white"/>
<path d="M93.1073 92.7913V92.0922L94.1883 92.2196V93.2182L93.1073 93.0684L92.9165 94.0012L91.9179 93.4714C91.9179 93.4714 91.833 92.6445 91.9179 92.6225C92.3177 92.6518 92.7151 92.7082 93.1073 92.7913Z" fill="white"/>
<path d="M110.724 98.6395V97.8975H111.888V98.8962H110.723V99.9773H109.493L109.726 98.9386L110.724 98.6395Z" fill="white"/>
<path d="M87.8283 116.702L88.6976 117.698L87.8283 118.439L87.1926 117.74L87.8283 116.702Z" fill="white"/>
<path d="M84.9242 117.253L85.836 118.037L84.9242 119.118L84.1188 118.186L83.4197 119.118L82.3811 118.186L83.3348 117.253L84.0978 117.825L84.9242 117.253Z" fill="white"/>
<path d="M79.2854 107.861L80.0693 107.437L80.8752 108.436L79.7942 109.178L79.0951 108.436L78.3106 108.754L77.6116 107.715L78.5019 106.973L79.2854 107.861Z" fill="white"/>
<path d="M75.2373 91.8985L75.5344 93.043H74.3684V92.0892L75.2373 91.8985Z" fill="white"/>
<path d="M65.4846 93.9972V94.8665H64.5309V93.9972H63.6615L63.5117 93.043H64.6777L64.7835 93.9548L65.4846 93.9972Z" fill="white"/>
<path d="M47.2745 93.9547C47.2745 93.9547 47.4243 94.8665 47.2745 94.8665H45.8963L46.1295 93.5732H45.4089V92.28L46.6807 92.4707L46.6383 93.5732L47.2745 93.9547Z" fill="white"/>
<path d="M52.2142 86.1112L51.8961 87.2981L51.1755 86.959V85.8565L50.3267 85.4326V84.3525L51.7048 84.5433L51.3233 85.7092L52.2142 86.1112Z" fill="white"/>
<path d="M19.2026 193.476C19.2967 193.476 19.3673 193.575 19.4144 193.773C19.4615 193.961 19.485 194.224 19.485 194.563C19.485 194.912 19.4615 195.185 19.4144 195.382C19.3673 195.58 19.2967 195.679 19.2026 195.679H18.4542C17.3433 195.679 16.5149 195.349 15.9688 194.69C15.0651 195.076 14.2319 195.269 13.4694 195.269C12.7351 195.269 12.062 195.105 11.4501 194.775C10.8382 194.436 10.3533 193.975 9.99559 193.391C9.63785 192.808 9.45898 192.167 9.45898 191.471C9.45898 190.774 9.63785 190.139 9.99559 189.564C10.3533 188.981 10.8382 188.524 11.4501 188.195C12.0714 187.865 12.7492 187.7 13.4835 187.7H15.2487V187.305H17.7622V192.304C17.7622 192.718 17.8422 193.019 18.0023 193.208C18.1623 193.387 18.4306 193.476 18.8072 193.476H19.2026ZM13.6812 193.066C14.1519 193.066 14.6744 192.897 15.2487 192.558V189.903H13.653C13.1823 189.903 12.7822 190.059 12.4527 190.369C12.1326 190.671 11.9726 191.038 11.9726 191.471C11.9726 191.923 12.1326 192.304 12.4527 192.615C12.7822 192.916 13.1917 193.066 13.6812 193.066ZM14.7262 186.613C14.4343 186.613 14.1896 186.514 13.9919 186.317C13.7942 186.119 13.6953 185.869 13.6953 185.568C13.6953 185.267 13.7942 185.017 13.9919 184.82C14.1896 184.622 14.4343 184.523 14.7262 184.523C15.0274 184.523 15.2722 184.622 15.4605 184.82C15.6582 185.017 15.757 185.267 15.757 185.568C15.757 185.869 15.6582 186.119 15.4605 186.317C15.2722 186.514 15.0274 186.613 14.7262 186.613ZM12.2973 186.613C12.0055 186.613 11.7607 186.514 11.563 186.317C11.3653 186.119 11.2665 185.869 11.2665 185.568C11.2665 185.267 11.3653 185.017 11.563 184.82C11.7607 184.622 12.0055 184.523 12.2973 184.523C12.5986 184.523 12.8434 184.622 13.0316 184.82C13.2293 185.017 13.3282 185.267 13.3282 185.568C13.3282 185.869 13.2293 186.119 13.0316 186.317C12.8434 186.514 12.5986 186.613 12.2973 186.613Z" fill="#259146"/>
<path d="M23.2101 188.407V195.679H19.1997C19.1056 195.679 19.035 195.58 18.9879 195.382C18.9408 195.185 18.9173 194.912 18.9173 194.563C18.9173 194.224 18.9408 193.961 18.9879 193.773C19.035 193.575 19.1056 193.476 19.1997 193.476H20.7107V188.407H23.2101ZM23.1819 198.87C22.89 198.87 22.6453 198.771 22.4476 198.574C22.2499 198.376 22.151 198.127 22.151 197.825C22.151 197.524 22.2499 197.275 22.4476 197.077C22.6453 196.879 22.89 196.78 23.1819 196.78C23.4831 196.78 23.7279 196.879 23.9162 197.077C24.1139 197.275 24.2127 197.524 24.2127 197.825C24.2127 198.127 24.1139 198.376 23.9162 198.574C23.7279 198.771 23.4831 198.87 23.1819 198.87ZM20.753 198.87C20.4612 198.87 20.2164 198.771 20.0187 198.574C19.821 198.376 19.7222 198.127 19.7222 197.825C19.7222 197.524 19.821 197.275 20.0187 197.077C20.2164 196.879 20.4612 196.78 20.753 196.78C21.0543 196.78 21.2991 196.879 21.4873 197.077C21.685 197.275 21.7839 197.524 21.7839 197.825C21.7839 198.127 21.685 198.376 21.4873 198.574C21.2991 198.771 21.0543 198.87 20.753 198.87Z" fill="#259146"/>
<path d="M35.1373 193.476C35.2315 193.476 35.3021 193.575 35.3491 193.773C35.3962 193.961 35.4197 194.224 35.4197 194.563C35.4197 194.912 35.3962 195.185 35.3491 195.382C35.3021 195.58 35.2315 195.679 35.1373 195.679H34.05C33.0898 195.679 32.3084 195.505 31.7059 195.156C30.4444 195.505 29.084 195.679 27.6249 195.679C26.6176 195.679 25.6385 195.589 24.6877 195.411V193.151C25.6197 193.368 26.5893 193.476 27.5966 193.476C28.5192 193.476 29.3759 193.391 30.1667 193.222C30.0537 192.921 29.9596 192.657 29.8842 192.431L28.2886 187.813L30.6609 187.121L32.2566 191.725C32.4543 192.309 32.6096 192.709 32.7226 192.925C32.8356 193.142 32.9815 193.288 33.1604 193.363C33.3392 193.429 33.6358 193.462 34.05 193.462H35.1373V193.476Z" fill="#259146"/>
<path d="M43.4585 193.476V195.679H35.1412C35.047 195.679 34.9764 195.58 34.9294 195.382C34.8823 195.185 34.8588 194.912 34.8588 194.563C34.8588 194.224 34.8823 193.961 34.9294 193.773C34.9764 193.575 35.047 193.476 35.1412 193.476H36.4262C36.2191 193.005 36.1155 192.511 36.1155 191.993C36.1155 191.268 36.2991 190.614 36.6663 190.03C37.0334 189.437 37.5324 188.976 38.1631 188.647C38.7939 188.308 39.4905 188.138 40.253 188.138C41.1662 188.138 42.1829 188.407 43.3032 188.943L42.1312 190.878C41.3215 190.52 40.7049 190.341 40.2813 190.341C39.7917 190.341 39.3916 190.496 39.081 190.807C38.7797 191.108 38.6291 191.499 38.6291 191.979C38.6291 192.356 38.7327 192.681 38.9398 192.954C39.1469 193.227 39.4246 193.401 39.7729 193.476H43.4585Z" fill="#259146"/>
<path d="M48.9819 193.476C49.076 193.476 49.1467 193.575 49.1937 193.773C49.2408 193.961 49.2643 194.224 49.2643 194.563C49.2643 194.912 49.2408 195.185 49.1937 195.382C49.1467 195.58 49.076 195.679 48.9819 195.679H44.915V185.046H47.4286V193.476H48.9819Z" fill="#259146"/>
<path d="M65.127 193.476C65.2212 193.476 65.2918 193.575 65.3388 193.773C65.3859 193.961 65.4094 194.224 65.4094 194.563C65.4094 194.912 65.3859 195.185 65.3388 195.382C65.2918 195.58 65.2212 195.679 65.127 195.679H64.0679C63.2018 195.679 62.5052 195.444 61.978 194.973C61.4037 195.444 60.58 195.679 59.5068 195.679C58.443 195.679 57.6428 195.448 57.1062 194.987C56.5508 195.448 55.727 195.679 54.635 195.679C53.5524 195.679 52.7475 195.444 52.2203 194.973C51.646 195.444 50.8176 195.679 49.735 195.679H48.9865C48.8924 195.679 48.8218 195.58 48.7747 195.382C48.7276 195.185 48.7041 194.912 48.7041 194.563C48.7041 194.224 48.7276 193.961 48.7747 193.773C48.8218 193.575 48.8924 193.476 48.9865 193.476H49.4525C49.9327 193.476 50.2574 193.391 50.4269 193.222C50.5963 193.052 50.6811 192.746 50.6811 192.304V189.819H53.1946V192.318C53.1946 192.61 53.1711 192.906 53.124 193.208C53.237 193.302 53.3829 193.372 53.5618 193.42C53.7407 193.457 53.976 193.476 54.2679 193.476C54.6256 193.476 54.8986 193.443 55.0869 193.377C55.2752 193.311 55.4022 193.198 55.4681 193.038C55.5435 192.869 55.5811 192.624 55.5811 192.304V189.113H58.0947V192.318C58.0947 192.619 58.0711 192.925 58.0241 193.236C58.2406 193.396 58.6125 193.476 59.1396 193.476C59.4974 193.476 59.7704 193.443 59.9587 193.377C60.147 193.311 60.2741 193.198 60.34 193.038C60.4153 192.869 60.4529 192.624 60.4529 192.304V188.407H62.9665V192.318C62.9665 192.61 62.943 192.911 62.8959 193.222C63.0842 193.391 63.3431 193.476 63.6725 193.476H65.127Z" fill="#259146"/>
<path d="M76.5592 193.476C76.6533 193.476 76.7239 193.575 76.771 193.773C76.8181 193.961 76.8416 194.224 76.8416 194.563C76.8416 194.912 76.8181 195.185 76.771 195.382C76.7239 195.58 76.6533 195.679 76.5592 195.679H76.3897C75.5048 195.679 74.7376 195.486 74.088 195.1C73.5232 195.288 72.9395 195.434 72.337 195.538C71.7345 195.632 71.1885 195.679 70.6989 195.679C69.7763 195.679 68.8585 195.472 67.9453 195.058C67.5028 195.472 66.9192 195.679 66.1943 195.679H65.1211C65.0269 195.679 64.9563 195.58 64.9092 195.382C64.8622 195.185 64.8386 194.912 64.8386 194.563C64.8386 194.224 64.8622 193.961 64.9092 193.773C64.9563 193.575 65.0269 193.476 65.1211 193.476H65.3188C65.5824 193.476 65.7848 193.415 65.926 193.292C66.0766 193.161 66.1754 192.968 66.2225 192.713L66.279 192.417C66.392 191.749 66.552 191.108 66.7591 190.496C66.9662 189.885 67.3287 189.324 67.8465 188.816C68.3736 188.298 69.0844 188.039 69.9787 188.039C70.7601 188.039 71.485 188.246 72.1534 188.661C72.8312 189.075 73.4008 189.649 73.8621 190.383C74.3328 191.118 74.6576 191.951 74.8364 192.883C74.9588 193.099 75.1047 193.255 75.2742 193.349C75.453 193.434 75.7119 193.476 76.0508 193.476H76.5592ZM68.7361 192.911C69.1221 193.118 69.4657 193.264 69.7669 193.349C70.0776 193.434 70.4024 193.476 70.7413 193.476C71.2496 193.476 71.791 193.405 72.3652 193.264C72.2523 192.709 72.0734 192.205 71.8286 191.753C71.5838 191.292 71.3061 190.929 70.9955 190.666C70.6942 190.393 70.393 190.256 70.0917 190.256C69.6587 190.256 69.3433 190.511 69.1456 191.019C68.9479 191.527 68.8114 192.158 68.7361 192.911Z" fill="#259146"/>
<path d="M80.1964 185.046V195.679H76.5531C76.459 195.679 76.3884 195.58 76.3413 195.382C76.2943 195.185 76.2707 194.912 76.2707 194.563C76.2707 194.224 76.2943 193.961 76.3413 193.773C76.3884 193.575 76.459 193.476 76.5531 193.476H77.6828V185.046H80.1964Z" fill="#259146"/>
<path d="M82.2864 185.046H84.8V195.679H82.2864V185.046Z" fill="#259146"/>
<path d="M99.0024 187.404C98.6446 187.404 98.3481 187.286 98.1127 187.051C97.8774 186.816 97.7597 186.514 97.7597 186.147C97.7597 185.78 97.8774 185.479 98.1127 185.243C98.3481 185.008 98.6446 184.89 99.0024 184.89C99.3601 184.89 99.6566 185.008 99.892 185.243C100.127 185.479 100.245 185.78 100.245 186.147C100.245 186.514 100.127 186.816 99.892 187.051C99.6566 187.286 99.3601 187.404 99.0024 187.404ZM107.108 193.476C107.202 193.476 107.273 193.575 107.32 193.773C107.367 193.961 107.39 194.224 107.39 194.563C107.39 194.912 107.367 195.185 107.32 195.382C107.273 195.58 107.202 195.679 107.108 195.679H106.444C105.719 195.679 105.089 195.453 104.552 195.001C104.025 194.54 103.634 193.998 103.38 193.377C102.881 192.379 102.227 191.631 101.417 191.132C100.607 190.624 99.7602 190.369 98.8753 190.369C97.8962 190.369 97.4067 190.633 97.4067 191.16C97.4067 191.358 97.482 191.527 97.6326 191.668C97.7926 191.8 97.9856 191.909 98.2116 191.993C98.4469 192.078 98.7858 192.182 99.2283 192.304C99.9344 192.492 100.523 192.69 100.993 192.897C101.464 193.104 101.869 193.424 102.208 193.857C102.547 194.281 102.716 194.85 102.716 195.566C102.716 196.714 102.217 197.576 101.219 198.15C100.221 198.724 98.6399 199.012 96.4747 199.012C94.4506 199.012 92.8973 198.682 91.8147 198.023C90.7415 197.373 90.2049 196.338 90.2049 194.916C90.2049 194.606 90.2284 194.239 90.2755 193.815C90.3226 193.382 90.3932 192.977 90.4873 192.6L92.9303 193.123C92.8644 193.368 92.8126 193.66 92.7749 193.998C92.7373 194.337 92.7184 194.648 92.7184 194.93C92.7184 195.373 92.8126 195.726 93.0009 195.99C93.1891 196.253 93.5516 196.451 94.0882 196.583C94.6248 196.724 95.3968 196.794 96.4041 196.794C97.3831 196.794 98.141 196.743 98.6776 196.639C99.2236 196.536 99.5955 196.394 99.7931 196.216C100 196.037 100.104 195.815 100.104 195.552C100.104 195.251 99.9485 195.025 99.6378 194.874C99.3366 194.714 98.8564 194.545 98.1975 194.366C97.5008 194.187 96.9218 194.003 96.4606 193.815C96.0087 193.617 95.618 193.321 95.2885 192.925C94.959 192.53 94.7943 192.007 94.7943 191.358C94.7943 190.718 94.9543 190.158 95.2744 189.677C95.6039 189.197 96.084 188.825 96.7147 188.562C97.3549 188.298 98.1268 188.166 99.0306 188.166C100.141 188.166 101.088 188.355 101.869 188.731C102.65 189.108 103.281 189.569 103.761 190.115C104.241 190.652 104.736 191.315 105.244 192.106C105.489 192.568 105.738 192.911 105.992 193.137C106.256 193.363 106.552 193.476 106.882 193.476H107.108Z" fill="#259146"/>
<path d="M113.269 193.476C113.363 193.476 113.434 193.575 113.481 193.773C113.528 193.961 113.551 194.224 113.551 194.563C113.551 194.912 113.528 195.185 113.481 195.382C113.434 195.58 113.363 195.679 113.269 195.679H112.535C111.659 195.679 110.958 195.439 110.431 194.959C109.894 195.439 109.15 195.679 108.2 195.679H107.112C107.018 195.679 106.947 195.58 106.9 195.382C106.853 195.185 106.83 194.912 106.83 194.563C106.83 194.224 106.853 193.961 106.9 193.773C106.947 193.575 107.018 193.476 107.112 193.476H107.847C108.232 193.476 108.501 193.387 108.651 193.208C108.811 193.019 108.891 192.718 108.891 192.304V188.407H111.405V192.318C111.405 192.6 111.382 192.892 111.334 193.194C111.523 193.382 111.791 193.476 112.139 193.476H113.269ZM110.092 199.322C109.734 199.322 109.437 199.204 109.202 198.969C108.967 198.734 108.849 198.433 108.849 198.065C108.849 197.698 108.967 197.397 109.202 197.162C109.437 196.926 109.734 196.809 110.092 196.809C110.45 196.809 110.746 196.926 110.981 197.162C111.217 197.397 111.334 197.698 111.334 198.065C111.334 198.433 111.217 198.734 110.981 198.969C110.746 199.204 110.45 199.322 110.092 199.322Z" fill="#259146"/>
<path d="M118.12 188.039C119.071 188.039 119.933 188.341 120.704 188.943C121.486 189.546 122.093 190.36 122.526 191.386C122.959 192.412 123.162 193.532 123.133 194.747C122.465 195.048 121.74 195.279 120.959 195.439C120.177 195.599 119.471 195.679 118.84 195.679C117.918 195.679 117 195.472 116.087 195.058C115.644 195.472 115.061 195.679 114.336 195.679H113.263C113.168 195.679 113.098 195.58 113.051 195.382C113.004 195.185 112.98 194.912 112.98 194.563C112.98 194.224 113.004 193.961 113.051 193.773C113.098 193.575 113.168 193.476 113.263 193.476H113.46C113.724 193.476 113.926 193.415 114.068 193.292C114.218 193.161 114.317 192.968 114.364 192.713L114.421 192.417C114.534 191.749 114.694 191.108 114.901 190.496C115.108 189.885 115.47 189.324 115.988 188.816C116.515 188.298 117.226 188.039 118.12 188.039ZM116.878 192.911C117.264 193.118 117.607 193.264 117.908 193.349C118.219 193.434 118.544 193.476 118.883 193.476C119.391 193.476 119.933 193.405 120.507 193.264C120.394 192.709 120.215 192.205 119.97 191.753C119.725 191.292 119.448 190.929 119.137 190.666C118.836 190.393 118.535 190.256 118.233 190.256C117.8 190.256 117.485 190.511 117.287 191.019C117.089 191.527 116.953 192.158 116.878 192.911Z" fill="#259146"/>
<path d="M131.87 195.679C131.164 195.679 130.524 195.524 129.95 195.213C129.376 194.893 128.924 194.464 128.594 193.928C128.274 193.382 128.114 192.784 128.114 192.134C128.114 191.438 128.293 190.784 128.651 190.172C129.018 189.55 129.489 189.051 130.063 188.675C130.647 188.298 131.249 188.11 131.87 188.11C132.492 188.11 133.089 188.298 133.664 188.675C134.247 189.051 134.718 189.55 135.076 190.172C135.443 190.784 135.627 191.438 135.627 192.134C135.627 192.784 135.462 193.382 135.132 193.928C134.812 194.464 134.365 194.893 133.791 195.213C133.217 195.524 132.576 195.679 131.87 195.679ZM131.87 193.476C132.247 193.476 132.548 193.358 132.774 193.123C133 192.888 133.113 192.558 133.113 192.134C133.113 191.861 133.042 191.584 132.901 191.301C132.769 191.019 132.605 190.784 132.407 190.595C132.209 190.407 132.03 190.313 131.87 190.313C131.71 190.313 131.531 190.407 131.334 190.595C131.136 190.784 130.967 191.019 130.825 191.301C130.694 191.584 130.628 191.861 130.628 192.134C130.628 192.558 130.741 192.888 130.967 193.123C131.193 193.358 131.494 193.476 131.87 193.476ZM133.099 187.093C132.807 187.093 132.562 186.994 132.365 186.797C132.167 186.599 132.068 186.35 132.068 186.048C132.068 185.747 132.167 185.498 132.365 185.3C132.562 185.102 132.807 185.003 133.099 185.003C133.4 185.003 133.645 185.102 133.833 185.3C134.031 185.498 134.13 185.747 134.13 186.048C134.13 186.35 134.031 186.599 133.833 186.797C133.645 186.994 133.4 187.093 133.099 187.093ZM130.67 187.093C130.378 187.093 130.133 186.994 129.936 186.797C129.738 186.599 129.639 186.35 129.639 186.048C129.639 185.747 129.738 185.498 129.936 185.3C130.133 185.102 130.378 185.003 130.67 185.003C130.971 185.003 131.216 185.102 131.404 185.3C131.602 185.498 131.701 185.747 131.701 186.048C131.701 186.35 131.602 186.599 131.404 186.797C131.216 186.994 130.971 187.093 130.67 187.093Z" fill="#259146"/>
<path d="M136.106 196.752C136.634 196.762 137.005 196.649 137.222 196.413C137.438 196.187 137.547 195.792 137.547 195.227V188.407H140.06V195.227C140.06 196.338 139.736 197.223 139.086 197.882C138.446 198.541 137.566 198.899 136.445 198.955L136.106 196.752Z" fill="#259146"/>
<path d="M141.86 185.046H144.374V195.679H141.86V185.046Z" fill="#259146"/>
<path d="M147.836 187.107C149.079 187.352 150.171 187.823 151.113 188.519C152.063 189.207 152.816 190.078 153.372 191.132C153.927 192.186 154.257 193.368 154.36 194.676C152.722 195.345 150.905 195.679 148.91 195.679C147.902 195.679 146.923 195.589 145.972 195.411V193.151C146.904 193.368 147.874 193.476 148.881 193.476C149.86 193.476 150.75 193.387 151.55 193.208C151.24 192.182 150.727 191.325 150.011 190.638C149.296 189.941 148.411 189.484 147.356 189.268L147.836 187.107Z" fill="#259146"/>
<path d="M156.009 185.046H158.522V195.679H156.009V185.046ZM159.087 198.729V200H155.444V198.729H155.712C155.665 198.541 155.642 198.367 155.642 198.207C155.642 197.67 155.83 197.232 156.207 196.893C156.583 196.554 157.063 196.385 157.647 196.385C158.099 196.385 158.537 196.479 158.96 196.667L158.395 197.896C158.311 197.849 158.198 197.811 158.056 197.783C157.925 197.755 157.793 197.741 157.661 197.741C157.426 197.741 157.237 197.788 157.096 197.882C156.964 197.976 156.898 198.098 156.898 198.249C156.898 198.362 156.931 198.461 156.997 198.546C157.063 198.64 157.153 198.701 157.266 198.729H159.087Z" fill="#259146"/>
</svg>
